Facade-MediumItalic.ufo
<glyph name="exclam" format="2">
  <advance width="480.0"/>
  <unicode hex="0021"/>
  <outline>
    <contour>
      <point x="185.5" y="315.0" type="line"/>
      <point x="299.5" y="315.0" type="line"/>
      <point x="468.0" y="900.0" type="line"/>
      <point x="312.0" y="900.0" type="line"/>
    </contour>
    <contour>
      <point x="173.0" y="-16.0" type="curve" smooth="yes"/>
      <point x="227.0" y="-16.0"/>
      <point x="274.0" y="31.0"/>
      <point x="274.0" y="85.0" type="curve" smooth="yes"/>
      <point x="274.0" y="130.0"/>
      <point x="239.5" y="164.0"/>
      <point x="195.0" y="164.0" type="curve" smooth="yes"/>
      <point x="141.0" y="164.0"/>
      <point x="94.0" y="117.0"/>
      <point x="94.0" y="63.5" type="curve" smooth="yes"/>
      <point x="94.0" y="18.0"/>
      <point x="130.0" y="-16.0"/>
    </contour>
  </outline>
</glyph>
<glyph name="numbersign" format="2">
  <advance width="750.0"/>
  <unicode hex="0023"/>
  <outline>
    <contour>
      <point x="19.0" y="0.0" type="line"/>
      <point x="139.0" y="0.0" type="line"/>
      <point x="231.0" y="222.0" type="line"/>
      <point x="403.0" y="222.0" type="line"/>
      <point x="311.0" y="0.0" type="line"/>
      <point x="431.0" y="0.0" type="line"/>
      <point x="523.0" y="222.0" type="line"/>
      <point x="634.0" y="222.0" type="line"/>
      <point x="678.5" y="330.0" type="line"/>
      <point x="567.5" y="330.0" type="line"/>
      <point x="666.5" y="570.0" type="line"/>
      <point x="773.5" y="570.0" type="line"/>
      <point x="818.0" y="678.0" type="line"/>
      <point x="711.0" y="678.0" type="line"/>
      <point x="803.0" y="900.0" type="line"/>
      <point x="683.0" y="900.0" type="line"/>
      <point x="591.0" y="678.0" type="line"/>
      <point x="419.0" y="678.0" type="line"/>
      <point x="511.0" y="900.0" type="line"/>
      <point x="391.0" y="900.0" type="line"/>
      <point x="299.0" y="678.0" type="line"/>
      <point x="190.0" y="678.0" type="line"/>
      <point x="145.5" y="570.0" type="line"/>
      <point x="254.5" y="570.0" type="line"/>
      <point x="155.5" y="330.0" type="line"/>
      <point x="50.5" y="330.0" type="line"/>
      <point x="6.0" y="222.0" type="line"/>
      <point x="111.0" y="222.0" type="line"/>
    </contour>
    <contour>
      <point x="267.0" y="324.0" type="line"/>
      <point x="371.0" y="576.0" type="line"/>
      <point x="555.0" y="576.0" type="line"/>
      <point x="451.0" y="324.0" type="line"/>
    </contour>
  </outline>
</glyph>
<glyph name="ampersand" format="2">
  <advance width="800.0"/>
  <unicode hex="0026"/>
  <outline>
    <contour>
      <point x="327.0" y="-15.0" type="curve" smooth="yes"/>
      <point x="397.0" y="-15.0"/>
      <point x="470.5" y="9.5"/>
      <point x="545.0" y="55.5" type="curve"/>
      <point x="491.0" y="83.0" type="line"/>
      <point x="527.5" y="0.0" type="line"/>
      <point x="678.5" y="0.0" type="line"/>
      <point x="630.0" y="105.5" type="line"/>
      <point x="677.0" y="139.0"/>
      <point x="720.0" y="182.0"/>
      <point x="751.5" y="231.0" type="curve"/>
      <point x="690.5" y="371.0" type="line"/>
      <point x="672.5" y="313.5"/>
      <point x="635.0" y="257.5"/>
      <point x="587.5" y="214.0" type="curve"/>
      <point x="467.0" y="488.0" type="line"/>
      <point x="495.5" y="499.0" type="line" smooth="yes"/>
      <point x="625.0" y="548.0"/>
      <point x="699.0" y="622.5"/>
      <point x="699.0" y="722.0" type="curve" smooth="yes"/>
      <point x="699.0" y="831.5"/>
      <point x="615.0" y="915.0"/>
      <point x="494.5" y="915.0" type="curve" smooth="yes"/>
      <point x="363.0" y="915.0"/>
      <point x="253.0" y="806.5"/>
      <point x="253.0" y="682.0" type="curve" smooth="yes"/>
      <point x="253.0" y="646.0"/>
      <point x="263.0" y="614.5"/>
      <point x="283.5" y="561.5" type="curve" smooth="yes"/>
      <point x="290.5" y="545.5" type="line"/>
      <point x="145.0" y="487.5"/>
      <point x="58.5" y="375.0"/>
      <point x="58.5" y="245.5" type="curve" smooth="yes"/>
      <point x="58.5" y="95.0"/>
      <point x="173.0" y="-15.0"/>
    </contour>
    <contour>
      <point x="355.5" y="107.0" type="curve" smooth="yes"/>
      <point x="267.0" y="107.0"/>
      <point x="202.0" y="172.5"/>
      <point x="202.0" y="260.5" type="curve" smooth="yes"/>
      <point x="202.0" y="339.5"/>
      <point x="254.0" y="409.0"/>
      <point x="335.5" y="442.5" type="curve"/>
      <point x="467.5" y="139.5" type="line"/>
      <point x="433.0" y="119.0"/>
      <point x="393.5" y="107.0"/>
    </contour>
    <contour>
      <point x="422.0" y="589.5" type="line"/>
      <point x="409.5" y="618.5" type="line" smooth="yes"/>
      <point x="392.5" y="657.0"/>
      <point x="386.0" y="680.5"/>
      <point x="386.0" y="701.0" type="curve" smooth="yes"/>
      <point x="386.0" y="757.0"/>
      <point x="432.0" y="801.5"/>
      <point x="486.5" y="801.5" type="curve" smooth="yes"/>
      <point x="533.0" y="801.5"/>
      <point x="566.0" y="769.0"/>
      <point x="566.0" y="722.5" type="curve" smooth="yes"/>
      <point x="566.0" y="672.0"/>
      <point x="527.0" y="630.5"/>
      <point x="462.0" y="605.0" type="curve" smooth="yes"/>
    </contour>
  </outline>
</glyph>
<glyph name="quotesingle" format="2">
  <advance width="280.0"/>
  <unicode hex="0027"/>
  <outline>
    <contour>
      <point x="169.0" y="555.0" type="line"/>
      <point x="232.0" y="555.0" type="line"/>
      <point x="373.0" y="900.0" type="line"/>
      <point x="202.0" y="900.0" type="line"/>
    </contour>
  </outline>
</glyph>
<glyph name="parenleft" format="2">
  <advance width="480.0"/>
  <unicode hex="0028"/>
  <outline>
    <contour>
      <point x="147.5" y="-180.0" type="curve"/>
      <point x="287.0" y="-180.0" type="line"/>
      <point x="246.0" y="-79.5"/>
      <point x="225.0" y="30.5"/>
      <point x="225.0" y="147.0" type="curve" smooth="yes"/>
      <point x="225.0" y="431.5"/>
      <point x="351.5" y="738.0"/>
      <point x="590.0" y="960.0" type="curve"/>
      <point x="425.5" y="960.0" type="line"/>
      <point x="212.0" y="731.5"/>
      <point x="90.5" y="440.5"/>
      <point x="90.5" y="152.5" type="curve" smooth="yes"/>
      <point x="90.5" y="36.0"/>
      <point x="110.5" y="-76.0"/>
    </contour>
  </outline>
</glyph>
<glyph name="parenright" format="2">
  <advance width="480.0"/>
  <unicode hex="0029"/>
  <outline>
    <contour>
      <point x="165.0" y="390.0" type="curve"/>
      <point x="150.0" y="390.0" type="line"/>
      <point x="277.5" y="453.0"/>
      <point x="350.5" y="544.0"/>
      <point x="350.5" y="632.0" type="curve" smooth="yes"/>
      <point x="350.5" y="550.5"/>
      <point x="279.5" y="451.0"/>
      <point x="140.5" y="390.0" type="curve"/>
      <point x="180.5" y="390.0" type="line"/>
      <point x="307.5" y="455.0"/>
      <point x="377.0" y="545.0"/>
      <point x="377.0" y="628.5" type="curve" smooth="yes"/>
      <point x="377.0" y="542.0"/>
      <point x="301.5" y="447.0"/>
    </contour>
  </outline>
</glyph>
<glyph name="asterisk" format="2">
  <advance width="600.0"/>
  <unicode hex="002A"/>
  <outline>
    <contour>
      <point x="226.5" y="419.5" type="line"/>
      <point x="367.5" y="571.0" type="line"/>
      <point x="427.0" y="394.5" type="line"/>
      <point x="539.0" y="452.5" type="line"/>
      <point x="449.5" y="614.5" type="line"/>
      <point x="649.5" y="636.0" type="line"/>
      <point x="639.5" y="752.5" type="line"/>
      <point x="444.5" y="700.0" type="line"/>
      <point x="508.5" y="900.0" type="line"/>
      <point x="388.5" y="900.0" type="line"/>
      <point x="358.0" y="710.5" type="line"/>
      <point x="198.5" y="806.5" type="line"/>
      <point x="134.5" y="699.0" type="line"/>
      <point x="311.5" y="631.5" type="line"/>
      <point x="149.5" y="500.5" type="line"/>
    </contour>
  </outline>
</glyph>
<glyph name="plus" format="2">
  <advance width="750.0"/>
  <unicode hex="002B"/>
  <outline>
    <contour>
      <point x="272.0" y="130.0" type="line"/>
      <point x="392.0" y="130.0" type="line"/>
      <point x="552.0" y="770.0" type="line"/>
      <point x="432.0" y="770.0" type="line"/>
    </contour>
    <contour>
      <point x="78.0" y="393.0" type="line"/>
      <point x="718.0" y="393.0" type="line"/>
      <point x="746.0" y="507.0" type="line"/>
      <point x="106.0" y="507.0" type="line"/>
    </contour>
  </outline>
</glyph>
<glyph name="comma" format="2">
  <advance width="280.0"/>
  <unicode hex="002C"/>
  <outline>
    <contour>
      <point x="-115.5" y="-150.0" type="curve"/>
      <point x="32.0" y="-150.0" type="line"/>
      <point x="112.5" y="-61.0"/>
      <point x="170.5" y="45.0"/>
      <point x="200.0" y="165.0" type="curve"/>
      <point x="62.0" y="165.0" type="line"/>
      <point x="28.5" y="30.5"/>
      <point x="-37.5" y="-72.0"/>
    </contour>
  </outline>
</glyph>
<glyph name="hyphen" format="2">
  <advance width="370.0"/>
  <unicode hex="002D"/>
  <outline>
    <contour>
      <point x="15.0" y="240.0" type="line"/>
      <point x="325.0" y="240.0" type="line"/>
      <point x="355.0" y="360.0" type="line"/>
      <point x="45.0" y="360.0" type="line"/>
    </contour>
  </outline>
</glyph>
<glyph name="period" format="2">
  <advance width="285.0"/>
  <unicode hex="002E"/>
  <outline>
    <contour>
      <point x="76.0" y="-16.0" type="curve" smooth="yes"/>
      <point x="131.0" y="-16.0"/>
      <point x="180.0" y="33.0"/>
      <point x="180.0" y="88.0" type="curve" smooth="yes"/>
      <point x="180.0" y="135.0"/>
      <point x="144.5" y="170.0"/>
      <point x="98.0" y="170.0" type="curve" smooth="yes"/>
      <point x="43.0" y="170.0"/>
      <point x="-6.0" y="121.0"/>
      <point x="-6.0" y="66.5" type="curve" smooth="yes"/>
      <point x="-6.0" y="19.0"/>
      <point x="31.0" y="-16.0"/>
    </contour>
  </outline>
</glyph>
<glyph name="slash" format="2">
  <advance width="500.0"/>
  <unicode hex="002F"/>
  <outline>
    <contour>
      <point x="-203.0" y="-180.0" type="line"/>
      <point x="-65.5" y="-180.0" type="line"/>
      <point x="747.0" y="960.0" type="line"/>
      <point x="609.5" y="960.0" type="line"/>
    </contour>
  </outline>
</glyph>
<glyph name="one" format="2">
  <advance width="750.0"/>
  <unicode hex="0031"/>
  <outline>
    <contour>
      <point x="280.0" y="0.0" type="line"/>
      <point x="420.0" y="0.0" type="line"/>
      <point x="651.0" y="926.0" type="line"/>
      <point x="270.0" y="756.0" type="line"/>
      <point x="233.0" y="608.0" type="line"/>
      <point x="503.5" y="729.5" type="line"/>
      <point x="472.0" y="766.5" type="line"/>
    </contour>
    <contour>
      <point x="81.0" y="0.0" type="line"/>
      <point x="579.0" y="0.0" type="line"/>
      <point x="608.0" y="117.0" type="line"/>
      <point x="110.0" y="117.0" type="line"/>
    </contour>
  </outline>
</glyph>
<glyph name="two" format="2">
  <advance width="750.0"/>
  <unicode hex="0032"/>
  <outline>
    <contour>
      <point x="17.5" y="0.0" type="line"/>
      <point x="577.5" y="0.0" type="line"/>
      <point x="610.0" y="132.0" type="line"/>
      <point x="259.0" y="132.0" type="line"/>
      <point x="272.5" y="95.5" type="line"/>
      <point x="602.0" y="433.5" type="line" smooth="yes"/>
      <point x="687.0" y="520.5"/>
      <point x="724.0" y="587.0"/>
      <point x="724.0" y="672.5" type="curve" smooth="yes"/>
      <point x="724.0" y="808.5"/>
      <point x="614.5" y="913.5"/>
      <point x="472.5" y="913.5" type="curve" smooth="yes"/>
      <point x="308.5" y="913.5"/>
      <point x="165.0" y="771.0"/>
      <point x="165.0" y="620.5" type="curve" smooth="yes"/>
      <point x="165.0" y="590.0"/>
      <point x="170.5" y="559.5"/>
      <point x="183.0" y="526.0" type="curve"/>
      <point x="343.5" y="526.0" type="line"/>
      <point x="316.5" y="557.5"/>
      <point x="303.0" y="590.5"/>
      <point x="303.0" y="626.5" type="curve" smooth="yes"/>
      <point x="303.0" y="710.5"/>
      <point x="374.5" y="782.5"/>
      <point x="458.0" y="782.5" type="curve" smooth="yes"/>
      <point x="529.0" y="782.5"/>
      <point x="582.0" y="729.5"/>
      <point x="582.0" y="661.0" type="curve" smooth="yes"/>
      <point x="582.0" y="612.5"/>
      <point x="558.0" y="573.5"/>
      <point x="505.5" y="518.0" type="curve" smooth="yes"/>
    </contour>
  </outline>
</glyph>
<glyph name="three" format="2">
  <advance width="750.0"/>
  <unicode hex="0033"/>
  <outline>
    <contour>
      <point x="293.0" y="-16.0" type="curve" smooth="yes"/>
      <point x="482.5" y="-16.0"/>
      <point x="652.5" y="147.0"/>
      <point x="652.5" y="328.5" type="curve" smooth="yes"/>
      <point x="652.5" y="437.5"/>
      <point x="589.0" y="528.0"/>
      <point x="493.5" y="568.0" type="curve"/>
      <point x="755.5" y="900.0" type="line"/>
      <point x="272.5" y="900.0" type="line"/>
      <point x="242.0" y="774.0" type="line"/>
      <point x="563.0" y="774.0" type="line"/>
      <point x="541.0" y="817.0" type="line"/>
      <point x="264.0" y="462.5" type="line"/>
      <point x="292.0" y="472.5"/>
      <point x="320.0" y="478.0"/>
      <point x="348.5" y="478.0" type="curve" smooth="yes"/>
      <point x="450.0" y="478.0"/>
      <point x="512.5" y="407.5"/>
      <point x="512.5" y="320.5" type="curve" smooth="yes"/>
      <point x="512.5" y="213.5"/>
      <point x="419.0" y="116.0"/>
      <point x="306.5" y="116.0" type="curve" smooth="yes"/>
      <point x="201.5" y="116.0"/>
      <point x="136.5" y="203.0"/>
      <point x="139.0" y="306.5" type="curve"/>
      <point x="25.0" y="163.0" type="line"/>
      <point x="68.0" y="46.5"/>
      <point x="180.0" y="-16.0"/>
    </contour>
  </outline>
</glyph>
<glyph name="five" format="2">
  <advance width="750.0"/>
  <unicode hex="0035"/>
  <outline>
    <contour>
      <point x="293.0" y="-16.0" type="curve" smooth="yes"/>
      <point x="486.0" y="-16.0"/>
      <point x="656.0" y="148.5"/>
      <point x="656.0" y="335.5" type="curve" smooth="yes"/>
      <point x="656.0" y="497.0"/>
      <point x="526.0" y="599.5"/>
      <point x="394.0" y="599.5" type="curve" smooth="yes"/>
      <point x="383.5" y="599.5"/>
      <point x="371.5" y="598.5"/>
      <point x="359.0" y="595.0" type="curve"/>
      <point x="402.5" y="771.0" type="line"/>
      <point x="702.5" y="771.0" type="line"/>
      <point x="734.0" y="900.0" type="line"/>
      <point x="312.0" y="900.0" type="line"/>
      <point x="193.5" y="423.5" type="line"/>
      <point x="236.0" y="458.0"/>
      <point x="289.5" y="479.5"/>
      <point x="344.0" y="479.5" type="curve" smooth="yes"/>
      <point x="444.0" y="479.5"/>
      <point x="515.0" y="410.5"/>
      <point x="515.0" y="322.0" type="curve" smooth="yes"/>
      <point x="515.0" y="214.0"/>
      <point x="418.0" y="116.0"/>
      <point x="306.5" y="116.0" type="curve" smooth="yes"/>
      <point x="201.5" y="116.0"/>
      <point x="136.5" y="203.0"/>
      <point x="139.0" y="306.5" type="curve"/>
      <point x="25.0" y="163.0" type="line"/>
      <point x="68.0" y="46.5"/>
      <point x="180.0" y="-16.0"/>
    </contour>
  </outline>
</glyph>
<glyph name="seven" format="2">
  <advance width="750.0"/>
  <unicode hex="0037"/>
  <outline>
    <contour>
      <point x="21.0" y="0.0" type="line"/>
      <point x="191.0" y="0.0" type="line"/>
      <point x="850.0" y="900.0" type="line"/>
      <point x="224.0" y="900.0" type="line"/>
      <point x="191.5" y="768.0" type="line"/>
      <point x="662.5" y="768.0" type="line"/>
      <point x="629.0" y="825.0" type="line"/>
    </contour>
  </outline>
</glyph>
<glyph name="eight" format="2">
  <advance width="750.0"/>
  <unicode hex="0038"/>
  <outline>
    <contour>
      <point x="338.5" y="-16.0" type="curve" smooth="yes"/>
      <point x="517.0" y="-16.0"/>
      <point x="690.5" y="143.5"/>
      <point x="690.5" y="328.5" type="curve" smooth="yes"/>
      <point x="690.5" y="423.5"/>
      <point x="643.5" y="508.0"/>
      <point x="568.5" y="556.0" type="curve"/>
      <point x="574.5" y="515.5" type="line"/>
      <point x="671.0" y="569.5"/>
      <point x="700.0" y="659.5"/>
      <point x="700.0" y="722.0" type="curve" smooth="yes"/>
      <point x="700.0" y="832.5"/>
      <point x="613.0" y="916.0"/>
      <point x="499.0" y="916.0" type="curve" smooth="yes"/>
      <point x="362.0" y="916.0"/>
      <point x="246.0" y="797.0"/>
      <point x="246.0" y="672.0" type="curve" smooth="yes"/>
      <point x="246.0" y="627.0"/>
      <point x="262.0" y="586.5"/>
      <point x="289.0" y="551.0" type="curve"/>
      <point x="313.5" y="586.0" type="line"/>
      <point x="158.5" y="540.0"/>
      <point x="57.0" y="399.0"/>
      <point x="57.0" y="258.0" type="curve" smooth="yes"/>
      <point x="57.0" y="100.5"/>
      <point x="184.0" y="-16.0"/>
    </contour>
    <contour>
      <point x="352.5" y="113.5" type="curve" smooth="yes"/>
      <point x="260.0" y="113.5"/>
      <point x="196.0" y="185.5"/>
      <point x="196.0" y="272.0" type="curve" smooth="yes"/>
      <point x="196.0" y="376.0"/>
      <point x="287.5" y="474.0"/>
      <point x="396.5" y="474.0" type="curve" smooth="yes"/>
      <point x="486.5" y="474.0"/>
      <point x="551.5" y="404.0"/>
      <point x="551.5" y="316.5" type="curve" smooth="yes"/>
      <point x="551.5" y="210.5"/>
      <point x="457.0" y="113.5"/>
    </contour>
    <contour>
      <point x="458.5" y="588.0" type="curve" smooth="yes"/>
      <point x="406.5" y="588.0"/>
      <point x="369.0" y="625.0"/>
      <point x="369.0" y="676.5" type="curve" smooth="yes"/>
      <point x="369.0" y="740.0"/>
      <point x="424.5" y="792.5"/>
      <point x="484.5" y="792.5" type="curve" smooth="yes"/>
      <point x="537.0" y="792.5"/>
      <point x="574.0" y="750.5"/>
      <point x="574.0" y="701.0" type="curve" smooth="yes"/>
      <point x="574.0" y="637.0"/>
      <point x="517.5" y="588.0"/>
    </contour>
  </outline>
</glyph>
<glyph name="less" format="2">
  <advance width="750.0"/>
  <unicode hex="003C"/>
  <outline>
    <contour>
      <point x="630.0" y="143.0" type="line"/>
      <point x="659.5" y="261.5" type="line"/>
      <point x="421.0" y="391.0" type="line" smooth="yes"/>
      <point x="389.0" y="409.0"/>
      <point x="350.0" y="426.0"/>
      <point x="313.0" y="442.0" type="curve"/>
      <point x="358.0" y="459.0"/>
      <point x="405.0" y="476.0"/>
      <point x="447.0" y="494.0" type="curve" smooth="yes"/>
      <point x="749.0" y="624.5" type="line"/>
      <point x="782.0" y="759.0" type="line"/>
      <point x="79.0" y="451.0" type="line"/>
    </contour>
  </outline>
</glyph>
<glyph name="equal" format="2">
  <advance width="750.0"/>
  <unicode hex="003D"/>
  <outline>
    <contour>
      <point x="78.5" y="274.0" type="line"/>
      <point x="658.5" y="274.0" type="line"/>
      <point x="686.5" y="388.0" type="line"/>
      <point x="106.5" y="388.0" type="line"/>
    </contour>
    <contour>
      <point x="137.5" y="512.0" type="line"/>
      <point x="717.5" y="512.0" type="line"/>
      <point x="745.5" y="626.0" type="line"/>
      <point x="165.5" y="626.0" type="line"/>
    </contour>
  </outline>
</glyph>
<glyph name="greater" format="2">
  <advance width="750.0"/>
  <unicode hex="003E"/>
  <outline>
    <contour>
      <point x="42.0" y="143.0" type="line"/>
      <point x="745.0" y="451.0" type="line"/>
      <point x="194.0" y="759.0" type="line"/>
      <point x="164.5" y="640.5" type="line"/>
      <point x="403.0" y="511.0" type="line" smooth="yes"/>
      <point x="435.0" y="493.0"/>
      <point x="474.0" y="476.0"/>
      <point x="511.0" y="460.0" type="curve"/>
      <point x="466.0" y="443.0"/>
      <point x="419.0" y="426.0"/>
      <point x="377.0" y="408.0" type="curve" smooth="yes"/>
      <point x="75.0" y="277.5" type="line"/>
    </contour>
  </outline>
</glyph>
<glyph name="question" format="2">
  <advance width="480.0"/>
  <unicode hex="003F"/>
  <outline>
    <contour>
      <point x="185.5" y="315.0" type="curve"/>
      <point x="302.5" y="315.0" type="line"/>
      <point x="363.5" y="486.5"/>
      <point x="556.5" y="552.0"/>
      <point x="556.5" y="725.5" type="curve" smooth="yes"/>
      <point x="556.5" y="849.0"/>
      <point x="459.0" y="915.0"/>
      <point x="347.0" y="915.0" type="curve" smooth="yes"/>
      <point x="302.0" y="915.0"/>
      <point x="261.0" y="904.5"/>
      <point x="224.0" y="885.0" type="curve"/>
      <point x="187.0" y="732.5" type="line"/>
      <point x="222.5" y="763.0"/>
      <point x="270.5" y="787.0"/>
      <point x="320.0" y="787.0" type="curve" smooth="yes"/>
      <point x="374.0" y="787.0"/>
      <point x="416.0" y="755.5"/>
      <point x="416.0" y="702.0" type="curve" smooth="yes"/>
      <point x="416.0" y="588.5"/>
      <point x="224.0" y="510.5"/>
    </contour>
    <contour>
      <point x="173.0" y="-16.0" type="curve" smooth="yes"/>
      <point x="227.0" y="-16.0"/>
      <point x="274.0" y="31.0"/>
      <point x="274.0" y="85.0" type="curve" smooth="yes"/>
      <point x="274.0" y="130.0"/>
      <point x="239.5" y="164.0"/>
      <point x="195.0" y="164.0" type="curve" smooth="yes"/>
      <point x="141.0" y="164.0"/>
      <point x="94.0" y="117.0"/>
      <point x="94.0" y="63.5" type="curve" smooth="yes"/>
      <point x="94.0" y="18.0"/>
      <point x="130.0" y="-16.0"/>
    </contour>
  </outline>
</glyph>
<glyph name="at" format="2">
  <advance width="1260.0"/>
  <unicode hex="0040"/>
  <outline>
    <contour>
      <point x="603.0" y="-192.0" type="curve" smooth="yes"/>
      <point x="703.0" y="-192.0"/>
      <point x="799.5" y="-167.5"/>
      <point x="885.5" y="-119.0" type="curve"/>
      <point x="885.5" y="-3.0" type="line"/>
      <point x="802.0" y="-56.0"/>
      <point x="713.5" y="-82.5"/>
      <point x="621.5" y="-82.5" type="curve" smooth="yes"/>
      <point x="382.0" y="-82.5"/>
      <point x="210.0" y="77.5"/>
      <point x="210.0" y="302.5" type="curve" smooth="yes"/>
      <point x="210.0" y="571.5"/>
      <point x="443.0" y="801.0"/>
      <point x="717.0" y="801.0" type="curve" smooth="yes"/>
      <point x="939.0" y="801.0"/>
      <point x="1103.0" y="652.5"/>
      <point x="1103.0" y="443.5" type="curve" smooth="yes"/>
      <point x="1103.0" y="289.0"/>
      <point x="1017.0" y="144.5"/>
      <point x="933.0" y="144.5" type="curve" smooth="yes"/>
      <point x="888.5" y="144.5"/>
      <point x="865.5" y="184.5"/>
      <point x="878.0" y="234.0" type="curve" smooth="yes"/>
      <point x="975.0" y="630.0" type="line"/>
      <point x="861.0" y="630.0" type="line"/>
      <point x="830.5" y="505.0" type="line"/>
      <point x="862.0" y="529.5" type="line"/>
      <point x="820.5" y="599.5"/>
      <point x="743.0" y="642.0"/>
      <point x="655.0" y="642.0" type="curve" smooth="yes"/>
      <point x="491.5" y="642.0"/>
      <point x="344.0" y="493.0"/>
      <point x="344.0" y="326.5" type="curve" smooth="yes"/>
      <point x="344.0" y="188.5"/>
      <point x="446.0" y="82.5"/>
      <point x="585.0" y="82.5" type="curve" smooth="yes"/>
      <point x="660.0" y="82.5"/>
      <point x="734.0" y="113.5"/>
      <point x="793.0" y="169.5" type="curve"/>
      <point x="764.5" y="187.0" type="line"/>
      <point x="762.0" y="109.0"/>
      <point x="828.0" y="49.0"/>
      <point x="919.0" y="49.0" type="curve" smooth="yes"/>
      <point x="1079.5" y="49.0"/>
      <point x="1224.0" y="240.5"/>
      <point x="1224.0" y="455.5" type="curve" smooth="yes"/>
      <point x="1224.0" y="716.5"/>
      <point x="1010.5" y="912.0"/>
      <point x="728.0" y="912.0" type="curve" smooth="yes"/>
      <point x="388.0" y="912.0"/>
      <point x="89.0" y="624.5"/>
      <point x="89.0" y="296.0" type="curve" smooth="yes"/>
      <point x="89.0" y="15.0"/>
      <point x="308.0" y="-192.0"/>
    </contour>
    <contour>
      <point x="617.0" y="193.5" type="curve" smooth="yes"/>
      <point x="534.0" y="193.5"/>
      <point x="473.5" y="258.0"/>
      <point x="473.5" y="339.5" type="curve" smooth="yes"/>
      <point x="473.5" y="439.5"/>
      <point x="561.0" y="527.0"/>
      <point x="659.0" y="527.0" type="curve" smooth="yes"/>
      <point x="741.5" y="527.0"/>
      <point x="802.5" y="465.5"/>
      <point x="802.5" y="383.5" type="curve" smooth="yes"/>
      <point x="802.5" y="283.5"/>
      <point x="714.5" y="193.5"/>
    </contour>
  </outline>
</glyph>
<glyph name="A" format="2">
  <advance width="810.0"/>
  <unicode hex="0041"/>
  <anchor x="330.0" y="0.0" name="bottom"/>
  <anchor x="600.5" y="0.0" name="ogonek"/>
  <anchor x="551.5" y="900.0" name="top"/>
  <anchor x="227.5" y="720.0" name="top-vertical"/>
  <outline>
    <contour>
      <point x="-60.0" y="0.0" type="line"/>
      <point x="95.0" y="0.0" type="line"/>
      <point x="401.0" y="468.0" type="line"/>
      <point x="432.5" y="515.5"/>
      <point x="457.5" y="556.0"/>
      <point x="488.0" y="617.0" type="curve"/>
      <point x="489.0" y="555.5"/>
      <point x="496.0" y="515.0"/>
      <point x="503.5" y="468.0" type="curve"/>
      <point x="579.0" y="0.0" type="line"/>
      <point x="720.0" y="0.0" type="line"/>
      <point x="560.0" y="931.0" type="line"/>
      <point x="558.0" y="931.0" type="line"/>
    </contour>
    <contour>
      <point x="177.0" y="213.5" type="line"/>
      <point x="582.0" y="213.5" type="line"/>
      <point x="568.0" y="333.0" type="line"/>
      <point x="251.5" y="333.0" type="line"/>
    </contour>
  </outline>
</glyph>
<glyph name="B" format="2">
  <advance width="750.0"/>
  <unicode hex="0042"/>
  <outline>
    <contour>
      <point x="36.0" y="0.0" type="line"/>
      <point x="351.5" y="0.0" type="line" smooth="yes"/>
      <point x="531.5" y="0.0"/>
      <point x="694.0" y="152.0"/>
      <point x="694.0" y="327.0" type="curve" smooth="yes"/>
      <point x="694.0" y="426.0"/>
      <point x="641.5" y="507.5"/>
      <point x="561.0" y="549.0" type="curve"/>
      <point x="565.0" y="507.0" type="line"/>
      <point x="650.0" y="540.0"/>
      <point x="712.0" y="624.0"/>
      <point x="712.0" y="717.5" type="curve" smooth="yes"/>
      <point x="712.0" y="824.0"/>
      <point x="629.5" y="900.0"/>
      <point x="517.5" y="900.0" type="curve" smooth="yes"/>
      <point x="261.0" y="900.0" type="line"/>
    </contour>
    <contour>
      <point x="212.5" y="132.0" type="line"/>
      <point x="298.5" y="474.0" type="line"/>
      <point x="387.0" y="474.0" type="line" smooth="yes"/>
      <point x="478.5" y="474.0"/>
      <point x="543.0" y="413.0"/>
      <point x="543.0" y="326.5" type="curve" smooth="yes"/>
      <point x="543.0" y="222.0"/>
      <point x="451.0" y="132.0"/>
      <point x="345.0" y="132.0" type="curve" smooth="yes"/>
    </contour>
    <contour>
      <point x="326.5" y="585.0" type="line"/>
      <point x="376.0" y="783.0" type="line"/>
      <point x="484.0" y="783.0" type="line" smooth="yes"/>
      <point x="536.5" y="783.0"/>
      <point x="574.0" y="748.0"/>
      <point x="574.0" y="697.5" type="curve" smooth="yes"/>
      <point x="574.0" y="637.0"/>
      <point x="520.5" y="585.0"/>
      <point x="454.5" y="585.0" type="curve" smooth="yes"/>
    </contour>
  </outline>
</glyph>
<glyph name="C" format="2">
  <advance width="885.0"/>
  <unicode hex="0043"/>
  <anchor x="437.5" y="0.0" name="bottom"/>
  <anchor x="659.5" y="900.0" name="top"/>
  <outline>
    <contour>
      <point x="512.5" y="-18.0" type="curve" smooth="yes"/>
      <point x="623.0" y="-18.0"/>
      <point x="729.0" y="22.0"/>
      <point x="817.5" y="87.0" type="curve"/>
      <point x="817.5" y="286.5" type="line"/>
      <point x="751.5" y="190.0"/>
      <point x="643.5" y="123.0"/>
      <point x="528.0" y="123.0" type="curve" smooth="yes"/>
      <point x="370.0" y="123.0"/>
      <point x="249.0" y="246.5"/>
      <point x="249.0" y="408.0" type="curve" smooth="yes"/>
      <point x="249.0" y="601.0"/>
      <point x="418.5" y="777.0"/>
      <point x="606.5" y="777.0" type="curve" smooth="yes"/>
      <point x="712.5" y="777.0"/>
      <point x="801.0" y="722.0"/>
      <point x="848.0" y="637.5" type="curve"/>
      <point x="923.5" y="793.5" type="line"/>
      <point x="848.5" y="871.0"/>
      <point x="742.5" y="918.0"/>
      <point x="621.5" y="918.0" type="curve" smooth="yes"/>
      <point x="344.5" y="918.0"/>
      <point x="95.0" y="669.5"/>
      <point x="95.0" y="395.5" type="curve" smooth="yes"/>
      <point x="95.0" y="162.5"/>
      <point x="276.0" y="-18.0"/>
    </contour>
  </outline>
</glyph>
<glyph name="D" format="2">
  <advance width="950.0"/>
  <unicode hex="0044"/>
  <anchor x="332.0" y="0.0" name="bottom"/>
  <anchor x="222.0" y="480.0" name="center"/>
  <anchor x="557.0" y="914.0" name="top"/>
  <outline>
    <contour>
      <point x="36.0" y="0.0" type="line"/>
      <point x="402.5" y="0.0" type="line" smooth="yes"/>
      <point x="679.5" y="0.0"/>
      <point x="929.0" y="234.0"/>
      <point x="929.0" y="503.0" type="curve" smooth="yes"/>
      <point x="929.0" y="732.0"/>
      <point x="747.5" y="900.0"/>
      <point x="511.5" y="900.0" type="curve" smooth="yes"/>
      <point x="261.0" y="900.0" type="line"/>
    </contour>
    <contour>
      <point x="212.5" y="132.0" type="line"/>
      <point x="372.5" y="768.0" type="line"/>
      <point x="484.5" y="768.0" type="line" smooth="yes"/>
      <point x="654.0" y="768.0"/>
      <point x="775.0" y="654.5"/>
      <point x="775.0" y="493.0" type="curve" smooth="yes"/>
      <point x="775.0" y="299.5"/>
      <point x="603.5" y="132.0"/>
      <point x="406.0" y="132.0" type="curve" smooth="yes"/>
    </contour>
  </outline>
</glyph>
<glyph name="E" format="2">
  <advance width="630.0"/>
  <unicode hex="0045"/>
  <anchor x="273.0" y="0.0" name="bottom"/>
  <anchor x="436.0" y="0.0" name="ogonek"/>
  <anchor x="498.0" y="900.0" name="top"/>
  <anchor x="276.0" y="900.0" name="topleft"/>
  <outline>
    <contour>
      <point x="36.0" y="0.0" type="line"/>
      <point x="498.0" y="0.0" type="line"/>
      <point x="530.5" y="132.0" type="line"/>
      <point x="212.5" y="132.0" type="line"/>
      <point x="300.5" y="480.0" type="line"/>
      <point x="549.0" y="480.0" type="line"/>
      <point x="580.0" y="606.0" type="line"/>
      <point x="332.0" y="606.0" type="line"/>
      <point x="373.0" y="771.0" type="line"/>
      <point x="691.0" y="771.0" type="line"/>
      <point x="723.0" y="900.0" type="line"/>
      <point x="261.0" y="900.0" type="line"/>
    </contour>
  </outline>
</glyph>
<glyph name="F" format="2">
  <advance width="600.0"/>
  <unicode hex="0046"/>
  <outline>
    <contour>
      <point x="36.0" y="0.0" type="line"/>
      <point x="180.0" y="0.0" type="line"/>
      <point x="300.0" y="480.0" type="line"/>
      <point x="589.0" y="480.0" type="line"/>
      <point x="620.0" y="606.0" type="line"/>
      <point x="332.0" y="606.0" type="line"/>
      <point x="374.0" y="774.0" type="line"/>
      <point x="692.0" y="774.0" type="line"/>
      <point x="723.0" y="900.0" type="line"/>
      <point x="261.0" y="900.0" type="line"/>
    </contour>
  </outline>
</glyph>
<glyph name="G" format="2">
  <advance width="930.0"/>
  <unicode hex="0047"/>
  <anchor x="489.5" y="0.0" name="bottom"/>
  <anchor x="776.5" y="270.0" name="center"/>
  <anchor x="645.5" y="900.0" name="top"/>
  <outline>
    <contour>
      <point x="512.5" y="-18.0" type="curve" smooth="yes"/>
      <point x="614.0" y="-18.0"/>
      <point x="712.5" y="15.5"/>
      <point x="796.5" y="72.0" type="curve"/>
      <point x="898.5" y="492.0" type="line"/>
      <point x="546.0" y="492.0" type="line"/>
      <point x="515.0" y="366.0" type="line"/>
      <point x="730.5" y="366.0" type="line"/>
      <point x="681.0" y="163.5" type="line"/>
      <point x="634.5" y="138.0"/>
      <point x="582.0" y="123.0"/>
      <point x="528.0" y="123.0" type="curve" smooth="yes"/>
      <point x="370.0" y="123.0"/>
      <point x="249.0" y="246.5"/>
      <point x="249.0" y="408.0" type="curve" smooth="yes"/>
      <point x="249.0" y="601.0"/>
      <point x="418.5" y="777.0"/>
      <point x="606.5" y="777.0" type="curve" smooth="yes"/>
      <point x="712.5" y="777.0"/>
      <point x="801.0" y="722.0"/>
      <point x="848.0" y="637.5" type="curve"/>
      <point x="923.5" y="793.5" type="line"/>
      <point x="848.5" y="871.0"/>
      <point x="742.5" y="918.0"/>
      <point x="621.5" y="918.0" type="curve" smooth="yes"/>
      <point x="344.5" y="918.0"/>
      <point x="95.0" y="669.5"/>
      <point x="95.0" y="395.5" type="curve" smooth="yes"/>
      <point x="95.0" y="162.5"/>
      <point x="276.0" y="-18.0"/>
    </contour>
  </outline>
</glyph>
<glyph name="H" format="2">
  <advance width="800.0"/>
  <unicode hex="0048"/>
  <anchor x="326.5" y="0.0" name="bottom"/>
  <anchor x="511.5" y="750.0" name="center"/>
  <anchor x="548.5" y="900.0" name="top"/>
  <anchor x="274.5" y="900.0" name="topleft"/>
  <outline>
    <contour>
      <point x="36.0" y="0.0" type="line"/>
      <point x="180.0" y="0.0" type="line"/>
      <point x="299.5" y="477.0" type="line"/>
      <point x="589.5" y="477.0" type="line"/>
      <point x="470.0" y="0.0" type="line"/>
      <point x="614.0" y="0.0" type="line"/>
      <point x="839.0" y="900.0" type="line"/>
      <point x="695.0" y="900.0" type="line"/>
      <point x="623.0" y="609.0" type="line"/>
      <point x="333.0" y="609.0" type="line"/>
      <point x="405.0" y="900.0" type="line"/>
      <point x="261.0" y="900.0" type="line"/>
    </contour>
  </outline>
</glyph>
<glyph name="J" format="2">
  <advance width="550.0"/>
  <unicode hex="004A"/>
  <anchor x="88.5" y="0.0" name="bottom"/>
  <anchor x="529.5" y="900.0" name="top"/>
  <outline>
    <contour>
      <point x="153.0" y="-16.0" type="curve" smooth="yes"/>
      <point x="273.0" y="-16.0"/>
      <point x="393.5" y="58.5"/>
      <point x="436.0" y="228.0" type="curve" smooth="yes"/>
      <point x="604.0" y="900.0" type="line"/>
      <point x="454.0" y="900.0" type="line"/>
      <point x="293.0" y="257.0" type="line" smooth="yes"/>
      <point x="268.0" y="158.5"/>
      <point x="213.0" y="119.0"/>
      <point x="153.5" y="119.0" type="curve" smooth="yes"/>
      <point x="93.0" y="119.0"/>
      <point x="44.5" y="157.5"/>
      <point x="27.0" y="211.5" type="curve"/>
      <point x="-47.5" y="75.0" type="line"/>
      <point x="-5.0" y="7.0"/>
      <point x="88.0" y="-16.0"/>
    </contour>
  </outline>
</glyph>
<glyph name="K" format="2">
  <advance width="790.0"/>
  <unicode hex="004B"/>
  <anchor x="363.0" y="0.0" name="bottom"/>
  <anchor x="547.0" y="900.0" name="top"/>
  <outline>
    <contour>
      <point x="555.5" y="0.0" type="line"/>
      <point x="714.5" y="0.0" type="line"/>
      <point x="467.0" y="621.0" type="line"/>
      <point x="463.0" y="540.0" type="line"/>
      <point x="846.0" y="900.0" type="line"/>
      <point x="669.0" y="900.0" type="line"/>
      <point x="329.0" y="579.0" type="line"/>
    </contour>
    <contour>
      <point x="36.0" y="0.0" type="line"/>
      <point x="183.0" y="0.0" type="line"/>
      <point x="408.0" y="900.0" type="line"/>
      <point x="261.0" y="900.0" type="line"/>
    </contour>
  </outline>
</glyph>
<glyph name="L" format="2">
  <advance width="600.0"/>
  <unicode hex="004C"/>
  <anchor x="264.0" y="0.0" name="bottom"/>
  <anchor x="219.0" y="450.0" name="center"/>
  <anchor x="463.0" y="480.0" name="periodcentered"/>
  <anchor x="336.0" y="900.0" name="top"/>
  <anchor x="432.0" y="900.0" name="topright"/>
  <outline>
    <contour>
      <point x="36.0" y="0.0" type="line"/>
      <point x="477.0" y="0.0" type="line"/>
      <point x="509.5" y="132.0" type="line"/>
      <point x="218.5" y="132.0" type="line"/>
      <point x="411.0" y="900.0" type="line"/>
      <point x="261.0" y="900.0" type="line"/>
    </contour>
  </outline>
</glyph>
<glyph name="M" format="2">
  <advance width="1060.0"/>
  <unicode hex="004D"/>
  <outline>
    <contour>
      <point x="36.0" y="0.0" type="line"/>
      <point x="174.0" y="0.0" type="line"/>
      <point x="252.5" y="313.0" type="line" smooth="yes"/>
      <point x="268.5" y="375.5"/>
      <point x="287.5" y="449.5"/>
      <point x="300.0" y="551.5" type="curve"/>
      <point x="325.5" y="472.0"/>
      <point x="358.5" y="407.5"/>
      <point x="382.0" y="359.0" type="curve" smooth="yes"/>
      <point x="486.5" y="146.5" type="line"/>
      <point x="741.5" y="407.0" type="line" smooth="yes"/>
      <point x="780.0" y="446.5"/>
      <point x="824.0" y="490.0"/>
      <point x="874.0" y="551.5" type="curve"/>
      <point x="849.0" y="472.5"/>
      <point x="833.5" y="412.5"/>
      <point x="820.5" y="361.0" type="curve" smooth="yes"/>
      <point x="730.5" y="2.0" type="line"/>
      <point x="874.5" y="2.0" type="line"/>
      <point x="1111.5" y="954.0" type="line"/>
      <point x="537.0" y="375.0" type="line"/>
      <point x="261.5" y="906.0" type="line"/>
    </contour>
  </outline>
</glyph>
<glyph name="N" format="2">
  <advance width="945.0"/>
  <unicode hex="004E"/>
  <anchor x="465.0" y="60.0" name="bottom"/>
  <anchor x="570.0" y="840.0" name="top"/>
  <outline>
    <contour>
      <point x="752.0" y="-30.0" type="line"/>
      <point x="984.0" y="900.0" type="line"/>
      <point x="846.0" y="900.0" type="line"/>
      <point x="696.5" y="300.5" type="line"/>
      <point x="268.0" y="930.0" type="line"/>
      <point x="36.0" y="0.0" type="line"/>
      <point x="174.0" y="0.0" type="line"/>
      <point x="323.5" y="600.0" type="line"/>
    </contour>
  </outline>
</glyph>
<glyph name="O" format="2">
  <advance width="1060.0"/>
  <unicode hex="004F"/>
  <anchor x="456.5" y="0.0" name="bottom"/>
  <anchor x="567.5" y="450.0" name="center"/>
  <anchor x="486.5" y="0.0" name="ogonek"/>
  <anchor x="678.5" y="900.0" name="top"/>
  <anchor x="578.5" y="495.0" name="top-vertical"/>
  <anchor x="208.5" y="900.0" name="topleft"/>
  <anchor x="1148.5" y="900.0" name="topright"/>
  <outline>
    <contour>
      <point x="512.5" y="-18.0" type="curve" smooth="yes"/>
      <point x="790.0" y="-18.0"/>
      <point x="1039.0" y="230.5"/>
      <point x="1039.0" y="504.0" type="curve" smooth="yes"/>
      <point x="1039.0" y="737.0"/>
      <point x="858.0" y="918.0"/>
      <point x="621.5" y="918.0" type="curve" smooth="yes"/>
      <point x="344.5" y="918.0"/>
      <point x="95.0" y="669.5"/>
      <point x="95.0" y="395.5" type="curve" smooth="yes"/>
      <point x="95.0" y="162.5"/>
      <point x="276.0" y="-18.0"/>
    </contour>
    <contour>
      <point x="528.0" y="123.0" type="curve" smooth="yes"/>
      <point x="370.0" y="123.0"/>
      <point x="249.0" y="246.5"/>
      <point x="249.0" y="408.0" type="curve" smooth="yes"/>
      <point x="249.0" y="601.0"/>
      <point x="418.5" y="777.0"/>
      <point x="606.5" y="777.0" type="curve" smooth="yes"/>
      <point x="765.0" y="777.0"/>
      <point x="885.0" y="654.5"/>
      <point x="885.0" y="493.0" type="curve" smooth="yes"/>
      <point x="885.0" y="299.5"/>
      <point x="716.0" y="123.0"/>
    </contour>
  </outline>
</glyph>
<glyph name="P" format="2">
  <advance width="730.0"/>
  <unicode hex="0050"/>
  <outline>
    <contour>
      <point x="180.0" y="302.5" type="line"/>
      <point x="412.5" y="302.5" type="line" smooth="yes"/>
      <point x="602.5" y="302.5"/>
      <point x="767.0" y="458.0"/>
      <point x="767.0" y="636.5" type="curve" smooth="yes"/>
      <point x="767.0" y="788.5"/>
      <point x="646.5" y="900.0"/>
      <point x="484.5" y="900.0" type="curve" smooth="yes"/>
      <point x="329.0" y="900.0" type="line"/>
      <point x="297.0" y="771.0" type="line"/>
      <point x="453.0" y="771.0" type="line" smooth="yes"/>
      <point x="555.0" y="771.0"/>
      <point x="620.0" y="710.5"/>
      <point x="620.0" y="624.5" type="curve" smooth="yes"/>
      <point x="620.0" y="520.5"/>
      <point x="528.5" y="431.5"/>
      <point x="411.0" y="431.5" type="curve" smooth="yes"/>
      <point x="212.0" y="431.5" type="line"/>
    </contour>
    <contour>
      <point x="36.0" y="0.0" type="line"/>
      <point x="180.0" y="0.0" type="line"/>
      <point x="405.0" y="900.0" type="line"/>
      <point x="261.0" y="900.0" type="line"/>
    </contour>
  </outline>
</glyph>
<glyph name="Q" format="2">
  <advance width="1060.0"/>
  <unicode hex="0051"/>
  <outline>
    <contour>
      <point x="512.5" y="-18.0" type="curve" smooth="yes"/>
      <point x="790.0" y="-18.0"/>
      <point x="1039.0" y="230.5"/>
      <point x="1039.0" y="504.0" type="curve" smooth="yes"/>
      <point x="1039.0" y="737.0"/>
      <point x="858.0" y="918.0"/>
      <point x="621.5" y="918.0" type="curve" smooth="yes"/>
      <point x="344.5" y="918.0"/>
      <point x="95.0" y="669.5"/>
      <point x="95.0" y="395.5" type="curve" smooth="yes"/>
      <point x="95.0" y="162.5"/>
      <point x="276.0" y="-18.0"/>
    </contour>
    <contour>
      <point x="528.0" y="123.0" type="curve" smooth="yes"/>
      <point x="370.0" y="123.0"/>
      <point x="249.0" y="246.5"/>
      <point x="249.0" y="408.0" type="curve" smooth="yes"/>
      <point x="249.0" y="601.0"/>
      <point x="418.5" y="777.0"/>
      <point x="606.5" y="777.0" type="curve" smooth="yes"/>
      <point x="765.0" y="777.0"/>
      <point x="885.0" y="654.5"/>
      <point x="885.0" y="493.0" type="curve" smooth="yes"/>
      <point x="885.0" y="299.5"/>
      <point x="716.0" y="123.0"/>
    </contour>
    <contour>
      <point x="765.0" y="-30.0" type="line"/>
      <point x="921.0" y="-30.0" type="line"/>
      <point x="640.0" y="450.0" type="line"/>
      <point x="483.0" y="450.0" type="line"/>
      <point x="682.0" y="111.0" type="line"/>
      <point x="687.0" y="105.0" type="line"/>
    </contour>
  </outline>
</glyph>
<glyph name="R" format="2">
  <advance width="790.0"/>
  <unicode hex="0052"/>
  <anchor x="365.0" y="0.0" name="bottom"/>
  <anchor x="473.0" y="900.0" name="top"/>
  <outline>
    <contour>
      <point x="40.0" y="0.0" type="line"/>
      <point x="184.0" y="0.0" type="line"/>
      <point x="408.0" y="900.0" type="line"/>
      <point x="264.0" y="900.0" type="line"/>
    </contour>
    <contour>
      <point x="206.5" y="378.0" type="line"/>
      <point x="437.0" y="378.0" type="line" smooth="yes"/>
      <point x="598.0" y="378.0"/>
      <point x="742.5" y="514.0"/>
      <point x="742.5" y="670.0" type="curve" smooth="yes"/>
      <point x="742.5" y="803.0"/>
      <point x="637.0" y="900.0"/>
      <point x="500.0" y="900.0" type="curve" smooth="yes"/>
      <point x="336.0" y="900.0" type="line"/>
      <point x="303.5" y="768.0" type="line"/>
      <point x="467.0" y="768.0" type="line" smooth="yes"/>
      <point x="549.0" y="768.0"/>
      <point x="601.0" y="721.5"/>
      <point x="601.0" y="652.5" type="curve" smooth="yes"/>
      <point x="601.0" y="570.0"/>
      <point x="527.5" y="501.0"/>
      <point x="434.5" y="501.0" type="curve" smooth="yes"/>
      <point x="237.0" y="501.0" type="line"/>
    </contour>
    <contour>
      <point x="561.0" y="0.0" type="line"/>
      <point x="715.0" y="0.0" type="line"/>
      <point x="532.0" y="456.0" type="line"/>
      <point x="383.0" y="456.0" type="line"/>
    </contour>
  </outline>
</glyph>
<glyph name="S" format="2">
  <advance width="660.0"/>
  <unicode hex="0053"/>
  <anchor x="246.0" y="0.0" name="bottom"/>
  <anchor x="489.0" y="900.0" name="top"/>
  <outline>
    <contour>
      <point x="288.5" y="-13.0" type="curve" smooth="yes"/>
      <point x="458.5" y="-13.0"/>
      <point x="599.5" y="123.0"/>
      <point x="599.5" y="282.5" type="curve" smooth="yes"/>
      <point x="599.5" y="367.5"/>
      <point x="559.0" y="431.0"/>
      <point x="472.5" y="496.0" type="curve" smooth="yes"/>
      <point x="381.0" y="565.5" type="line" smooth="yes"/>
      <point x="335.0" y="600.5"/>
      <point x="314.5" y="630.5"/>
      <point x="314.5" y="667.5" type="curve" smooth="yes"/>
      <point x="314.5" y="733.0"/>
      <point x="369.5" y="783.5"/>
      <point x="437.5" y="783.5" type="curve" smooth="yes"/>
      <point x="512.0" y="783.5"/>
      <point x="586.5" y="727.5"/>
      <point x="621.0" y="646.0" type="curve"/>
      <point x="700.5" y="805.0" type="line"/>
      <point x="642.0" y="871.5"/>
      <point x="546.5" y="913.0"/>
      <point x="452.5" y="913.0" type="curve" smooth="yes"/>
      <point x="294.5" y="913.0"/>
      <point x="168.5" y="793.0"/>
      <point x="168.5" y="646.5" type="curve" smooth="yes"/>
      <point x="168.5" y="569.0"/>
      <point x="205.0" y="516.0"/>
      <point x="288.0" y="450.5" type="curve" smooth="yes"/>
      <point x="378.0" y="379.5" type="line" smooth="yes"/>
      <point x="428.5" y="340.0"/>
      <point x="454.0" y="303.5"/>
      <point x="454.0" y="258.0" type="curve" smooth="yes"/>
      <point x="454.0" y="182.5"/>
      <point x="384.0" y="118.5"/>
      <point x="301.0" y="118.5" type="curve" smooth="yes"/>
      <point x="211.5" y="118.5"/>
      <point x="125.0" y="193.0"/>
      <point x="101.0" y="288.0" type="curve"/>
      <point x="19.5" y="126.5" type="line"/>
      <point x="70.0" y="43.0"/>
      <point x="179.5" y="-13.0"/>
    </contour>
  </outline>
</glyph>
<glyph name="T" format="2">
  <advance width="700.0"/>
  <unicode hex="0054"/>
  <anchor x="275.0" y="0.0" name="bottom"/>
  <anchor x="386.0" y="450.0" name="center"/>
  <anchor x="500.0" y="900.0" name="top"/>
  <outline>
    <contour>
      <point x="162.5" y="768.0" type="line"/>
      <point x="772.5" y="768.0" type="line"/>
      <point x="805.0" y="900.0" type="line"/>
      <point x="195.0" y="900.0" type="line"/>
    </contour>
    <contour>
      <point x="200.0" y="0.0" type="line"/>
      <point x="350.0" y="0.0" type="line"/>
      <point x="575.0" y="900.0" type="line"/>
      <point x="425.0" y="900.0" type="line"/>
    </contour>
  </outline>
</glyph>
<glyph name="U" format="2">
  <advance width="800.0"/>
  <unicode hex="0055"/>
  <anchor x="327.0" y="0.0" name="bottom"/>
  <anchor x="357.0" y="0.0" name="ogonek"/>
  <anchor x="551.0" y="900.0" name="top"/>
  <anchor x="504.0" y="720.0" name="top-vertical"/>
  <anchor x="785.0" y="900.0" name="topright"/>
  <outline>
    <contour>
      <point x="365.0" y="-16.0" type="curve" smooth="yes"/>
      <point x="533.5" y="-16.0"/>
      <point x="657.5" y="90.5"/>
      <point x="701.0" y="264.5" type="curve" smooth="yes"/>
      <point x="860.0" y="900.0" type="line"/>
      <point x="715.0" y="900.0" type="line"/>
      <point x="560.0" y="280.5" type="line" smooth="yes"/>
      <point x="535.5" y="182.5"/>
      <point x="467.5" y="121.5"/>
      <point x="379.5" y="121.5" type="curve" smooth="yes"/>
      <point x="270.5" y="121.5"/>
      <point x="218.5" y="213.5"/>
      <point x="246.0" y="324.5" type="curve" smooth="yes"/>
      <point x="390.0" y="900.0" type="line"/>
      <point x="240.0" y="900.0" type="line"/>
      <point x="99.5" y="336.5" type="line" smooth="yes"/>
      <point x="51.5" y="143.0"/>
      <point x="160.0" y="-16.0"/>
    </contour>
  </outline>
</glyph>
<glyph name="V" format="2">
  <advance width="760.0"/>
  <unicode hex="0056"/>
  <outline>
    <contour>
      <point x="298.0" y="-30.0" type="line"/>
      <point x="300.0" y="-30.0" type="line"/>
      <point x="901.0" y="900.0" type="line"/>
      <point x="744.5" y="900.0" type="line"/>
      <point x="451.5" y="444.0" type="line" smooth="yes"/>
      <point x="414.5" y="386.5"/>
      <point x="389.5" y="346.5"/>
      <point x="351.0" y="263.5" type="curve"/>
      <point x="384.0" y="263.5" type="line"/>
      <point x="385.5" y="347.0"/>
      <point x="378.0" y="389.5"/>
      <point x="370.0" y="444.0" type="curve" smooth="yes"/>
      <point x="304.5" y="900.0" type="line"/>
      <point x="159.0" y="900.0" type="line"/>
    </contour>
  </outline>
</glyph>
<glyph name="W" format="2">
  <advance width="1210.0"/>
  <unicode hex="0057"/>
  <anchor x="534.0" y="0.0" name="bottom"/>
  <anchor x="759.0" y="900.0" name="top"/>
  <outline>
    <contour>
      <point x="285.5" y="-31.0" type="line"/>
      <point x="612.0" y="483.5" type="line" smooth="yes"/>
      <point x="634.5" y="518.5"/>
      <point x="655.0" y="550.5"/>
      <point x="682.0" y="604.0" type="curve"/>
      <point x="682.5" y="550.5"/>
      <point x="688.0" y="518.0"/>
      <point x="693.0" y="483.0" type="curve" smooth="yes"/>
      <point x="761.0" y="-31.0" type="line"/>
      <point x="1351.0" y="900.0" type="line"/>
      <point x="1196.5" y="900.0" type="line"/>
      <point x="904.0" y="438.0" type="line" smooth="yes"/>
      <point x="882.0" y="403.0"/>
      <point x="862.5" y="370.5"/>
      <point x="835.5" y="317.0" type="curve"/>
      <point x="835.0" y="370.5"/>
      <point x="828.0" y="403.0"/>
      <point x="823.0" y="438.0" type="curve" smooth="yes"/>
      <point x="756.0" y="930.0" type="line"/>
      <point x="444.5" y="438.0" type="line" smooth="yes"/>
      <point x="421.0" y="401.0"/>
      <point x="400.5" y="368.5"/>
      <point x="374.5" y="317.0" type="curve"/>
      <point x="373.0" y="368.5"/>
      <point x="369.5" y="401.0"/>
      <point x="364.5" y="438.0" type="curve" smooth="yes"/>
      <point x="302.0" y="900.0" type="line"/>
      <point x="159.0" y="900.0" type="line"/>
    </contour>
  </outline>
</glyph>
<glyph name="X" format="2">
  <advance width="870.0"/>
  <unicode hex="0058"/>
  <outline>
    <contour>
      <point x="-69.0" y="0.0" type="line"/>
      <point x="111.0" y="0.0" type="line"/>
      <point x="363.0" y="285.0" type="line" smooth="yes"/>
      <point x="409.5" y="337.5"/>
      <point x="455.0" y="391.0"/>
      <point x="519.5" y="480.0" type="curve"/>
      <point x="456.5" y="478.5" type="line"/>
      <point x="479.5" y="390.0"/>
      <point x="498.5" y="336.5"/>
      <point x="519.5" y="284.0" type="curve" smooth="yes"/>
      <point x="632.0" y="0.0" type="line"/>
      <point x="792.0" y="0.0" type="line"/>
      <point x="583.5" y="519.5" type="line"/>
      <point x="924.0" y="900.0" type="line"/>
      <point x="752.5" y="900.0" type="line"/>
      <point x="613.0" y="747.0" type="line" smooth="yes"/>
      <point x="570.0" y="699.5"/>
      <point x="529.5" y="650.0"/>
      <point x="475.5" y="572.5" type="curve"/>
      <point x="509.0" y="572.5" type="line"/>
      <point x="494.0" y="650.0"/>
      <point x="476.5" y="699.0"/>
      <point x="457.5" y="746.5" type="curve" smooth="yes"/>
      <point x="396.5" y="900.0" type="line"/>
      <point x="240.0" y="900.0" type="line"/>
      <point x="394.5" y="522.5" type="line"/>
    </contour>
  </outline>
</glyph>
<glyph name="Y" format="2">
  <advance width="700.0"/>
  <unicode hex="0059"/>
  <anchor x="276.0" y="0.0" name="bottom"/>
  <anchor x="499.5" y="900.0" name="top"/>
  <anchor x="176.5" y="900.0" name="topleft"/>
  <outline>
    <contour>
      <point x="201.5" y="0.0" type="line"/>
      <point x="348.5" y="0.0" type="line"/>
      <point x="456.5" y="430.5" type="line"/>
      <point x="838.0" y="900.0" type="line"/>
      <point x="671.0" y="900.5" type="line"/>
      <point x="485.0" y="668.0" type="line" smooth="yes"/>
      <point x="450.5" y="624.5"/>
      <point x="421.0" y="587.0"/>
      <point x="378.5" y="514.5" type="curve"/>
      <point x="415.0" y="514.0" type="line"/>
      <point x="410.5" y="586.0"/>
      <point x="399.0" y="625.5"/>
      <point x="386.0" y="668.0" type="curve" smooth="yes"/>
      <point x="317.0" y="900.0" type="line"/>
      <point x="162.0" y="900.0" type="line"/>
      <point x="309.5" y="430.5" type="line"/>
    </contour>
  </outline>
</glyph>
<glyph name="Z" format="2">
  <advance width="670.0"/>
  <unicode hex="005A"/>
  <anchor x="253.5" y="0.0" name="bottom"/>
  <anchor x="373.5" y="450.0" name="center"/>
  <anchor x="507.0" y="900.0" name="top"/>
  <outline>
    <contour>
      <point x="-36.0" y="0.0" type="line"/>
      <point x="542.5" y="0.0" type="line"/>
      <point x="575.0" y="132.0" type="line"/>
      <point x="143.0" y="132.0" type="line"/>
      <point x="163.0" y="56.0" type="line"/>
      <point x="785.5" y="900.0" type="line"/>
      <point x="231.0" y="900.0" type="line"/>
      <point x="198.5" y="768.0" type="line"/>
      <point x="600.5" y="768.0" type="line"/>
      <point x="586.5" y="844.0" type="line"/>
    </contour>
  </outline>
</glyph>
<glyph name="bracketleft" format="2">
  <advance width="480.0"/>
  <unicode hex="005B"/>
  <outline>
    <contour>
      <point x="-15.0" y="-180.0" type="line"/>
      <point x="300.0" y="-180.0" type="line"/>
      <point x="327.0" y="-69.0" type="line"/>
      <point x="138.0" y="-69.0" type="line"/>
      <point x="369.0" y="849.0" type="line"/>
      <point x="558.0" y="849.0" type="line"/>
      <point x="585.0" y="960.0" type="line"/>
      <point x="270.0" y="960.0" type="line"/>
    </contour>
  </outline>
</glyph>
<glyph name="backslash" format="2">
  <advance width="540.0"/>
  <unicode hex="005C"/>
  <outline>
    <contour>
      <point x="374.5" y="-180.0" type="line"/>
      <point x="492.0" y="-180.0" type="line"/>
      <point x="216.0" y="960.0" type="line"/>
      <point x="98.0" y="960.0" type="line"/>
    </contour>
  </outline>
</glyph>
<glyph name="bracketright" format="2">
  <advance width="480.0"/>
  <unicode hex="005D"/>
  <outline>
    <contour>
      <point x="-60.0" y="-180.0" type="line"/>
      <point x="255.0" y="-180.0" type="line"/>
      <point x="540.0" y="960.0" type="line"/>
      <point x="225.0" y="960.0" type="line"/>
      <point x="198.0" y="849.0" type="line"/>
      <point x="387.0" y="849.0" type="line"/>
      <point x="156.0" y="-69.0" type="line"/>
      <point x="-33.0" y="-69.0" type="line"/>
    </contour>
  </outline>
</glyph>
<glyph name="asciicircum" format="2">
  <advance width="750.0"/>
  <unicode hex="005E"/>
  <outline>
    <contour>
      <point x="36.5" y="177.0" type="line"/>
      <point x="172.0" y="177.0" type="line"/>
      <point x="369.0" y="447.0" type="line" smooth="yes"/>
      <point x="396.0" y="484.0"/>
      <point x="423.5" y="527.0"/>
      <point x="450.0" y="568.0" type="curve"/>
      <point x="456.5" y="527.0"/>
      <point x="463.0" y="484.0"/>
      <point x="472.0" y="447.0" type="curve" smooth="yes"/>
      <point x="535.0" y="177.0" type="line"/>
      <point x="652.5" y="177.0" type="line"/>
      <point x="500.5" y="804.0" type="line"/>
    </contour>
  </outline>
</glyph>
<glyph name="underscore" format="2">
  <advance width="720.0"/>
  <unicode hex="005F"/>
  <outline>
    <contour>
      <point x="-128.0" y="-190.5" type="line"/>
      <point x="604.0" y="-190.5" type="line"/>
      <point x="631.0" y="-79.5" type="line"/>
      <point x="-101.0" y="-79.5" type="line"/>
    </contour>
  </outline>
</glyph>
<glyph name="c" format="2">
  <advance width="615.0"/>
  <unicode hex="0063"/>
  <anchor x="334.0" y="0.0" name="bottom"/>
  <anchor x="408.0" y="600.0" name="top"/>
  <outline>
    <contour>
      <point x="334.0" y="-15.0" type="curve" smooth="yes"/>
      <point x="412.5" y="-15.0"/>
      <point x="484.0" y="9.0"/>
      <point x="539.0" y="51.5" type="curve"/>
      <point x="539.0" y="223.0" type="line"/>
      <point x="505.0" y="166.5"/>
      <point x="435.0" y="114.0"/>
      <point x="348.5" y="114.0" type="curve" smooth="yes"/>
      <point x="248.5" y="114.0"/>
      <point x="182.5" y="186.0"/>
      <point x="182.5" y="277.0" type="curve" smooth="yes"/>
      <point x="182.5" y="387.0"/>
      <point x="278.5" y="486.5"/>
      <point x="393.5" y="486.5" type="curve" smooth="yes"/>
      <point x="469.0" y="486.5"/>
      <point x="523.0" y="446.0"/>
      <point x="546.0" y="388.5" type="curve"/>
      <point x="617.0" y="533.5" type="line"/>
      <point x="566.0" y="584.0"/>
      <point x="494.5" y="615.0"/>
      <point x="411.5" y="615.0" type="curve" smooth="yes"/>
      <point x="216.5" y="615.0"/>
      <point x="45.0" y="449.0"/>
      <point x="45.0" y="263.5" type="curve" smooth="yes"/>
      <point x="45.0" y="102.5"/>
      <point x="172.0" y="-15.0"/>
    </contour>
  </outline>
</glyph>
<glyph name="e" format="2">
  <advance width="700.0"/>
  <unicode hex="0065"/>
  <anchor x="281.0" y="0.0" name="bottom"/>
  <anchor x="421.0" y="0.0" name="ogonek"/>
  <anchor x="429.0" y="600.0" name="top"/>
  <outline>
    <contour>
      <point x="340.5" y="-16.0" type="curve" smooth="yes"/>
      <point x="418.0" y="-16.0"/>
      <point x="490.5" y="10.0"/>
      <point x="545.0" y="51.5" type="curve"/>
      <point x="545.0" y="210.0" type="line"/>
      <point x="508.0" y="151.0"/>
      <point x="430.0" y="107.0"/>
      <point x="353.5" y="107.0" type="curve" smooth="yes"/>
      <point x="251.0" y="107.0"/>
      <point x="182.5" y="179.0"/>
      <point x="182.5" y="284.0" type="curve"/>
      <point x="173.5" y="284.0" type="line"/>
      <point x="173.5" y="400.5"/>
      <point x="270.5" y="498.5"/>
      <point x="391.0" y="498.5" type="curve" smooth="yes"/>
      <point x="501.5" y="498.5"/>
      <point x="562.0" y="418.0"/>
      <point x="536.0" y="307.0" type="curve"/>
      <point x="573.5" y="353.5" type="line"/>
      <point x="535.5" y="363.0"/>
      <point x="496.5" y="367.5"/>
      <point x="451.0" y="367.5" type="curve" smooth="yes"/>
      <point x="298.5" y="367.5" type="line" smooth="yes"/>
      <point x="249.5" y="367.5"/>
      <point x="198.5" y="360.5"/>
      <point x="140.0" y="347.5" type="curve"/>
      <point x="123.0" y="279.5" type="line"/>
      <point x="176.0" y="266.5"/>
      <point x="223.0" y="259.5"/>
      <point x="272.0" y="259.5" type="curve" smooth="yes"/>
      <point x="651.0" y="259.5" type="line"/>
      <point x="663.0" y="307.5" type="line" smooth="yes"/>
      <point x="704.5" y="475.0"/>
      <point x="600.5" y="616.0"/>
      <point x="415.0" y="616.0" type="curve" smooth="yes"/>
      <point x="215.0" y="616.0"/>
      <point x="45.0" y="452.0"/>
      <point x="45.0" y="263.5" type="curve" smooth="yes"/>
      <point x="45.0" y="104.0"/>
      <point x="171.0" y="-16.0"/>
    </contour>
  </outline>
</glyph>
<glyph name="f" format="2">
  <advance width="450.0"/>
  <unicode hex="0066"/>
  <anchor x="123.0" y="0.0" name="bottom"/>
  <anchor x="504.0" y="960.0" name="top"/>
  <outline>
    <contour>
      <point x="75.0" y="0.0" type="line"/>
      <point x="216.0" y="0.0" type="line"/>
      <point x="353.0" y="549.0" type="line"/>
      <point x="350.0" y="549.0" type="line"/>
      <point x="403.0" y="763.5" type="line" smooth="yes"/>
      <point x="421.5" y="837.5"/>
      <point x="458.5" y="859.0"/>
      <point x="494.5" y="859.0" type="curve" smooth="yes"/>
      <point x="529.5" y="859.0"/>
      <point x="558.5" y="842.0"/>
      <point x="577.5" y="810.0" type="curve"/>
      <point x="636.0" y="927.0" type="line"/>
      <point x="598.5" y="959.5"/>
      <point x="539.5" y="972.0"/>
      <point x="495.0" y="972.0" type="curve" smooth="yes"/>
      <point x="394.5" y="972.0"/>
      <point x="303.5" y="911.0"/>
      <point x="271.0" y="779.0" type="curve" smooth="yes"/>
      <point x="215.0" y="550.0" type="line"/>
      <point x="212.0" y="550.0" type="line"/>
    </contour>
    <contour>
      <point x="76.0" y="486.0" type="line"/>
      <point x="466.0" y="486.0" type="line"/>
      <point x="494.5" y="600.0" type="line"/>
      <point x="104.5" y="600.0" type="line"/>
    </contour>
  </outline>
</glyph>
<glyph name="g" format="2">
  <advance width="750.0"/>
  <unicode hex="0067"/>
  <anchor x="217.0" y="-360.0" name="bottom"/>
  <anchor x="604.5" y="300.0" name="center"/>
  <anchor x="453.0" y="600.0" name="top"/>
  <outline>
    <contour>
      <point x="199.5" y="-312.5" type="curve" smooth="yes"/>
      <point x="368.5" y="-324.0"/>
      <point x="538.0" y="-225.5"/>
      <point x="584.5" y="-38.0" type="curve" smooth="yes"/>
      <point x="743.5" y="600.0" type="line"/>
      <point x="618.5" y="600.0" type="line"/>
      <point x="581.0" y="451.5" type="line"/>
      <point x="631.0" y="466.5" type="line"/>
      <point x="588.5" y="554.5"/>
      <point x="497.0" y="611.0"/>
      <point x="391.5" y="611.0" type="curve" smooth="yes"/>
      <point x="211.0" y="611.0"/>
      <point x="45.0" y="446.5"/>
      <point x="45.0" y="259.5" type="curve" smooth="yes"/>
      <point x="45.0" y="105.5"/>
      <point x="159.0" y="-11.0"/>
      <point x="299.5" y="-11.0" type="curve" smooth="yes"/>
      <point x="393.5" y="-11.0"/>
      <point x="474.0" y="40.5"/>
      <point x="528.0" y="111.0" type="curve"/>
      <point x="506.5" y="150.0" type="line"/>
      <point x="465.5" y="-7.5" type="line" smooth="yes"/>
      <point x="435.5" y="-123.0"/>
      <point x="342.5" y="-196.0"/>
      <point x="224.0" y="-189.0" type="curve" smooth="yes"/>
      <point x="137.0" y="-183.5"/>
      <point x="66.5" y="-137.5"/>
      <point x="35.0" y="-66.5" type="curve"/>
      <point x="-36.0" y="-206.5" type="line"/>
      <point x="19.5" y="-270.0"/>
      <point x="107.0" y="-307.0"/>
    </contour>
    <contour>
      <point x="338.5" y="114.5" type="curve" smooth="yes"/>
      <point x="245.5" y="114.5"/>
      <point x="181.0" y="188.0"/>
      <point x="181.0" y="277.0" type="curve" smooth="yes"/>
      <point x="181.0" y="385.5"/>
      <point x="276.5" y="485.0"/>
      <point x="384.5" y="485.0" type="curve" smooth="yes"/>
      <point x="477.5" y="485.0"/>
      <point x="542.0" y="412.5"/>
      <point x="542.0" y="323.0" type="curve" smooth="yes"/>
      <point x="542.0" y="214.0"/>
      <point x="446.5" y="114.5"/>
    </contour>
  </outline>
</glyph>
<glyph name="h" format="2">
  <advance width="710.0"/>
  <unicode hex="0068"/>
  <anchor x="285.0" y="0.0" name="bottom"/>
  <anchor x="269.0" y="780.0" name="center"/>
  <anchor x="315.0" y="960.0" name="top"/>
  <outline>
    <contour>
      <point x="6.0" y="0.0" type="line"/>
      <point x="147.0" y="0.0" type="line"/>
      <point x="254.0" y="422.5" type="line"/>
      <point x="259.0" y="451.0" type="line"/>
      <point x="387.0" y="960.0" type="line"/>
      <point x="246.0" y="960.0" type="line"/>
    </contour>
    <contour>
      <point x="425.0" y="0.0" type="line"/>
      <point x="566.0" y="0.0" type="line"/>
      <point x="650.0" y="335.0" type="line" smooth="yes"/>
      <point x="686.5" y="481.0"/>
      <point x="624.5" y="616.0"/>
      <point x="462.5" y="616.0" type="curve" smooth="yes"/>
      <point x="344.0" y="616.0"/>
      <point x="224.0" y="532.5"/>
      <point x="182.0" y="360.0" type="curve"/>
      <point x="235.5" y="347.5" type="line"/>
      <point x="260.0" y="448.5"/>
      <point x="334.5" y="499.0"/>
      <point x="406.5" y="499.0" type="curve" smooth="yes"/>
      <point x="498.5" y="499.0"/>
      <point x="530.5" y="422.0"/>
      <point x="508.5" y="333.0" type="curve" smooth="yes"/>
    </contour>
  </outline>
</glyph>
<glyph name="k" format="2">
  <advance width="650.0"/>
  <unicode hex="006B"/>
  <anchor x="255.0" y="0.0" name="bottom"/>
  <anchor x="313.0" y="960.0" name="top"/>
  <outline>
    <contour>
      <point x="416.5" y="0.5" type="line"/>
      <point x="572.5" y="0.5" type="line"/>
      <point x="361.5" y="394.5" type="line"/>
      <point x="356.5" y="320.0" type="line"/>
      <point x="649.5" y="600.0" type="line"/>
      <point x="482.5" y="600.0" type="line"/>
      <point x="230.0" y="354.0" type="line"/>
    </contour>
    <contour>
      <point x="6.0" y="0.0" type="line"/>
      <point x="147.0" y="0.0" type="line"/>
      <point x="387.0" y="960.0" type="line"/>
      <point x="246.0" y="960.0" type="line"/>
    </contour>
  </outline>
</glyph>
<glyph name="l" format="2">
  <advance width="305.0"/>
  <unicode hex="006C"/>
  <anchor x="77.5" y="0.0" name="bottom"/>
  <anchor x="195.5" y="480.0" name="center"/>
  <anchor x="390.5" y="420.0" name="periodcentered"/>
  <anchor x="317.5" y="960.0" name="top"/>
  <anchor x="384.0" y="960.0" name="topright"/>
  <outline>
    <contour>
      <point x="7.0" y="0.0" type="line"/>
      <point x="148.0" y="0.0" type="line"/>
      <point x="388.0" y="960.0" type="line"/>
      <point x="247.0" y="960.0" type="line"/>
    </contour>
  </outline>
</glyph>
<glyph name="m" format="2">
  <advance width="1100.0"/>
  <unicode hex="006D"/>
  <anchor x="566.0" y="0.0" name="bottom"/>
  <anchor x="566.0" y="600.0" name="top"/>
  <outline>
    <contour>
      <point x="410.5" y="0.0" type="line"/>
      <point x="551.5" y="0.0" type="line"/>
      <point x="638.0" y="342.0" type="line" smooth="yes"/>
      <point x="674.0" y="484.5"/>
      <point x="613.5" y="616.0"/>
      <point x="455.5" y="616.0" type="curve" smooth="yes"/>
      <point x="340.0" y="616.0"/>
      <point x="223.0" y="534.5"/>
      <point x="182.0" y="366.0" type="curve"/>
      <point x="235.5" y="354.0" type="line"/>
      <point x="259.0" y="451.0"/>
      <point x="330.0" y="499.0"/>
      <point x="399.5" y="499.0" type="curve" smooth="yes"/>
      <point x="487.0" y="499.0"/>
      <point x="518.5" y="425.5"/>
      <point x="496.5" y="340.0" type="curve" smooth="yes"/>
    </contour>
    <contour>
      <point x="6.0" y="0.0" type="line"/>
      <point x="147.0" y="0.0" type="line"/>
      <point x="256.0" y="430.5" type="line"/>
      <point x="249.0" y="457.0" type="line"/>
      <point x="284.0" y="600.0" type="line"/>
      <point x="156.0" y="600.0" type="line"/>
    </contour>
    <contour>
      <point x="815.0" y="0.0" type="line"/>
      <point x="956.0" y="0.0" type="line"/>
      <point x="1042.5" y="342.0" type="line" smooth="yes"/>
      <point x="1078.0" y="484.5"/>
      <point x="1018.0" y="616.0"/>
      <point x="849.0" y="616.0" type="curve" smooth="yes"/>
      <point x="725.5" y="616.0"/>
      <point x="600.5" y="534.5"/>
      <point x="556.5" y="366.0" type="curve"/>
      <point x="640.0" y="354.0" type="line"/>
      <point x="663.5" y="451.0"/>
      <point x="734.5" y="499.0"/>
      <point x="804.0" y="499.0" type="curve" smooth="yes"/>
      <point x="891.5" y="499.0"/>
      <point x="923.0" y="425.5"/>
      <point x="901.0" y="340.0" type="curve" smooth="yes"/>
    </contour>
  </outline>
</glyph>
<glyph name="n" format="2">
  <advance width="710.0"/>
  <unicode hex="006E"/>
  <anchor x="280.0" y="0.0" name="bottom"/>
  <anchor x="427.5" y="600.0" name="top"/>
  <outline>
    <contour>
      <point x="425.0" y="0.0" type="line"/>
      <point x="566.0" y="0.0" type="line"/>
      <point x="650.0" y="335.0" type="line" smooth="yes"/>
      <point x="686.5" y="481.0"/>
      <point x="624.5" y="616.0"/>
      <point x="462.5" y="616.0" type="curve" smooth="yes"/>
      <point x="344.0" y="616.0"/>
      <point x="224.0" y="532.5"/>
      <point x="182.0" y="360.0" type="curve"/>
      <point x="235.5" y="347.5" type="line"/>
      <point x="260.0" y="448.5"/>
      <point x="334.5" y="499.0"/>
      <point x="406.5" y="499.0" type="curve" smooth="yes"/>
      <point x="498.5" y="499.0"/>
      <point x="530.5" y="422.0"/>
      <point x="508.5" y="333.0" type="curve" smooth="yes"/>
    </contour>
    <contour>
      <point x="6.0" y="0.0" type="line"/>
      <point x="147.0" y="0.0" type="line"/>
      <point x="256.0" y="430.5" type="line"/>
      <point x="249.0" y="457.0" type="line"/>
      <point x="284.0" y="600.0" type="line"/>
      <point x="156.0" y="600.0" type="line"/>
    </contour>
  </outline>
</glyph>
<glyph name="o" format="2">
  <advance width="730.0"/>
  <unicode hex="006F"/>
  <anchor x="291.0" y="0.0" name="bottom"/>
  <anchor x="365.0" y="300.0" name="center"/>
  <anchor x="321.0" y="0.0" name="ogonek"/>
  <anchor x="439.0" y="600.0" name="top"/>
  <anchor x="599.0" y="600.0" name="topright"/>
  <outline>
    <contour>
      <point x="328.0" y="-16.0" type="curve" smooth="yes"/>
      <point x="515.5" y="-16.0"/>
      <point x="685.0" y="151.5"/>
      <point x="685.0" y="337.5" type="curve" smooth="yes"/>
      <point x="685.0" y="495.0"/>
      <point x="562.0" y="616.0"/>
      <point x="402.5" y="616.0" type="curve" smooth="yes"/>
      <point x="213.5" y="616.0"/>
      <point x="45.0" y="449.0"/>
      <point x="45.0" y="263.5" type="curve" smooth="yes"/>
      <point x="45.0" y="102.5"/>
      <point x="172.0" y="-16.0"/>
    </contour>
    <contour>
      <point x="342.5" y="113.0" type="curve" smooth="yes"/>
      <point x="248.5" y="113.0"/>
      <point x="182.5" y="186.0"/>
      <point x="182.5" y="277.0" type="curve" smooth="yes"/>
      <point x="182.5" y="387.0"/>
      <point x="278.5" y="487.0"/>
      <point x="387.5" y="487.0" type="curve" smooth="yes"/>
      <point x="481.5" y="487.0"/>
      <point x="547.5" y="413.5"/>
      <point x="547.5" y="323.0" type="curve" smooth="yes"/>
      <point x="547.5" y="213.5"/>
      <point x="451.5" y="113.0"/>
    </contour>
  </outline>
</glyph>
<glyph name="q" format="2">
  <advance width="750.0"/>
  <unicode hex="0071"/>
  <outline>
    <contour>
      <point x="378.5" y="-299.5" type="line"/>
      <point x="519.5" y="-299.5" type="line"/>
      <point x="744.0" y="600.0" type="line"/>
      <point x="619.0" y="600.0" type="line"/>
      <point x="581.0" y="451.5" type="line"/>
      <point x="631.0" y="466.5" type="line"/>
      <point x="588.5" y="554.5"/>
      <point x="497.0" y="611.0"/>
      <point x="391.5" y="611.0" type="curve" smooth="yes"/>
      <point x="211.0" y="611.0"/>
      <point x="45.0" y="446.5"/>
      <point x="45.0" y="259.5" type="curve" smooth="yes"/>
      <point x="45.0" y="105.5"/>
      <point x="159.0" y="-11.0"/>
      <point x="299.5" y="-11.0" type="curve" smooth="yes"/>
      <point x="393.5" y="-11.0"/>
      <point x="474.0" y="40.5"/>
      <point x="528.0" y="111.0" type="curve"/>
      <point x="491.0" y="150.0" type="line"/>
    </contour>
    <contour>
      <point x="338.5" y="114.5" type="curve" smooth="yes"/>
      <point x="245.5" y="114.5"/>
      <point x="181.0" y="188.0"/>
      <point x="181.0" y="277.0" type="curve" smooth="yes"/>
      <point x="181.0" y="385.5"/>
      <point x="276.5" y="485.0"/>
      <point x="384.5" y="485.0" type="curve" smooth="yes"/>
      <point x="477.5" y="485.0"/>
      <point x="542.0" y="412.5"/>
      <point x="542.0" y="323.0" type="curve" smooth="yes"/>
      <point x="542.0" y="214.0"/>
      <point x="446.5" y="114.5"/>
    </contour>
  </outline>
</glyph>
<glyph name="r" format="2">
  <advance width="455.0"/>
  <unicode hex="0072"/>
  <anchor x="75.0" y="0.0" name="bottom"/>
  <anchor x="318.5" y="600.0" name="top"/>
  <outline>
    <contour>
      <point x="6.0" y="0.0" type="line"/>
      <point x="147.0" y="0.0" type="line"/>
      <point x="257.0" y="438.0" type="line"/>
      <point x="250.0" y="461.0" type="line"/>
      <point x="284.0" y="600.0" type="line"/>
      <point x="156.0" y="600.0" type="line"/>
    </contour>
    <contour>
      <point x="153.0" y="284.5" type="curve"/>
      <point x="219.5" y="284.5" type="line"/>
      <point x="250.5" y="410.5"/>
      <point x="338.0" y="481.0"/>
      <point x="442.0" y="481.0" type="curve" smooth="yes"/>
      <point x="456.5" y="481.0"/>
      <point x="472.5" y="479.0"/>
      <point x="484.5" y="475.0" type="curve"/>
      <point x="484.5" y="606.0" type="line"/>
      <point x="323.5" y="606.0"/>
      <point x="199.0" y="472.5"/>
    </contour>
  </outline>
</glyph>
<glyph name="s" format="2">
  <advance width="520.0"/>
  <unicode hex="0073"/>
  <anchor x="185.5" y="0.0" name="bottom"/>
  <anchor x="336.5" y="600.0" name="top"/>
  <outline>
    <contour>
      <point x="210.0" y="-14.0" type="curve" smooth="yes"/>
      <point x="338.0" y="-14.0"/>
      <point x="441.5" y="82.0"/>
      <point x="441.5" y="191.0" type="curve" smooth="yes"/>
      <point x="441.5" y="254.0"/>
      <point x="407.5" y="297.5"/>
      <point x="330.5" y="341.0" type="curve" smooth="yes"/>
      <point x="260.5" y="380.5" type="line" smooth="yes"/>
      <point x="236.5" y="394.0"/>
      <point x="222.0" y="412.5"/>
      <point x="222.0" y="437.0" type="curve" smooth="yes"/>
      <point x="222.0" y="472.0"/>
      <point x="254.5" y="500.0"/>
      <point x="299.5" y="500.0" type="curve" smooth="yes"/>
      <point x="358.0" y="500.0"/>
      <point x="418.0" y="454.5"/>
      <point x="444.0" y="386.5" type="curve"/>
      <point x="512.0" y="518.5" type="line"/>
      <point x="477.0" y="574.5"/>
      <point x="399.5" y="614.5"/>
      <point x="319.5" y="614.5" type="curve" smooth="yes"/>
      <point x="196.5" y="614.5"/>
      <point x="96.5" y="520.0"/>
      <point x="96.5" y="415.0" type="curve" smooth="yes"/>
      <point x="96.5" y="353.0"/>
      <point x="131.0" y="308.0"/>
      <point x="195.5" y="271.0" type="curve" smooth="yes"/>
      <point x="266.5" y="230.5" type="line" smooth="yes"/>
      <point x="298.5" y="212.0"/>
      <point x="312.5" y="195.0"/>
      <point x="312.5" y="168.5" type="curve" smooth="yes"/>
      <point x="312.5" y="129.0"/>
      <point x="278.0" y="100.0"/>
      <point x="230.0" y="100.0" type="curve" smooth="yes"/>
      <point x="163.5" y="100.0"/>
      <point x="95.5" y="152.0"/>
      <point x="69.5" y="223.0" type="curve"/>
      <point x="-1.0" y="88.0" type="line"/>
      <point x="38.5" y="28.5"/>
      <point x="124.0" y="-14.0"/>
    </contour>
  </outline>
</glyph>
<glyph name="t" format="2">
  <advance width="450.0"/>
  <unicode hex="0074"/>
  <anchor x="145.0" y="0.0" name="bottom"/>
  <anchor x="218.0" y="300.0" name="center"/>
  <anchor x="344.0" y="800.0" name="top"/>
  <anchor x="470.0" y="1020.0" name="topright"/>
  <outline>
    <contour>
      <point x="74.5" y="0.0" type="line"/>
      <point x="215.5" y="0.0" type="line"/>
      <point x="353.0" y="549.0" type="line"/>
      <point x="350.0" y="549.0" type="line"/>
      <point x="411.5" y="800.0" type="line"/>
      <point x="276.5" y="800.0" type="line"/>
      <point x="215.0" y="550.0" type="line"/>
      <point x="212.0" y="550.0" type="line"/>
    </contour>
    <contour>
      <point x="73.5" y="486.0" type="line"/>
      <point x="469.5" y="486.0" type="line"/>
      <point x="498.0" y="600.0" type="line"/>
      <point x="102.0" y="600.0" type="line"/>
    </contour>
  </outline>
</glyph>
<glyph name="u" format="2">
  <advance width="710.0"/>
  <unicode hex="0075"/>
  <anchor x="279.0" y="0.0" name="bottom"/>
  <anchor x="493.0" y="0.0" name="ogonek"/>
  <anchor x="426.0" y="600.0" name="top"/>
  <anchor x="636.0" y="600.0" name="topright"/>
  <outline>
    <contour>
      <point x="247.5" y="-16.0" type="curve" smooth="yes"/>
      <point x="366.0" y="-16.0"/>
      <point x="486.0" y="67.5"/>
      <point x="528.0" y="240.0" type="curve"/>
      <point x="474.5" y="252.5" type="line"/>
      <point x="450.0" y="151.5"/>
      <point x="375.5" y="101.0"/>
      <point x="303.5" y="101.0" type="curve" smooth="yes"/>
      <point x="211.5" y="101.0"/>
      <point x="179.5" y="178.0"/>
      <point x="201.5" y="267.0" type="curve" smooth="yes"/>
      <point x="285.0" y="600.0" type="line"/>
      <point x="144.0" y="600.0" type="line"/>
      <point x="60.0" y="265.0" type="line" smooth="yes"/>
      <point x="23.5" y="119.0"/>
      <point x="85.5" y="-16.0"/>
    </contour>
    <contour>
      <point x="426.0" y="0.0" type="line"/>
      <point x="554.0" y="0.0" type="line"/>
      <point x="704.0" y="600.0" type="line"/>
      <point x="563.0" y="600.0" type="line"/>
      <point x="454.0" y="169.5" type="line"/>
      <point x="461.0" y="143.0" type="line"/>
    </contour>
  </outline>
</glyph>
<glyph name="v" format="2">
  <advance width="650.0"/>
  <unicode hex="0076"/>
  <outline>
    <contour>
      <point x="244.0" y="-30.0" type="line"/>
      <point x="716.0" y="600.0" type="line"/>
      <point x="556.0" y="600.0" type="line"/>
      <point x="391.5" y="373.5" type="line" smooth="yes"/>
      <point x="352.0" y="319.5"/>
      <point x="317.5" y="273.5"/>
      <point x="273.0" y="184.0" type="curve"/>
      <point x="308.5" y="183.5" type="line"/>
      <point x="307.5" y="273.5"/>
      <point x="296.5" y="319.0"/>
      <point x="284.0" y="373.5" type="curve" smooth="yes"/>
      <point x="232.0" y="600.0" type="line"/>
      <point x="84.0" y="600.0" type="line"/>
    </contour>
  </outline>
</glyph>
<glyph name="w" format="2">
  <advance width="1000.0"/>
  <unicode hex="0077"/>
  <anchor x="427.0" y="0.0" name="bottom"/>
  <anchor x="579.0" y="600.0" name="top"/>
  <outline>
    <contour>
      <point x="230.0" y="-30.0" type="line"/>
      <point x="420.5" y="219.5" type="line" smooth="yes"/>
      <point x="452.0" y="261.0"/>
      <point x="482.0" y="299.5"/>
      <point x="514.5" y="353.0" type="curve"/>
      <point x="520.5" y="299.5"/>
      <point x="531.0" y="261.0"/>
      <point x="542.0" y="219.5" type="curve" smooth="yes"/>
      <point x="610.0" y="-30.0" type="line"/>
      <point x="1066.0" y="600.0" type="line"/>
      <point x="909.0" y="600.0" type="line"/>
      <point x="746.0" y="373.5" type="line" smooth="yes"/>
      <point x="716.0" y="332.5"/>
      <point x="688.0" y="294.5"/>
      <point x="654.5" y="233.0" type="curve"/>
      <point x="650.0" y="292.5"/>
      <point x="639.0" y="330.0"/>
      <point x="631.0" y="369.5" type="curve" smooth="yes"/>
      <point x="575.0" y="624.0" type="line"/>
      <point x="395.5" y="369.5" type="line" smooth="yes"/>
      <point x="366.5" y="329.0"/>
      <point x="337.0" y="290.5"/>
      <point x="303.0" y="233.0" type="curve"/>
      <point x="298.5" y="292.5"/>
      <point x="289.5" y="332.0"/>
      <point x="280.0" y="373.5" type="curve" smooth="yes"/>
      <point x="229.0" y="600.0" type="line"/>
      <point x="84.0" y="600.0" type="line"/>
    </contour>
  </outline>
</glyph>
<glyph name="x" format="2">
  <advance width="620.0"/>
  <unicode hex="0078"/>
  <outline>
    <contour>
      <point x="-57.0" y="0.0" type="line"/>
      <point x="109.0" y="0.0" type="line"/>
      <point x="224.0" y="131.0" type="line" smooth="yes"/>
      <point x="265.0" y="177.5"/>
      <point x="307.0" y="228.0"/>
      <point x="340.5" y="282.0" type="curve"/>
      <point x="286.5" y="294.0" type="line"/>
      <point x="292.0" y="240.0"/>
      <point x="310.0" y="189.5"/>
      <point x="327.0" y="143.0" type="curve" smooth="yes"/>
      <point x="379.5" y="0.0" type="line"/>
      <point x="531.5" y="0.0" type="line"/>
      <point x="396.5" y="327.5" type="line"/>
      <point x="648.0" y="600.0" type="line"/>
      <point x="484.0" y="600.0" type="line"/>
      <point x="414.0" y="520.0" type="line" smooth="yes"/>
      <point x="374.0" y="474.0"/>
      <point x="331.5" y="424.0"/>
      <point x="297.5" y="370.0" type="curve"/>
      <point x="335.5" y="358.0" type="line"/>
      <point x="330.5" y="412.0"/>
      <point x="314.0" y="463.0"/>
      <point x="297.0" y="508.0" type="curve" smooth="yes"/>
      <point x="262.5" y="600.0" type="line"/>
      <point x="114.5" y="600.0" type="line"/>
      <point x="231.0" y="315.5" type="line"/>
    </contour>
  </outline>
</glyph>
<glyph name="y" format="2">
  <advance width="670.0"/>
  <unicode hex="0079"/>
  <anchor x="379.0" y="0.0" name="bottom"/>
  <anchor x="413.0" y="600.0" name="top"/>
  <outline>
    <contour>
      <point x="-97.0" y="-300.0" type="line"/>
      <point x="66.0" y="-300.0" type="line"/>
      <point x="736.0" y="600.0" type="line"/>
      <point x="575.0" y="600.0" type="line"/>
      <point x="397.0" y="360.0" type="line" smooth="yes"/>
      <point x="341.0" y="285.0"/>
      <point x="311.0" y="238.0"/>
      <point x="263.0" y="149.0" type="curve"/>
      <point x="315.0" y="148.0" type="line"/>
      <point x="311.0" y="238.0"/>
      <point x="306.0" y="284.0"/>
      <point x="288.0" y="360.0" type="curve" smooth="yes"/>
      <point x="230.0" y="600.0" type="line"/>
      <point x="84.0" y="600.0" type="line"/>
      <point x="206.5" y="106.0" type="line"/>
    </contour>
  </outline>
</glyph>
<glyph name="z" format="2">
  <advance width="530.0"/>
  <unicode hex="007A"/>
  <anchor x="182.0" y="0.0" name="bottom"/>
  <anchor x="264.0" y="300.0" name="center"/>
  <anchor x="348.5" y="600.0" name="top"/>
  <outline>
    <contour>
      <point x="162.0" y="76.0" type="line"/>
      <point x="133.0" y="120.0" type="line"/>
      <point x="437.0" y="120.0" type="line"/>
      <point x="407.0" y="0.0" type="line"/>
      <point x="-44.0" y="0.0" type="line"/>
      <point x="369.0" y="524.0" type="line"/>
      <point x="398.0" y="480.0" type="line"/>
      <point x="96.0" y="480.0" type="line"/>
      <point x="126.0" y="600.0" type="line"/>
      <point x="575.0" y="600.0" type="line"/>
    </contour>
  </outline>
</glyph>
<glyph name="braceleft" format="2">
  <advance width="480.0"/>
  <unicode hex="007B"/>
  <outline>
    <contour>
      <point x="283.5" y="-186.0" type="curve"/>
      <point x="336.5" y="-81.0" type="line"/>
      <point x="251.5" y="-69.5"/>
      <point x="180.5" y="-32.0"/>
      <point x="212.0" y="96.5" type="curve" smooth="yes"/>
      <point x="225.5" y="149.5"/>
      <point x="254.0" y="203.5"/>
      <point x="267.0" y="254.5" type="curve" smooth="yes"/>
      <point x="298.5" y="380.0"/>
      <point x="219.5" y="429.5"/>
      <point x="122.0" y="441.5" type="curve"/>
      <point x="112.5" y="403.0" type="line"/>
      <point x="209.5" y="391.0"/>
      <point x="307.5" y="418.0"/>
      <point x="338.5" y="544.5" type="curve" smooth="yes"/>
      <point x="351.0" y="596.0"/>
      <point x="350.5" y="652.0"/>
      <point x="363.0" y="706.0" type="curve" smooth="yes"/>
      <point x="395.0" y="835.0"/>
      <point x="481.5" y="852.0"/>
      <point x="566.5" y="852.0" type="curve"/>
      <point x="566.5" y="966.0" type="line"/>
      <point x="416.5" y="966.0"/>
      <point x="283.0" y="900.5"/>
      <point x="242.5" y="734.0" type="curve" smooth="yes"/>
      <point x="228.0" y="674.5"/>
      <point x="229.5" y="620.0"/>
      <point x="217.0" y="568.5" type="curve" smooth="yes"/>
      <point x="195.5" y="483.5"/>
      <point x="146.5" y="455.0"/>
      <point x="65.5" y="429.0" type="curve"/>
      <point x="129.0" y="384.0"/>
      <point x="161.5" y="345.5"/>
      <point x="140.5" y="261.5" type="curve" smooth="yes"/>
      <point x="128.0" y="210.5"/>
      <point x="99.5" y="157.5"/>
      <point x="85.0" y="99.5" type="curve" smooth="yes"/>
      <point x="42.5" y="-72.0"/>
      <point x="147.0" y="-166.5"/>
    </contour>
  </outline>
</glyph>
<glyph name="braceright" format="2">
  <advance width="480.0"/>
  <unicode hex="007D"/>
  <outline>
    <contour>
      <point x="-42.0" y="-186.0" type="line"/>
      <point x="108.0" y="-186.0"/>
      <point x="241.5" y="-120.5"/>
      <point x="282.0" y="46.0" type="curve" smooth="yes"/>
      <point x="296.5" y="105.5"/>
      <point x="295.0" y="160.0"/>
      <point x="307.5" y="211.5" type="curve" smooth="yes"/>
      <point x="329.0" y="296.5"/>
      <point x="378.0" y="325.0"/>
      <point x="459.0" y="351.0" type="curve"/>
      <point x="395.5" y="396.0"/>
      <point x="363.0" y="434.5"/>
      <point x="384.0" y="518.5" type="curve" smooth="yes"/>
      <point x="396.5" y="569.5"/>
      <point x="425.0" y="622.5"/>
      <point x="439.5" y="680.5" type="curve" smooth="yes"/>
      <point x="482.0" y="852.0"/>
      <point x="377.5" y="946.5"/>
      <point x="241.0" y="966.0" type="curve"/>
      <point x="188.0" y="861.0" type="line"/>
      <point x="273.0" y="849.5"/>
      <point x="344.0" y="812.0"/>
      <point x="312.5" y="683.5" type="curve" smooth="yes"/>
      <point x="299.0" y="630.5"/>
      <point x="270.5" y="576.5"/>
      <point x="257.5" y="525.5" type="curve" smooth="yes"/>
      <point x="226.0" y="400.0"/>
      <point x="305.0" y="350.5"/>
      <point x="402.5" y="338.5" type="curve"/>
      <point x="412.0" y="377.0" type="line"/>
      <point x="315.0" y="389.0"/>
      <point x="217.0" y="362.0"/>
      <point x="186.0" y="235.5" type="curve" smooth="yes"/>
      <point x="173.5" y="184.0"/>
      <point x="174.0" y="128.0"/>
      <point x="161.5" y="74.0" type="curve" smooth="yes"/>
      <point x="129.5" y="-55.0"/>
      <point x="43.0" y="-72.0"/>
      <point x="-42.0" y="-72.0" type="curve"/>
    </contour>
  </outline>
</glyph>
<glyph name="asciitilde" format="2">
  <advance width="750.0"/>
  <unicode hex="007E"/>
  <outline>
    <contour>
      <point x="110.0" y="343.5" type="line"/>
      <point x="151.5" y="402.5"/>
      <point x="196.5" y="437.0"/>
      <point x="256.0" y="437.0" type="curve" smooth="yes"/>
      <point x="358.5" y="437.0"/>
      <point x="428.5" y="348.0"/>
      <point x="552.5" y="348.0" type="curve" smooth="yes"/>
      <point x="626.0" y="348.0"/>
      <point x="696.0" y="383.5"/>
      <point x="748.0" y="448.0" type="curve"/>
      <point x="715.0" y="556.0" type="line"/>
      <point x="674.5" y="497.0"/>
      <point x="628.0" y="463.0"/>
      <point x="571.5" y="463.0" type="curve" smooth="yes"/>
      <point x="471.0" y="463.0"/>
      <point x="404.0" y="552.0"/>
      <point x="273.0" y="552.0" type="curve" smooth="yes"/>
      <point x="197.0" y="552.0"/>
      <point x="129.5" y="517.0"/>
      <point x="77.0" y="451.0" type="curve"/>
    </contour>
  </outline>
</glyph>
<glyph name="exclamdown" format="2">
  <advance width="480.0"/>
  <unicode hex="00A1"/>
  <outline>
    <contour>
      <point x="12.5" y="-300.0" type="line"/>
      <point x="168.5" y="-300.0" type="line"/>
      <point x="295.0" y="285.0" type="line"/>
      <point x="181.0" y="285.0" type="line"/>
    </contour>
    <contour>
      <point x="285.5" y="436.0" type="curve" smooth="yes"/>
      <point x="339.5" y="436.0"/>
      <point x="386.5" y="483.0"/>
      <point x="386.5" y="536.5" type="curve" smooth="yes"/>
      <point x="386.5" y="582.0"/>
      <point x="350.5" y="616.0"/>
      <point x="307.5" y="616.0" type="curve" smooth="yes"/>
      <point x="253.5" y="616.0"/>
      <point x="206.5" y="569.0"/>
      <point x="206.5" y="515.0" type="curve" smooth="yes"/>
      <point x="206.5" y="470.0"/>
      <point x="241.0" y="436.0"/>
    </contour>
  </outline>
</glyph>
<glyph name="sterling" format="2">
  <advance width="750.0"/>
  <unicode hex="00A3"/>
  <outline>
    <contour>
      <point x="66.0" y="0.0" type="curve"/>
      <point x="596.0" y="0.0" type="line"/>
      <point x="626.5" y="126.0" type="line"/>
      <point x="237.5" y="126.0" type="line"/>
      <point x="138.0" y="46.0" type="line"/>
      <point x="244.5" y="70.0"/>
      <point x="332.5" y="103.0"/>
      <point x="364.5" y="233.0" type="curve" smooth="yes"/>
      <point x="390.5" y="337.0"/>
      <point x="386.0" y="510.0"/>
      <point x="412.0" y="616.0" type="curve" smooth="yes"/>
      <point x="439.0" y="727.5"/>
      <point x="504.0" y="787.0"/>
      <point x="580.5" y="787.0" type="curve" smooth="yes"/>
      <point x="661.0" y="787.0"/>
      <point x="706.0" y="728.0"/>
      <point x="725.0" y="658.5" type="curve"/>
      <point x="802.0" y="808.5" type="line"/>
      <point x="749.0" y="884.5"/>
      <point x="668.5" y="916.0"/>
      <point x="587.0" y="916.0" type="curve" smooth="yes"/>
      <point x="444.0" y="916.0"/>
      <point x="322.0" y="816.5"/>
      <point x="279.0" y="644.5" type="curve" smooth="yes"/>
      <point x="248.0" y="520.5"/>
      <point x="262.0" y="360.0"/>
      <point x="233.5" y="239.0" type="curve" smooth="yes"/>
      <point x="212.0" y="149.5"/>
      <point x="175.0" y="90.5"/>
    </contour>
    <contour>
      <point x="115.5" y="402.0" type="line"/>
      <point x="625.5" y="402.0" type="line"/>
      <point x="649.5" y="498.0" type="line"/>
      <point x="139.5" y="498.0" type="line"/>
    </contour>
  </outline>
</glyph>
<glyph name="currency" format="2">
  <advance width="750.0"/>
  <unicode hex="00A4"/>
  <outline>
    <contour>
      <point x="376.0" y="135.0" type="curve" smooth="yes"/>
      <point x="433.5" y="135.0"/>
      <point x="489.0" y="150.5"/>
      <point x="538.5" y="178.0" type="curve"/>
      <point x="585.5" y="114.5" type="line"/>
      <point x="681.0" y="191.5" type="line"/>
      <point x="635.5" y="252.5" type="line"/>
      <point x="695.0" y="316.0"/>
      <point x="733.0" y="399.5"/>
      <point x="733.0" y="487.5" type="curve" smooth="yes"/>
      <point x="733.0" y="531.0"/>
      <point x="723.5" y="571.5"/>
      <point x="706.5" y="607.5" type="curve"/>
      <point x="778.5" y="663.5" type="line"/>
      <point x="708.0" y="755.5" type="line"/>
      <point x="636.0" y="699.5" type="line"/>
      <point x="587.0" y="740.5"/>
      <point x="522.5" y="765.0"/>
      <point x="450.5" y="765.0" type="curve" smooth="yes"/>
      <point x="392.5" y="765.0"/>
      <point x="336.0" y="749.5"/>
      <point x="286.5" y="721.5" type="curve"/>
      <point x="239.0" y="785.5" type="line"/>
      <point x="143.5" y="708.5" type="line"/>
      <point x="189.5" y="646.5" type="line"/>
      <point x="130.0" y="583.5"/>
      <point x="93.0" y="501.0"/>
      <point x="93.0" y="413.5" type="curve" smooth="yes"/>
      <point x="93.0" y="370.0"/>
      <point x="102.5" y="329.5"/>
      <point x="119.0" y="294.5" type="curve"/>
      <point x="45.5" y="236.5" type="line"/>
      <point x="116.0" y="144.5" type="line"/>
      <point x="189.5" y="202.0" type="line"/>
      <point x="239.0" y="159.5"/>
      <point x="304.5" y="135.0"/>
    </contour>
    <contour>
      <point x="390.5" y="264.0" type="curve" smooth="yes"/>
      <point x="296.5" y="264.0"/>
      <point x="230.5" y="336.0"/>
      <point x="230.5" y="427.0" type="curve" smooth="yes"/>
      <point x="230.5" y="537.0"/>
      <point x="326.5" y="636.5"/>
      <point x="435.5" y="636.5" type="curve" smooth="yes"/>
      <point x="529.5" y="636.5"/>
      <point x="595.5" y="563.5"/>
      <point x="595.5" y="473.0" type="curve" smooth="yes"/>
      <point x="595.5" y="363.5"/>
      <point x="499.5" y="264.0"/>
    </contour>
  </outline>
</glyph>
<glyph name="yen" format="2">
  <advance width="750.0"/>
  <unicode hex="00A5"/>
  <anchor x="53.0" y="900.0" name="topleft"/>
  <outline>
    <contour>
      <point x="229.5" y="0.0" type="line"/>
      <point x="376.5" y="0.0" type="line"/>
      <point x="482.5" y="430.5" type="line"/>
      <point x="863.0" y="900.0" type="line"/>
      <point x="698.0" y="900.5" type="line"/>
      <point x="512.5" y="668.0" type="line" smooth="yes"/>
      <point x="478.0" y="624.5"/>
      <point x="448.5" y="587.0"/>
      <point x="406.0" y="514.5" type="curve"/>
      <point x="442.5" y="514.0" type="line"/>
      <point x="438.0" y="586.0"/>
      <point x="426.5" y="625.5"/>
      <point x="413.5" y="668.0" type="curve" smooth="yes"/>
      <point x="344.0" y="900.0" type="line"/>
      <point x="187.0" y="900.0" type="line"/>
      <point x="335.5" y="430.5" type="line"/>
    </contour>
    <contour>
      <point x="84.5" y="306.0" type="line"/>
      <point x="672.5" y="306.0" type="line"/>
      <point x="696.0" y="402.0" type="line"/>
      <point x="108.0" y="402.0" type="line"/>
    </contour>
    <contour>
      <point x="132.0" y="498.0" type="line"/>
      <point x="720.0" y="498.0" type="line"/>
      <point x="743.0" y="594.0" type="line"/>
      <point x="525.0" y="594.0" type="line"/>
      <point x="425.5" y="497.0" type="line"/>
      <point x="377.0" y="594.0" type="line"/>
      <point x="155.0" y="594.0" type="line"/>
    </contour>
  </outline>
</glyph>
<glyph name="section" format="2">
  <advance width="750.0"/>
  <unicode hex="00A7"/>
  <outline>
    <contour>
      <point x="280.0" y="-192.0" type="curve" smooth="yes"/>
      <point x="424.0" y="-192.0"/>
      <point x="547.5" y="-76.5"/>
      <point x="547.5" y="57.5" type="curve" smooth="yes"/>
      <point x="547.5" y="116.0"/>
      <point x="524.0" y="163.0"/>
      <point x="475.5" y="206.0" type="curve"/>
      <point x="450.5" y="180.0" type="line"/>
      <point x="587.5" y="180.0"/>
      <point x="706.5" y="286.5"/>
      <point x="706.5" y="413.0" type="curve" smooth="yes"/>
      <point x="706.5" y="484.5"/>
      <point x="668.0" y="545.5"/>
      <point x="596.0" y="593.5" type="curve" smooth="yes"/>
      <point x="461.5" y="683.0" type="line" smooth="yes"/>
      <point x="425.0" y="707.0"/>
      <point x="409.5" y="738.5"/>
      <point x="409.5" y="768.5" type="curve" smooth="yes"/>
      <point x="409.5" y="819.0"/>
      <point x="452.5" y="857.5"/>
      <point x="506.5" y="857.5" type="curve" smooth="yes"/>
      <point x="565.5" y="857.5"/>
      <point x="626.5" y="810.0"/>
      <point x="650.5" y="745.0" type="curve"/>
      <point x="724.5" y="872.0" type="line"/>
      <point x="687.0" y="931.5"/>
      <point x="601.5" y="972.0"/>
      <point x="518.5" y="972.0" type="curve" smooth="yes"/>
      <point x="387.5" y="972.0"/>
      <point x="276.5" y="867.0"/>
      <point x="276.5" y="743.5" type="curve" smooth="yes"/>
      <point x="276.5" y="692.5"/>
      <point x="296.0" y="650.5"/>
      <point x="334.5" y="615.5" type="curve"/>
      <point x="362.5" y="643.5" type="line"/>
      <point x="218.0" y="642.5"/>
      <point x="99.0" y="535.0"/>
      <point x="99.0" y="407.0" type="curve" smooth="yes"/>
      <point x="99.0" y="335.0"/>
      <point x="136.5" y="277.5"/>
      <point x="209.5" y="229.0" type="curve" smooth="yes"/>
      <point x="350.0" y="135.5" type="line" smooth="yes"/>
      <point x="392.0" y="108.0"/>
      <point x="414.5" y="68.5"/>
      <point x="414.5" y="32.0" type="curve" smooth="yes"/>
      <point x="414.5" y="-26.0"/>
      <point x="362.0" y="-76.0"/>
      <point x="295.0" y="-76.0" type="curve" smooth="yes"/>
      <point x="224.0" y="-76.0"/>
      <point x="152.5" y="-16.5"/>
      <point x="134.0" y="56.5" type="curve"/>
      <point x="56.0" y="-76.5" type="line"/>
      <point x="95.5" y="-146.0"/>
      <point x="189.0" y="-192.0"/>
    </contour>
    <contour>
      <point x="442.0" y="266.5" type="curve" smooth="yes"/>
      <point x="422.0" y="266.5"/>
      <point x="398.5" y="270.5"/>
      <point x="384.5" y="277.5" type="curve"/>
      <point x="354.0" y="294.0"/>
      <point x="326.5" y="311.5"/>
      <point x="306.0" y="327.0" type="curve" smooth="yes"/>
      <point x="268.5" y="355.5"/>
      <point x="233.0" y="386.0"/>
      <point x="233.0" y="437.0" type="curve" smooth="yes"/>
      <point x="233.0" y="503.0"/>
      <point x="291.0" y="555.5"/>
      <point x="362.0" y="555.5" type="curve" smooth="yes"/>
      <point x="383.0" y="555.5"/>
      <point x="408.0" y="551.0"/>
      <point x="424.5" y="543.5" type="curve"/>
      <point x="447.5" y="532.0"/>
      <point x="484.0" y="506.5"/>
      <point x="498.5" y="496.0" type="curve" smooth="yes"/>
      <point x="539.5" y="466.5"/>
      <point x="573.0" y="436.5"/>
      <point x="573.0" y="389.0" type="curve" smooth="yes"/>
      <point x="573.0" y="326.5"/>
      <point x="518.0" y="266.5"/>
    </contour>
  </outline>
</glyph>
<glyph name="copyright" format="2">
  <advance width="1260.0"/>
  <unicode hex="00A9"/>
  <outline>
    <contour>
      <point x="579.0" y="-192.0" type="curve" smooth="yes"/>
      <point x="906.0" y="-192.0"/>
      <point x="1202.0" y="102.0"/>
      <point x="1202.0" y="425.0" type="curve" smooth="yes"/>
      <point x="1202.0" y="700.0"/>
      <point x="988.0" y="912.0"/>
      <point x="709.0" y="912.0" type="curve" smooth="yes"/>
      <point x="382.0" y="912.0"/>
      <point x="86.0" y="618.0"/>
      <point x="86.0" y="295.0" type="curve" smooth="yes"/>
      <point x="86.0" y="20.0"/>
      <point x="300.0" y="-192.0"/>
    </contour>
    <contour>
      <point x="636.5" y="78.0" type="curve" smooth="yes"/>
      <point x="704.5" y="78.0"/>
      <point x="769.0" y="99.5"/>
      <point x="818.0" y="137.5" type="curve"/>
      <point x="818.0" y="293.0" type="line"/>
      <point x="787.5" y="242.5"/>
      <point x="726.0" y="195.0"/>
      <point x="649.0" y="195.0" type="curve" smooth="yes"/>
      <point x="559.0" y="195.0"/>
      <point x="498.5" y="259.5"/>
      <point x="498.5" y="339.5" type="curve" smooth="yes"/>
      <point x="498.5" y="435.5"/>
      <point x="584.0" y="525.0"/>
      <point x="687.0" y="525.0" type="curve" smooth="yes"/>
      <point x="755.0" y="525.0"/>
      <point x="804.0" y="488.5"/>
      <point x="824.5" y="437.0" type="curve"/>
      <point x="888.5" y="569.0" type="line"/>
      <point x="842.5" y="614.0"/>
      <point x="778.5" y="642.0"/>
      <point x="705.0" y="642.0" type="curve" smooth="yes"/>
      <point x="529.0" y="642.0"/>
      <point x="376.0" y="493.5"/>
      <point x="376.0" y="327.5" type="curve" smooth="yes"/>
      <point x="376.0" y="183.5"/>
      <point x="489.5" y="78.0"/>
    </contour>
    <contour>
      <point x="588.0" y="-81.0" type="curve" smooth="yes"/>
      <point x="370.0" y="-81.0"/>
      <point x="203.0" y="84.0"/>
      <point x="203.0" y="303.0" type="curve" smooth="yes"/>
      <point x="203.0" y="563.5"/>
      <point x="439.0" y="801.0"/>
      <point x="700.0" y="801.0" type="curve" smooth="yes"/>
      <point x="918.0" y="801.0"/>
      <point x="1085.0" y="636.0"/>
      <point x="1085.0" y="417.0" type="curve" smooth="yes"/>
      <point x="1085.0" y="156.5"/>
      <point x="849.0" y="-81.0"/>
    </contour>
  </outline>
</glyph>
<glyph name="ordfeminine" format="2">
  <advance width="480.0"/>
  <unicode hex="00AA"/>
  <outline>
    <contour>
      <point x="259.0" y="412.0" type="curve" smooth="yes"/>
      <point x="315.0" y="412.0"/>
      <point x="361.0" y="440.5"/>
      <point x="389.5" y="490.0" type="curve"/>
      <point x="374.0" y="504.5" type="line"/>
      <point x="353.5" y="420.0" type="line"/>
      <point x="458.5" y="420.0" type="line"/>
      <point x="546.5" y="780.0" type="line"/>
      <point x="441.5" y="780.0" type="line"/>
      <point x="418.5" y="680.5" type="line"/>
      <point x="458.0" y="681.5" type="line"/>
      <point x="446.5" y="747.0"/>
      <point x="392.5" y="788.0"/>
      <point x="320.5" y="788.0" type="curve" smooth="yes"/>
      <point x="211.0" y="788.0"/>
      <point x="113.0" y="689.0"/>
      <point x="113.0" y="576.5" type="curve" smooth="yes"/>
      <point x="113.0" y="484.0"/>
      <point x="178.0" y="412.0"/>
    </contour>
    <contour>
      <point x="297.0" y="505.0" type="curve" smooth="yes"/>
      <point x="252.0" y="505.0"/>
      <point x="216.5" y="540.5"/>
      <point x="216.5" y="589.0" type="curve" smooth="yes"/>
      <point x="216.5" y="645.5"/>
      <point x="265.0" y="695.0"/>
      <point x="321.0" y="695.0" type="curve" smooth="yes"/>
      <point x="369.0" y="695.0"/>
      <point x="404.5" y="659.0"/>
      <point x="404.5" y="612.0" type="curve" smooth="yes"/>
      <point x="404.5" y="555.0"/>
      <point x="354.0" y="505.0"/>
    </contour>
  </outline>
</glyph>
<glyph name="guillemetleft" format="2">
  <advance width="615.0"/>
  <unicode hex="00AB"/>
  <outline>
    <contour>
      <point x="396.0" y="60.0" type="line"/>
      <point x="521.0" y="60.0" type="line"/>
      <point x="418.0" y="300.0" type="line"/>
      <point x="639.0" y="540.0" type="line"/>
      <point x="494.0" y="540.0" type="line"/>
      <point x="287.0" y="315.0" type="line"/>
    </contour>
    <contour>
      <point x="151.0" y="60.0" type="line"/>
      <point x="276.0" y="60.0" type="line"/>
      <point x="163.0" y="324.0" type="line"/>
      <point x="362.5" y="540.5" type="line"/>
      <point x="217.5" y="540.5" type="line"/>
      <point x="32.0" y="339.0" type="line"/>
    </contour>
  </outline>
</glyph>
<glyph name="logicalnot" format="2">
  <advance width="750.0"/>
  <unicode hex="00AC"/>
  <outline>
    <contour>
      <point x="522.0" y="195.0" type="line"/>
      <point x="639.0" y="195.0" type="line"/>
      <point x="716.0" y="508.5" type="line"/>
      <point x="106.0" y="508.5" type="line"/>
      <point x="77.5" y="391.5" type="line"/>
      <point x="570.5" y="391.5" type="line"/>
    </contour>
  </outline>
</glyph>
<glyph name="registered" format="2">
  <advance width="600.0"/>
  <unicode hex="00AE"/>
  <outline>
    <contour>
      <point x="359.0" y="398.0" type="curve" smooth="yes"/>
      <point x="515.5" y="398.0"/>
      <point x="657.5" y="536.5"/>
      <point x="657.5" y="691.5" type="curve" smooth="yes"/>
      <point x="657.5" y="822.0"/>
      <point x="554.5" y="922.0"/>
      <point x="421.5" y="922.0" type="curve" smooth="yes"/>
      <point x="263.5" y="922.0"/>
      <point x="122.5" y="784.0"/>
      <point x="122.5" y="629.5" type="curve" smooth="yes"/>
      <point x="122.5" y="496.0"/>
      <point x="229.0" y="398.0"/>
    </contour>
    <contour>
      <point x="366.5" y="467.0" type="curve" smooth="yes"/>
      <point x="267.0" y="467.0"/>
      <point x="197.0" y="541.5"/>
      <point x="197.0" y="636.5" type="curve" smooth="yes"/>
      <point x="197.0" y="750.0"/>
      <point x="298.5" y="853.5"/>
      <point x="413.5" y="853.5" type="curve" smooth="yes"/>
      <point x="513.0" y="853.5"/>
      <point x="583.0" y="778.0"/>
      <point x="583.0" y="683.5" type="curve" smooth="yes"/>
      <point x="583.0" y="570.5"/>
      <point x="481.5" y="467.0"/>
    </contour>
    <contour>
      <point x="268.0" y="546.0" type="line"/>
      <point x="334.0" y="546.0" type="line"/>
      <point x="394.0" y="786.0" type="line"/>
      <point x="327.0" y="786.0" type="line"/>
    </contour>
    <contour>
      <point x="408.0" y="546.0" type="line"/>
      <point x="477.0" y="546.0" type="line"/>
      <point x="435.0" y="660.5" type="line"/>
      <point x="368.0" y="660.5" type="line"/>
    </contour>
    <contour>
      <point x="318.5" y="611.5" type="line"/>
      <point x="402.0" y="611.5" type="line" smooth="yes"/>
      <point x="456.0" y="611.5"/>
      <point x="504.5" y="658.5"/>
      <point x="504.5" y="708.5" type="curve" smooth="yes"/>
      <point x="504.5" y="752.5"/>
      <point x="469.0" y="786.0"/>
      <point x="422.5" y="786.0" type="curve" smooth="yes"/>
      <point x="361.0" y="786.0" type="line"/>
      <point x="348.0" y="731.5" type="line"/>
      <point x="403.0" y="731.5" type="line" smooth="yes"/>
      <point x="424.0" y="731.5"/>
      <point x="437.5" y="720.5"/>
      <point x="437.5" y="703.0" type="curve" smooth="yes"/>
      <point x="437.5" y="682.0"/>
      <point x="418.5" y="664.0"/>
      <point x="394.5" y="664.0" type="curve" smooth="yes"/>
      <point x="331.0" y="664.0" type="line"/>
    </contour>
  </outline>
</glyph>
<glyph name="degree" format="2">
  <advance width="480.0"/>
  <unicode hex="00B0"/>
  <outline>
    <contour>
      <point x="327.0" y="543.0" type="curve" smooth="yes"/>
      <point x="441.5" y="543.0"/>
      <point x="539.5" y="641.0"/>
      <point x="539.5" y="749.5" type="curve" smooth="yes"/>
      <point x="539.5" y="840.0"/>
      <point x="471.0" y="912.0"/>
      <point x="371.0" y="912.0" type="curve" smooth="yes"/>
      <point x="256.5" y="912.0"/>
      <point x="158.5" y="813.0"/>
      <point x="158.5" y="702.5" type="curve" smooth="yes"/>
      <point x="158.5" y="612.0"/>
      <point x="227.0" y="543.0"/>
    </contour>
    <contour>
      <point x="338.5" y="636.0" type="curve" smooth="yes"/>
      <point x="289.0" y="636.0"/>
      <point x="255.0" y="670.0"/>
      <point x="255.0" y="715.0" type="curve" smooth="yes"/>
      <point x="255.0" y="769.5"/>
      <point x="303.5" y="819.0"/>
      <point x="359.5" y="819.0" type="curve" smooth="yes"/>
      <point x="409.0" y="819.0"/>
      <point x="443.0" y="783.0"/>
      <point x="443.0" y="738.5" type="curve" smooth="yes"/>
      <point x="443.0" y="684.5"/>
      <point x="394.5" y="636.0"/>
    </contour>
  </outline>
</glyph>
<glyph name="plusminus" format="2">
  <advance width="750.0"/>
  <unicode hex="00B1"/>
  <outline>
    <contour>
      <point x="118.0" y="454.0" type="line"/>
      <point x="706.0" y="454.0" type="line"/>
      <point x="733.5" y="566.0" type="line"/>
      <point x="145.5" y="566.0" type="line"/>
    </contour>
    <contour>
      <point x="22.0" y="63.5" type="line"/>
      <point x="610.0" y="63.5" type="line"/>
      <point x="635.0" y="164.5" type="line"/>
      <point x="47.0" y="164.5" type="line"/>
    </contour>
    <contour>
      <point x="299.0" y="235.0" type="line"/>
      <point x="417.0" y="235.0" type="line"/>
      <point x="560.5" y="804.0" type="line"/>
      <point x="442.5" y="804.0" type="line"/>
    </contour>
  </outline>
</glyph>
<glyph name="micro" format="2">
  <advance width="740.0"/>
  <unicode hex="00B5"/>
  <unicode hex="03BC"/>
  <outline>
    <contour>
      <point x="-74.5" y="-300.0" type="line"/>
      <point x="66.5" y="-300.0" type="line"/>
      <point x="165.0" y="94.0" type="line"/>
      <point x="148.5" y="71.0" type="line"/>
      <point x="172.0" y="14.5"/>
      <point x="221.5" y="-16.0"/>
      <point x="285.5" y="-16.0" type="curve" smooth="yes"/>
      <point x="365.0" y="-16.0"/>
      <point x="448.0" y="31.0"/>
      <point x="501.5" y="119.5" type="curve"/>
      <point x="462.0" y="117.5" type="line"/>
      <point x="465.5" y="34.5"/>
      <point x="522.0" y="-12.0"/>
      <point x="609.5" y="-12.0" type="curve"/>
      <point x="665.5" y="104.0" type="line"/>
      <point x="617.5" y="104.0"/>
      <point x="594.0" y="127.0"/>
      <point x="609.5" y="189.5" type="curve" smooth="yes"/>
      <point x="710.5" y="600.0" type="line"/>
      <point x="569.5" y="600.0" type="line"/>
      <point x="487.0" y="264.5" type="line" smooth="yes"/>
      <point x="463.0" y="166.0"/>
      <point x="382.5" y="113.0"/>
      <point x="310.5" y="113.0" type="curve" smooth="yes"/>
      <point x="222.0" y="113.0"/>
      <point x="189.5" y="186.0"/>
      <point x="209.5" y="267.0" type="curve" smooth="yes"/>
      <point x="291.5" y="600.0" type="line"/>
      <point x="150.5" y="600.0" type="line"/>
    </contour>
  </outline>
</glyph>
<glyph name="paragraph" format="2">
  <advance width="750.0"/>
  <unicode hex="00B6"/>
  <outline>
    <contour>
      <point x="182.5" y="-180.0" type="line"/>
      <point x="302.5" y="-180.0" type="line"/>
      <point x="560.5" y="849.0" type="line"/>
      <point x="674.5" y="849.0" type="line"/>
      <point x="416.5" y="-180.0" type="line"/>
      <point x="536.5" y="-180.0" type="line"/>
      <point x="821.5" y="960.0" type="line"/>
      <point x="475.0" y="960.0" type="line" smooth="yes"/>
      <point x="263.0" y="960.0"/>
      <point x="131.5" y="792.5"/>
      <point x="131.5" y="631.5" type="curve" smooth="yes"/>
      <point x="131.5" y="529.0"/>
      <point x="184.0" y="423.0"/>
      <point x="324.0" y="385.0" type="curve"/>
    </contour>
  </outline>
</glyph>
<glyph name="ordmasculine" format="2">
  <advance width="480.0"/>
  <unicode hex="00BA"/>
  <outline>
    <contour>
      <point x="293.0" y="405.0" type="curve" smooth="yes"/>
      <point x="411.5" y="405.0"/>
      <point x="517.0" y="506.0"/>
      <point x="517.0" y="620.5" type="curve" smooth="yes"/>
      <point x="517.0" y="720.0"/>
      <point x="439.0" y="795.0"/>
      <point x="337.0" y="795.0" type="curve" smooth="yes"/>
      <point x="218.0" y="795.0"/>
      <point x="113.0" y="693.5"/>
      <point x="113.0" y="579.0" type="curve" smooth="yes"/>
      <point x="113.0" y="480.5"/>
      <point x="191.0" y="405.0"/>
    </contour>
    <contour>
      <point x="304.5" y="504.0" type="curve" smooth="yes"/>
      <point x="254.0" y="504.0"/>
      <point x="216.5" y="541.5"/>
      <point x="216.5" y="590.5" type="curve" smooth="yes"/>
      <point x="216.5" y="646.0"/>
      <point x="268.0" y="696.0"/>
      <point x="326.0" y="696.0" type="curve" smooth="yes"/>
      <point x="376.0" y="696.0"/>
      <point x="414.0" y="658.5"/>
      <point x="414.0" y="609.5" type="curve" smooth="yes"/>
      <point x="414.0" y="554.5"/>
      <point x="362.0" y="504.0"/>
    </contour>
  </outline>
</glyph>
<glyph name="guillemetright" format="2">
  <advance width="615.0"/>
  <unicode hex="00BB"/>
  <outline>
    <contour>
      <point x="-25.5" y="60.5" type="line"/>
      <point x="119.5" y="60.5" type="line"/>
      <point x="326.5" y="285.5" type="line"/>
      <point x="217.5" y="540.5" type="line"/>
      <point x="92.5" y="540.5" type="line"/>
      <point x="195.5" y="300.5" type="line"/>
    </contour>
    <contour>
      <point x="251.0" y="60.0" type="line"/>
      <point x="396.0" y="60.0" type="line"/>
      <point x="581.5" y="261.5" type="line"/>
      <point x="462.5" y="540.5" type="line"/>
      <point x="337.5" y="540.5" type="line"/>
      <point x="450.5" y="276.5" type="line"/>
    </contour>
  </outline>
</glyph>
<glyph name="questiondown" format="2">
  <advance width="480.0"/>
  <unicode hex="00BF"/>
  <outline>
    <contour>
      <point x="134.5" y="-316.0" type="curve" smooth="yes"/>
      <point x="179.5" y="-316.0"/>
      <point x="220.5" y="-305.5"/>
      <point x="257.5" y="-286.0" type="curve"/>
      <point x="294.5" y="-133.5" type="line"/>
      <point x="259.0" y="-164.0"/>
      <point x="211.0" y="-188.0"/>
      <point x="161.5" y="-188.0" type="curve" smooth="yes"/>
      <point x="107.5" y="-188.0"/>
      <point x="65.5" y="-156.5"/>
      <point x="65.5" y="-103.0" type="curve" smooth="yes"/>
      <point x="65.5" y="10.5"/>
      <point x="257.5" y="88.5"/>
      <point x="296.0" y="284.0" type="curve"/>
      <point x="179.0" y="284.0" type="line"/>
      <point x="118.0" y="112.5"/>
      <point x="-75.0" y="47.0"/>
      <point x="-75.0" y="-126.5" type="curve" smooth="yes"/>
      <point x="-75.0" y="-250.0"/>
      <point x="22.5" y="-316.0"/>
    </contour>
    <contour>
      <point x="285.0" y="435.0" type="curve" smooth="yes"/>
      <point x="339.0" y="435.0"/>
      <point x="386.0" y="482.0"/>
      <point x="386.0" y="535.5" type="curve" smooth="yes"/>
      <point x="386.0" y="581.0"/>
      <point x="350.0" y="615.0"/>
      <point x="307.0" y="615.0" type="curve" smooth="yes"/>
      <point x="253.0" y="615.0"/>
      <point x="206.0" y="568.0"/>
      <point x="206.0" y="514.0" type="curve" smooth="yes"/>
      <point x="206.0" y="469.0"/>
      <point x="240.5" y="435.0"/>
    </contour>
  </outline>
</glyph>
<glyph name="AE" format="2">
  <advance width="1030.0"/>
  <unicode hex="00C6"/>
  <anchor x="564.5" y="0.0" name="bottom"/>
  <anchor x="782.0" y="0.0" name="ogonek"/>
  <anchor x="631.5" y="900.0" name="top"/>
  <anchor x="227.0" y="720.0" name="top-vertical"/>
  <anchor x="551.0" y="900.0" name="topleft"/>
  <outline>
    <contour>
      <point x="-60.0" y="0.0" type="line"/>
      <point x="95.0" y="0.0" type="line"/>
      <point x="401.5" y="468.0" type="line"/>
      <point x="438.5" y="525.0"/>
      <point x="477.0" y="582.0"/>
      <point x="517.0" y="655.0" type="curve"/>
      <point x="516.5" y="582.0"/>
      <point x="521.5" y="525.0"/>
      <point x="526.5" y="468.0" type="curve"/>
      <point x="562.0" y="0.0" type="line"/>
      <point x="928.0" y="0.0" type="line"/>
      <point x="960.5" y="132.0" type="line"/>
      <point x="685.0" y="132.0" type="line"/>
      <point x="658.5" y="480.0" type="line"/>
      <point x="872.0" y="480.0" type="line"/>
      <point x="903.0" y="606.0" type="line"/>
      <point x="648.0" y="606.0" type="line"/>
      <point x="636.0" y="771.0" type="line"/>
      <point x="914.0" y="771.0" type="line"/>
      <point x="946.0" y="900.0" type="line"/>
      <point x="539.0" y="900.0" type="line"/>
    </contour>
    <contour>
      <point x="177.5" y="213.5" type="line"/>
      <point x="582.5" y="213.5" type="line"/>
      <point x="568.0" y="333.0" type="line"/>
      <point x="251.5" y="333.0" type="line"/>
    </contour>
  </outline>
</glyph>
<glyph name="multiply" format="2">
  <advance width="750.0"/>
  <unicode hex="00D7"/>
  <outline>
    <contour>
      <point x="540.5" y="174.5" type="line"/>
      <point x="636.0" y="251.5" type="line"/>
      <point x="283.5" y="725.5" type="line"/>
      <point x="188.0" y="648.5" type="line"/>
    </contour>
    <contour>
      <point x="154.5" y="174.5" type="line"/>
      <point x="740.0" y="633.5" type="line"/>
      <point x="669.5" y="725.5" type="line"/>
      <point x="84.0" y="266.5" type="line"/>
    </contour>
  </outline>
</glyph>
<glyph name="Thorn" format="2">
  <advance width="730.0"/>
  <unicode hex="00DE"/>
  <outline>
    <contour>
      <point x="149.0" y="182.5" type="line"/>
      <point x="381.5" y="182.5" type="line" smooth="yes"/>
      <point x="571.5" y="182.5"/>
      <point x="736.0" y="338.0"/>
      <point x="736.0" y="516.5" type="curve" smooth="yes"/>
      <point x="736.0" y="668.5"/>
      <point x="615.5" y="780.0"/>
      <point x="453.5" y="780.0" type="curve" smooth="yes"/>
      <point x="298.0" y="780.0" type="line"/>
      <point x="266.0" y="651.0" type="line"/>
      <point x="422.0" y="651.0" type="line" smooth="yes"/>
      <point x="524.0" y="651.0"/>
      <point x="589.0" y="590.5"/>
      <point x="589.0" y="504.5" type="curve" smooth="yes"/>
      <point x="589.0" y="400.5"/>
      <point x="497.5" y="311.5"/>
      <point x="380.0" y="311.5" type="curve" smooth="yes"/>
      <point x="181.0" y="311.5" type="line"/>
    </contour>
    <contour>
      <point x="36.0" y="0.0" type="line"/>
      <point x="180.0" y="0.0" type="line"/>
      <point x="405.0" y="900.0" type="line"/>
      <point x="261.0" y="900.0" type="line"/>
    </contour>
  </outline>
</glyph>
<glyph name="germandbls" format="2">
  <advance width="705.0"/>
  <unicode hex="00DF"/>
  <outline>
    <contour>
      <point x="283.0" y="-14.5" type="line"/>
      <point x="496.0" y="-11.0"/>
      <point x="679.5" y="163.0"/>
      <point x="679.5" y="361.5" type="curve" smooth="yes"/>
      <point x="679.5" y="460.5"/>
      <point x="633.5" y="545.0"/>
      <point x="552.0" y="596.0" type="curve"/>
      <point x="550.5" y="558.0" type="line"/>
      <point x="638.0" y="605.5"/>
      <point x="689.5" y="685.0"/>
      <point x="689.5" y="771.5" type="curve" smooth="yes"/>
      <point x="689.5" y="888.5"/>
      <point x="595.5" y="974.5"/>
      <point x="467.0" y="974.5" type="curve" smooth="yes"/>
      <point x="335.0" y="974.5"/>
      <point x="227.0" y="884.5"/>
      <point x="192.0" y="744.5" type="curve" smooth="yes"/>
      <point x="6.0" y="0.0" type="line"/>
      <point x="147.0" y="0.0" type="line"/>
      <point x="328.5" y="727.0" type="line" smooth="yes"/>
      <point x="346.5" y="799.5"/>
      <point x="396.5" y="849.0"/>
      <point x="456.5" y="849.0" type="curve" smooth="yes"/>
      <point x="514.0" y="849.0"/>
      <point x="554.5" y="810.5"/>
      <point x="554.5" y="752.0" type="curve" smooth="yes"/>
      <point x="554.5" y="678.0"/>
      <point x="487.0" y="609.5"/>
      <point x="371.0" y="568.5" type="curve"/>
      <point x="479.0" y="509.5"/>
      <point x="532.5" y="438.0"/>
      <point x="532.5" y="349.5" type="curve" smooth="yes"/>
      <point x="532.5" y="219.0"/>
      <point x="418.0" y="111.5"/>
      <point x="283.0" y="111.5" type="curve"/>
    </contour>
  </outline>
</glyph>
<glyph name="ae" format="2">
  <advance width="1115.0"/>
  <unicode hex="00E6"/>
  <anchor x="482.5" y="0.0" name="bottom"/>
  <anchor x="583.0" y="600.0" name="top"/>
  <outline>
    <contour>
      <point x="755.5" y="-16.0" type="curve" smooth="yes"/>
      <point x="833.0" y="-16.0"/>
      <point x="905.5" y="10.0"/>
      <point x="960.0" y="51.5" type="curve"/>
      <point x="960.0" y="210.0" type="line"/>
      <point x="923.0" y="151.0"/>
      <point x="845.0" y="107.0"/>
      <point x="768.5" y="107.0" type="curve" smooth="yes"/>
      <point x="666.0" y="107.0"/>
      <point x="597.5" y="179.0"/>
      <point x="597.5" y="284.0" type="curve"/>
      <point x="588.5" y="284.0" type="line"/>
      <point x="588.5" y="400.5"/>
      <point x="685.5" y="498.5"/>
      <point x="806.0" y="498.5" type="curve" smooth="yes"/>
      <point x="912.0" y="498.5"/>
      <point x="971.5" y="424.5"/>
      <point x="953.5" y="322.5" type="curve"/>
      <point x="988.5" y="354.5" type="line"/>
      <point x="949.5" y="362.5"/>
      <point x="911.0" y="367.5"/>
      <point x="866.0" y="367.5" type="curve" smooth="yes"/>
      <point x="708.5" y="367.5" type="line" smooth="yes"/>
      <point x="659.5" y="367.5"/>
      <point x="608.5" y="360.5"/>
      <point x="550.0" y="347.5" type="curve"/>
      <point x="533.0" y="279.5" type="line"/>
      <point x="586.0" y="266.5"/>
      <point x="633.0" y="259.5"/>
      <point x="682.0" y="259.5" type="curve" smooth="yes"/>
      <point x="1066.0" y="259.5" type="line"/>
      <point x="1078.0" y="307.5" type="line" smooth="yes"/>
      <point x="1120.0" y="476.5"/>
      <point x="1014.0" y="616.0"/>
      <point x="830.0" y="616.0" type="curve" smooth="yes"/>
      <point x="736.5" y="616.0"/>
      <point x="649.0" y="579.5"/>
      <point x="583.0" y="522.0" type="curve"/>
      <point x="536.0" y="580.0"/>
      <point x="452.5" y="613.5"/>
      <point x="349.5" y="613.5" type="curve" smooth="yes"/>
      <point x="279.5" y="613.5"/>
      <point x="211.0" y="598.0"/>
      <point x="153.5" y="573.0" type="curve"/>
      <point x="152.5" y="441.0" type="line"/>
      <point x="204.5" y="476.0"/>
      <point x="266.5" y="498.0"/>
      <point x="331.0" y="498.0" type="curve" smooth="yes"/>
      <point x="432.0" y="498.0"/>
      <point x="497.5" y="444.0"/>
      <point x="495.5" y="373.0" type="curve"/>
      <point x="482.5" y="323.5" type="line"/>
      <point x="420.5" y="361.5"/>
      <point x="343.0" y="381.0"/>
      <point x="274.5" y="381.0" type="curve" smooth="yes"/>
      <point x="132.0" y="381.0"/>
      <point x="19.0" y="295.0"/>
      <point x="19.0" y="170.5" type="curve" smooth="yes"/>
      <point x="19.0" y="57.0"/>
      <point x="115.5" y="-11.0"/>
      <point x="243.5" y="-11.0" type="curve" smooth="yes"/>
      <point x="346.0" y="-11.0"/>
      <point x="442.0" y="32.0"/>
      <point x="509.0" y="109.5" type="curve"/>
      <point x="562.0" y="34.0"/>
      <point x="645.5" y="-16.0"/>
    </contour>
    <contour>
      <point x="272.5" y="99.0" type="curve" smooth="yes"/>
      <point x="209.0" y="99.0"/>
      <point x="156.0" y="127.0"/>
      <point x="156.0" y="184.5" type="curve" smooth="yes"/>
      <point x="156.0" y="240.0"/>
      <point x="205.0" y="273.0"/>
      <point x="281.5" y="273.0" type="curve" smooth="yes"/>
      <point x="337.5" y="273.0"/>
      <point x="404.5" y="255.0"/>
      <point x="459.0" y="224.5" type="curve"/>
      <point x="461.5" y="207.5" type="line"/>
      <point x="431.5" y="143.5"/>
      <point x="352.0" y="99.0"/>
    </contour>
  </outline>
</glyph>
<glyph name="eth" format="2">
  <advance width="730.0"/>
  <unicode hex="00F0"/>
  <outline>
    <contour>
      <point x="331.5" y="-16.0" type="curve" smooth="yes"/>
      <point x="543.0" y="-16.0"/>
      <point x="691.0" y="177.0"/>
      <point x="691.0" y="372.5" type="curve" smooth="yes"/>
      <point x="691.0" y="430.5"/>
      <point x="678.5" y="494.0"/>
      <point x="652.0" y="564.5" type="curve" smooth="yes"/>
      <point x="622.0" y="644.0"/>
      <point x="542.0" y="819.0"/>
      <point x="463.5" y="961.0" type="curve"/>
      <point x="322.5" y="960.0" type="line"/>
      <point x="401.5" y="817.0"/>
      <point x="476.0" y="674.0"/>
      <point x="531.5" y="534.5" type="curve"/>
      <point x="546.5" y="540.0" type="line"/>
      <point x="505.5" y="592.5"/>
      <point x="440.5" y="610.0"/>
      <point x="385.5" y="610.0" type="curve" smooth="yes"/>
      <point x="208.5" y="610.0"/>
      <point x="46.0" y="447.5"/>
      <point x="46.0" y="265.0" type="curve" smooth="yes"/>
      <point x="46.0" y="105.0"/>
      <point x="169.5" y="-16.0"/>
    </contour>
    <contour>
      <point x="341.5" y="113.0" type="curve" smooth="yes"/>
      <point x="248.5" y="113.0"/>
      <point x="183.5" y="189.5"/>
      <point x="183.5" y="278.0" type="curve" smooth="yes"/>
      <point x="183.5" y="388.5"/>
      <point x="279.0" y="487.0"/>
      <point x="388.0" y="487.0" type="curve" smooth="yes"/>
      <point x="481.0" y="487.0"/>
      <point x="548.5" y="415.5"/>
      <point x="548.5" y="326.5" type="curve" smooth="yes"/>
      <point x="548.5" y="214.5"/>
      <point x="449.0" y="113.0"/>
    </contour>
    <contour>
      <point x="278.5" y="676.5" type="line"/>
      <point x="685.0" y="861.5" type="line"/>
      <point x="659.0" y="930.5" type="line"/>
      <point x="253.0" y="746.0" type="line"/>
    </contour>
  </outline>
</glyph>
<glyph name="divide" format="2">
  <advance width="750.0"/>
  <unicode hex="00F7"/>
  <outline>
    <contour>
      <point x="82.5" y="391.5" type="line"/>
      <point x="722.5" y="391.5" type="line"/>
      <point x="751.5" y="508.5" type="line"/>
      <point x="111.5" y="508.5" type="line"/>
    </contour>
    <contour>
      <point x="346.0" y="141.0" type="curve" smooth="yes"/>
      <point x="396.0" y="141.0"/>
      <point x="440.0" y="185.0"/>
      <point x="440.0" y="235.0" type="curve" smooth="yes"/>
      <point x="440.0" y="277.0"/>
      <point x="408.0" y="309.0"/>
      <point x="366.0" y="309.0" type="curve" smooth="yes"/>
      <point x="316.0" y="309.0"/>
      <point x="272.0" y="265.0"/>
      <point x="272.0" y="215.5" type="curve" smooth="yes"/>
      <point x="272.0" y="173.0"/>
      <point x="305.0" y="141.0"/>
    </contour>
    <contour>
      <point x="458.5" y="591.0" type="curve" smooth="yes"/>
      <point x="508.5" y="591.0"/>
      <point x="552.5" y="635.0"/>
      <point x="552.5" y="685.0" type="curve" smooth="yes"/>
      <point x="552.5" y="727.0"/>
      <point x="520.5" y="759.0"/>
      <point x="478.5" y="759.0" type="curve" smooth="yes"/>
      <point x="428.5" y="759.0"/>
      <point x="384.5" y="715.0"/>
      <point x="384.5" y="665.5" type="curve" smooth="yes"/>
      <point x="384.5" y="623.0"/>
      <point x="417.5" y="591.0"/>
    </contour>
  </outline>
</glyph>
<glyph name="thorn" format="2">
  <advance width="750.0"/>
  <unicode hex="00FE"/>
  <outline>
    <contour>
      <point x="-69.0" y="-300.0" type="line"/>
      <point x="72.0" y="-300.0" type="line"/>
      <point x="185.0" y="148.5" type="line"/>
      <point x="119.0" y="133.5" type="line"/>
      <point x="161.5" y="45.5"/>
      <point x="253.0" y="-11.0"/>
      <point x="358.5" y="-11.0" type="curve" smooth="yes"/>
      <point x="539.0" y="-11.0"/>
      <point x="705.0" y="153.5"/>
      <point x="705.0" y="340.5" type="curve" smooth="yes"/>
      <point x="705.0" y="494.5"/>
      <point x="591.0" y="611.0"/>
      <point x="450.5" y="611.0" type="curve" smooth="yes"/>
      <point x="356.5" y="611.0"/>
      <point x="276.0" y="559.5"/>
      <point x="222.0" y="489.0" type="curve"/>
      <point x="259.0" y="450.0" type="line"/>
      <point x="387.0" y="960.0" type="line"/>
      <point x="246.0" y="960.0" type="line"/>
    </contour>
    <contour>
      <point x="365.5" y="115.0" type="curve" smooth="yes"/>
      <point x="272.5" y="115.0"/>
      <point x="208.0" y="187.5"/>
      <point x="208.0" y="277.0" type="curve" smooth="yes"/>
      <point x="208.0" y="386.0"/>
      <point x="303.5" y="485.5"/>
      <point x="411.5" y="485.5" type="curve" smooth="yes"/>
      <point x="504.5" y="485.5"/>
      <point x="569.0" y="412.0"/>
      <point x="569.0" y="323.0" type="curve" smooth="yes"/>
      <point x="569.0" y="214.5"/>
      <point x="473.5" y="115.0"/>
    </contour>
  </outline>
</glyph>
<glyph name="eogonek" format="2">
  <advance width="700.0"/>
  <unicode hex="0119"/>
  <anchor x="355.0" y="600.0" name="top"/>
  <outline>
    <contour>
      <point x="550.5" y="-315.0" type="curve"/>
      <point x="576.5" y="-204.5" type="line"/>
      <point x="528.0" y="-204.0"/>
      <point x="492.5" y="-180.5"/>
      <point x="492.5" y="-125.0" type="curve" smooth="yes"/>
      <point x="492.5" y="-78.5"/>
      <point x="517.0" y="-34.5"/>
      <point x="597.0" y="55.0" type="curve"/>
      <point x="551.0" y="244.5" type="line"/>
      <point x="580.5" y="207.5" type="line"/>
      <point x="545.0" y="151.0"/>
      <point x="470.5" y="107.0"/>
      <point x="382.0" y="107.0" type="curve" smooth="yes"/>
      <point x="262.5" y="107.0"/>
      <point x="179.0" y="192.5"/>
      <point x="179.0" y="304.0" type="curve"/>
      <point x="171.5" y="304.0" type="line"/>
      <point x="171.5" y="414.0"/>
      <point x="250.5" y="499.0"/>
      <point x="353.5" y="499.0" type="curve" smooth="yes"/>
      <point x="456.5" y="499.0"/>
      <point x="534.5" y="419.0"/>
      <point x="534.5" y="307.0" type="curve"/>
      <point x="560.0" y="353.5" type="line"/>
      <point x="520.0" y="363.0"/>
      <point x="480.0" y="367.5"/>
      <point x="434.5" y="367.5" type="curve" smooth="yes"/>
      <point x="282.0" y="367.5" type="line" smooth="yes"/>
      <point x="230.0" y="367.5"/>
      <point x="180.0" y="359.5"/>
      <point x="128.0" y="347.5" type="curve"/>
      <point x="128.0" y="279.5" type="line"/>
      <point x="180.0" y="267.5"/>
      <point x="230.0" y="259.5"/>
      <point x="282.0" y="259.5" type="curve" smooth="yes"/>
      <point x="661.0" y="259.5" type="line"/>
      <point x="661.0" y="312.0" type="line" smooth="yes"/>
      <point x="661.0" y="485.0"/>
      <point x="526.0" y="616.0"/>
      <point x="354.5" y="616.0" type="curve" smooth="yes"/>
      <point x="182.5" y="616.0"/>
      <point x="45.0" y="481.5"/>
      <point x="45.0" y="306.0" type="curve" smooth="yes"/>
      <point x="45.0" y="121.5"/>
      <point x="183.5" y="-16.0"/>
      <point x="379.5" y="-16.0" type="curve" smooth="yes"/>
      <point x="413.5" y="-16.0"/>
      <point x="446.0" y="-11.0"/>
      <point x="478.5" y="-2.5" type="curve"/>
      <point x="465.5" y="31.0" type="line"/>
      <point x="395.0" y="-33.5"/>
      <point x="367.5" y="-95.5"/>
      <point x="367.5" y="-153.0" type="curve" smooth="yes"/>
      <point x="367.5" y="-260.0"/>
      <point x="449.0" y="-315.0"/>
    </contour>
  </outline>
</glyph>
<glyph name="idotless" format="2">
  <advance width="305.0"/>
  <unicode hex="0131"/>
  <anchor x="77.5" y="0.0" name="bottom"/>
  <anchor x="77.5" y="0.0" name="ogonek"/>
  <anchor x="227.5" y="600.0" name="top"/>
  <outline>
    <contour>
      <point x="7.0" y="0.0" type="line"/>
      <point x="148.0" y="0.0" type="line"/>
      <point x="298.0" y="600.0" type="line"/>
      <point x="157.0" y="600.0" type="line"/>
    </contour>
  </outline>
</glyph>
<glyph name="kgreenlandic" format="2">
  <advance width="650.0"/>
  <unicode hex="0138"/>
  <anchor x="282.0" y="0.0" name="bottom"/>
  <anchor x="389.5" y="600.0" name="top"/>
  <outline>
    <contour>
      <point x="416.5" y="0.5" type="line"/>
      <point x="572.5" y="0.5" type="line"/>
      <point x="361.5" y="394.5" type="line"/>
      <point x="356.5" y="320.0" type="line"/>
      <point x="649.5" y="600.0" type="line"/>
      <point x="482.5" y="600.0" type="line"/>
      <point x="230.0" y="354.0" type="line"/>
    </contour>
    <contour>
      <point x="6.0" y="0.0" type="line"/>
      <point x="147.0" y="0.0" type="line"/>
      <point x="296.0" y="600.0" type="line"/>
      <point x="155.0" y="600.0" type="line"/>
    </contour>
  </outline>
</glyph>
<glyph name="Eng" format="2">
  <advance width="945.0"/>
  <unicode hex="014A"/>
  <anchor x="420.0" y="0.0" name="bottom"/>
  <anchor x="643.5" y="900.0" name="top"/>
  <outline>
    <contour>
      <point x="496.5" y="-196.0" type="curve" smooth="yes"/>
      <point x="606.0" y="-196.0"/>
      <point x="729.0" y="-121.5"/>
      <point x="771.5" y="48.0" type="curve" smooth="yes"/>
      <point x="984.0" y="900.0" type="line"/>
      <point x="846.0" y="900.0" type="line"/>
      <point x="696.5" y="300.5" type="line"/>
      <point x="268.0" y="930.0" type="line"/>
      <point x="36.0" y="0.0" type="line"/>
      <point x="174.0" y="0.0" type="line"/>
      <point x="323.5" y="600.0" type="line"/>
      <point x="650.5" y="117.5" type="line"/>
      <point x="640.5" y="77.0" type="line" smooth="yes"/>
      <point x="616.0" y="-21.0"/>
      <point x="560.5" y="-61.0"/>
      <point x="502.5" y="-61.0" type="curve" smooth="yes"/>
      <point x="445.0" y="-61.0"/>
      <point x="396.5" y="-22.5"/>
      <point x="379.0" y="31.5" type="curve"/>
      <point x="304.5" y="-105.0" type="line"/>
      <point x="344.5" y="-169.5"/>
      <point x="429.5" y="-196.0"/>
    </contour>
  </outline>
</glyph>
<glyph name="eng" format="2">
  <advance width="710.0"/>
  <unicode hex="014B"/>
  <outline>
    <contour>
      <point x="300.0" y="-312.0" type="line"/>
      <point x="409.0" y="-312.0"/>
      <point x="506.5" y="-239.0"/>
      <point x="538.5" y="-111.5" type="curve" smooth="yes"/>
      <point x="650.0" y="335.0" type="line" smooth="yes"/>
      <point x="686.5" y="480.5"/>
      <point x="624.5" y="616.0"/>
      <point x="462.5" y="616.0" type="curve" smooth="yes"/>
      <point x="344.0" y="616.0"/>
      <point x="224.0" y="532.5"/>
      <point x="182.0" y="360.0" type="curve"/>
      <point x="235.5" y="347.5" type="line"/>
      <point x="260.0" y="448.5"/>
      <point x="334.5" y="499.0"/>
      <point x="406.5" y="499.0" type="curve" smooth="yes"/>
      <point x="498.5" y="499.0"/>
      <point x="530.5" y="422.0"/>
      <point x="508.5" y="333.0" type="curve" smooth="yes"/>
      <point x="399.0" y="-110.5" type="line" smooth="yes"/>
      <point x="383.5" y="-173.0"/>
      <point x="347.5" y="-196.0"/>
      <point x="300.0" y="-196.0" type="curve"/>
    </contour>
    <contour>
      <point x="6.0" y="0.0" type="line"/>
      <point x="147.0" y="0.0" type="line"/>
      <point x="256.0" y="430.5" type="line"/>
      <point x="249.0" y="457.0" type="line"/>
      <point x="284.0" y="600.0" type="line"/>
      <point x="156.0" y="600.0" type="line"/>
    </contour>
  </outline>
</glyph>
<glyph name="OE" format="2">
  <advance width="1350.0"/>
  <unicode hex="0152"/>
  <anchor x="455.0" y="0.0" name="bottom"/>
  <anchor x="566.0" y="450.0" name="center"/>
  <anchor x="455.0" y="0.0" name="ogonek"/>
  <anchor x="677.0" y="900.0" name="top"/>
  <anchor x="580.5" y="510.0" name="top-vertical"/>
  <anchor x="207.0" y="900.0" name="topleft"/>
  <anchor x="1147.0" y="900.0" name="topright"/>
  <outline>
    <contour>
      <point x="491.5" y="-18.0" type="curve" smooth="yes"/>
      <point x="625.0" y="-18.0"/>
      <point x="757.0" y="46.5"/>
      <point x="841.5" y="154.0" type="curve"/>
      <point x="800.0" y="166.0" type="line"/>
      <point x="759.0" y="0.0" type="line"/>
      <point x="1218.0" y="0.0" type="line"/>
      <point x="1250.5" y="132.0" type="line"/>
      <point x="932.5" y="132.0" type="line"/>
      <point x="1019.5" y="480.0" type="line"/>
      <point x="1267.5" y="480.0" type="line"/>
      <point x="1299.0" y="606.0" type="line"/>
      <point x="1051.0" y="606.0" type="line"/>
      <point x="1093.0" y="771.0" type="line"/>
      <point x="1411.0" y="771.0" type="line"/>
      <point x="1443.0" y="900.0" type="line"/>
      <point x="984.0" y="900.0" type="line"/>
      <point x="927.5" y="673.0" type="line"/>
      <point x="991.5" y="672.0" type="line"/>
      <point x="935.5" y="817.5"/>
      <point x="795.5" y="918.0"/>
      <point x="621.5" y="918.0" type="curve" smooth="yes"/>
      <point x="344.5" y="918.0"/>
      <point x="95.0" y="669.5"/>
      <point x="95.0" y="395.5" type="curve" smooth="yes"/>
      <point x="95.0" y="162.5"/>
      <point x="267.0" y="-18.0"/>
    </contour>
    <contour>
      <point x="528.0" y="123.0" type="curve" smooth="yes"/>
      <point x="370.0" y="123.0"/>
      <point x="249.0" y="246.5"/>
      <point x="249.0" y="408.0" type="curve" smooth="yes"/>
      <point x="249.0" y="601.0"/>
      <point x="418.5" y="777.0"/>
      <point x="606.5" y="777.0" type="curve" smooth="yes"/>
      <point x="765.0" y="777.0"/>
      <point x="885.0" y="654.5"/>
      <point x="885.0" y="493.0" type="curve" smooth="yes"/>
      <point x="885.0" y="299.5"/>
      <point x="716.0" y="123.0"/>
    </contour>
  </outline>
</glyph>
<glyph name="oe" format="2">
  <advance width="1175.0"/>
  <unicode hex="0153"/>
  <anchor x="587.5" y="0.0" name="bottom"/>
  <anchor x="587.5" y="600.0" name="top"/>
  <outline>
    <contour>
      <point x="328.0" y="-16.0" type="curve" smooth="yes"/>
      <point x="423.0" y="-16.0"/>
      <point x="513.0" y="28.0"/>
      <point x="578.5" y="94.0" type="curve"/>
      <point x="630.0" y="26.5"/>
      <point x="715.5" y="-16.0"/>
      <point x="815.5" y="-16.0" type="curve" smooth="yes"/>
      <point x="893.0" y="-16.0"/>
      <point x="965.5" y="10.0"/>
      <point x="1020.0" y="51.5" type="curve"/>
      <point x="1020.0" y="210.0" type="line"/>
      <point x="983.0" y="151.0"/>
      <point x="905.0" y="107.0"/>
      <point x="828.5" y="107.0" type="curve" smooth="yes"/>
      <point x="726.0" y="107.0"/>
      <point x="657.5" y="179.0"/>
      <point x="657.5" y="284.0" type="curve"/>
      <point x="648.5" y="284.0" type="line"/>
      <point x="648.5" y="400.5"/>
      <point x="745.5" y="498.5"/>
      <point x="866.0" y="498.5" type="curve" smooth="yes"/>
      <point x="972.0" y="498.5"/>
      <point x="1031.5" y="424.5"/>
      <point x="1013.5" y="322.5" type="curve"/>
      <point x="1048.5" y="354.5" type="line"/>
      <point x="1009.5" y="362.5"/>
      <point x="971.0" y="367.5"/>
      <point x="926.0" y="367.5" type="curve" smooth="yes"/>
      <point x="773.5" y="367.5" type="line" smooth="yes"/>
      <point x="724.5" y="367.5"/>
      <point x="673.5" y="360.5"/>
      <point x="615.0" y="347.5" type="curve"/>
      <point x="598.0" y="279.5" type="line"/>
      <point x="651.0" y="266.5"/>
      <point x="698.0" y="259.5"/>
      <point x="747.0" y="259.5" type="curve" smooth="yes"/>
      <point x="1126.0" y="259.5" type="line"/>
      <point x="1138.0" y="307.5" type="line" smooth="yes"/>
      <point x="1179.5" y="475.0"/>
      <point x="1075.5" y="616.0"/>
      <point x="890.0" y="616.0" type="curve" smooth="yes"/>
      <point x="789.0" y="616.0"/>
      <point x="695.0" y="573.5"/>
      <point x="627.5" y="507.0" type="curve"/>
      <point x="577.5" y="573.5"/>
      <point x="496.0" y="616.0"/>
      <point x="402.5" y="616.0" type="curve" smooth="yes"/>
      <point x="213.5" y="616.0"/>
      <point x="45.0" y="449.0"/>
      <point x="45.0" y="263.5" type="curve" smooth="yes"/>
      <point x="45.0" y="102.5"/>
      <point x="172.0" y="-16.0"/>
    </contour>
    <contour>
      <point x="342.5" y="113.0" type="curve" smooth="yes"/>
      <point x="248.5" y="113.0"/>
      <point x="182.5" y="186.0"/>
      <point x="182.5" y="277.0" type="curve" smooth="yes"/>
      <point x="182.5" y="387.0"/>
      <point x="278.5" y="487.0"/>
      <point x="387.5" y="487.0" type="curve" smooth="yes"/>
      <point x="481.5" y="487.0"/>
      <point x="547.5" y="413.5"/>
      <point x="547.5" y="323.0" type="curve" smooth="yes"/>
      <point x="547.5" y="213.5"/>
      <point x="451.5" y="113.0"/>
    </contour>
  </outline>
</glyph>
<glyph name="Schwa" format="2">
  <advance width="1050.0"/>
  <unicode hex="018F"/>
  <outline>
    <contour>
      <point x="500.5" y="-16.0" type="curve" smooth="yes"/>
      <point x="778.5" y="-16.0"/>
      <point x="1029.0" y="228.5"/>
      <point x="1029.0" y="504.5" type="curve" smooth="yes"/>
      <point x="1029.0" y="739.0"/>
      <point x="846.0" y="916.5"/>
      <point x="611.0" y="916.5" type="curve" smooth="yes"/>
      <point x="508.5" y="916.5"/>
      <point x="408.5" y="883.5"/>
      <point x="323.5" y="827.0" type="curve"/>
      <point x="323.5" y="641.0" type="line"/>
      <point x="390.5" y="722.5"/>
      <point x="490.5" y="776.0"/>
      <point x="595.5" y="776.0" type="curve" smooth="yes"/>
      <point x="754.0" y="776.0"/>
      <point x="874.5" y="655.5"/>
      <point x="874.5" y="493.5" type="curve" smooth="yes"/>
      <point x="874.5" y="301.0"/>
      <point x="707.5" y="124.5"/>
      <point x="516.5" y="124.5" type="curve" smooth="yes"/>
      <point x="318.0" y="124.5"/>
      <point x="194.0" y="285.5"/>
      <point x="243.5" y="489.5" type="curve"/>
      <point x="167.0" y="396.0" type="line"/>
      <point x="733.5" y="396.0" type="line" smooth="yes"/>
      <point x="790.5" y="396.0"/>
      <point x="850.5" y="404.0"/>
      <point x="910.5" y="416.0" type="curve"/>
      <point x="931.5" y="502.0" type="line"/>
      <point x="877.5" y="514.0"/>
      <point x="821.5" y="522.0"/>
      <point x="764.5" y="522.0" type="curve" smooth="yes"/>
      <point x="102.0" y="522.0" type="line"/>
      <point x="95.5" y="495.0" type="line" smooth="yes"/>
      <point x="28.5" y="215.0"/>
      <point x="227.0" y="-16.0"/>
    </contour>
  </outline>
</glyph>
<glyph name="Ohorn" format="2">
  <advance width="1060.0"/>
  <unicode hex="01A0"/>
  <anchor x="456.0" y="0.0" name="bottom"/>
  <anchor x="456.0" y="0.0" name="ogonek"/>
  <anchor x="678.0" y="900.0" name="top"/>
  <outline>
    <contour>
      <point x="512.5" y="-18.0" type="curve" smooth="yes"/>
      <point x="790.0" y="-18.0"/>
      <point x="1039.0" y="230.5"/>
      <point x="1039.0" y="504.0" type="curve" smooth="yes"/>
      <point x="1039.0" y="737.0"/>
      <point x="858.0" y="918.0"/>
      <point x="621.5" y="918.0" type="curve" smooth="yes"/>
      <point x="344.5" y="918.0"/>
      <point x="95.0" y="669.5"/>
      <point x="95.0" y="395.5" type="curve" smooth="yes"/>
      <point x="95.0" y="162.5"/>
      <point x="276.0" y="-18.0"/>
    </contour>
    <contour>
      <point x="528.0" y="123.0" type="curve" smooth="yes"/>
      <point x="370.0" y="123.0"/>
      <point x="249.0" y="246.5"/>
      <point x="249.0" y="408.0" type="curve" smooth="yes"/>
      <point x="249.0" y="601.0"/>
      <point x="418.5" y="777.0"/>
      <point x="606.5" y="777.0" type="curve" smooth="yes"/>
      <point x="765.0" y="777.0"/>
      <point x="885.0" y="654.5"/>
      <point x="885.0" y="493.0" type="curve" smooth="yes"/>
      <point x="885.0" y="299.5"/>
      <point x="716.0" y="123.0"/>
    </contour>
    <contour>
      <point x="948.5" y="689.0" type="line"/>
      <point x="1077.5" y="689.0"/>
      <point x="1164.0" y="809.5"/>
      <point x="1164.0" y="914.0" type="curve" smooth="yes"/>
      <point x="1164.0" y="929.0"/>
      <point x="1162.0" y="944.0"/>
      <point x="1156.0" y="960.0" type="curve"/>
      <point x="1030.0" y="960.0" type="line"/>
      <point x="1035.0" y="944.0"/>
      <point x="1037.0" y="927.0"/>
      <point x="1037.0" y="912.0" type="curve" smooth="yes"/>
      <point x="1037.0" y="859.0"/>
      <point x="1011.0" y="786.0"/>
      <point x="923.0" y="778.0" type="curve"/>
    </contour>
  </outline>
</glyph>
<glyph name="ohorn" format="2">
  <advance width="770.0"/>
  <unicode hex="01A1"/>
  <anchor x="291.0" y="0.0" name="bottom"/>
  <anchor x="439.0" y="600.0" name="top"/>
  <outline>
    <contour>
      <point x="328.0" y="-15.0" type="curve" smooth="yes"/>
      <point x="515.5" y="-15.0"/>
      <point x="685.0" y="151.5"/>
      <point x="685.0" y="337.5" type="curve" smooth="yes"/>
      <point x="685.0" y="495.0"/>
      <point x="562.0" y="615.0"/>
      <point x="402.5" y="615.0" type="curve" smooth="yes"/>
      <point x="213.5" y="615.0"/>
      <point x="45.0" y="449.0"/>
      <point x="45.0" y="263.5" type="curve" smooth="yes"/>
      <point x="45.0" y="102.5"/>
      <point x="172.0" y="-15.0"/>
    </contour>
    <contour>
      <point x="342.5" y="114.0" type="curve" smooth="yes"/>
      <point x="248.5" y="114.0"/>
      <point x="182.5" y="186.0"/>
      <point x="182.5" y="277.0" type="curve" smooth="yes"/>
      <point x="182.5" y="387.0"/>
      <point x="278.5" y="486.5"/>
      <point x="387.5" y="486.5" type="curve" smooth="yes"/>
      <point x="481.5" y="486.5"/>
      <point x="547.5" y="413.5"/>
      <point x="547.5" y="323.0" type="curve" smooth="yes"/>
      <point x="547.5" y="213.5"/>
      <point x="451.5" y="114.0"/>
    </contour>
    <contour>
      <point x="630.0" y="398.0" type="line"/>
      <point x="741.0" y="398.0"/>
      <point x="828.0" y="510.0"/>
      <point x="828.0" y="615.0" type="curve" smooth="yes"/>
      <point x="828.0" y="630.0"/>
      <point x="826.0" y="645.0"/>
      <point x="821.0" y="660.0" type="curve"/>
      <point x="704.0" y="660.0" type="line"/>
      <point x="709.0" y="645.0"/>
      <point x="711.0" y="629.0"/>
      <point x="711.0" y="615.0" type="curve" smooth="yes"/>
      <point x="711.0" y="555.0"/>
      <point x="680.5" y="476.0"/>
      <point x="601.0" y="476.0" type="curve"/>
    </contour>
  </outline>
</glyph>
<glyph name="Uhorn" format="2">
  <advance width="930.0"/>
  <unicode hex="01AF"/>
  <anchor x="326.0" y="0.0" name="bottom"/>
  <anchor x="548.0" y="900.0" name="top"/>
  <outline>
    <contour>
      <point x="365.0" y="-16.0" type="curve" smooth="yes"/>
      <point x="533.5" y="-16.0"/>
      <point x="657.5" y="90.5"/>
      <point x="701.0" y="264.5" type="curve" smooth="yes"/>
      <point x="817.0" y="727.5" type="line"/>
      <point x="812.5" y="745.0" type="line"/>
      <point x="851.0" y="900.0" type="line"/>
      <point x="715.0" y="900.0" type="line"/>
      <point x="560.0" y="280.5" type="line" smooth="yes"/>
      <point x="535.5" y="182.5"/>
      <point x="467.5" y="121.5"/>
      <point x="379.5" y="121.5" type="curve" smooth="yes"/>
      <point x="270.5" y="121.5"/>
      <point x="218.5" y="213.5"/>
      <point x="246.0" y="324.5" type="curve" smooth="yes"/>
      <point x="390.0" y="900.0" type="line"/>
      <point x="240.0" y="900.0" type="line"/>
      <point x="99.5" y="336.5" type="line" smooth="yes"/>
      <point x="51.5" y="143.0"/>
      <point x="160.0" y="-16.0"/>
    </contour>
    <contour>
      <point x="853.5" y="689.0" type="curve" smooth="yes"/>
      <point x="968.5" y="689.0"/>
      <point x="1062.0" y="806.0"/>
      <point x="1062.0" y="914.5" type="curve" smooth="yes"/>
      <point x="1062.0" y="929.5"/>
      <point x="1060.0" y="944.5"/>
      <point x="1055.0" y="960.0" type="curve"/>
      <point x="932.0" y="960.0" type="line"/>
      <point x="937.0" y="945.0"/>
      <point x="939.0" y="929.0"/>
      <point x="939.0" y="915.0" type="curve" smooth="yes"/>
      <point x="939.0" y="859.5"/>
      <point x="910.5" y="785.0"/>
      <point x="843.0" y="785.0" type="curve" smooth="yes"/>
      <point x="814.5" y="785.0"/>
      <point x="792.5" y="799.5"/>
      <point x="787.0" y="828.5" type="curve"/>
      <point x="762.0" y="725.5" type="line"/>
      <point x="783.0" y="701.5"/>
      <point x="816.0" y="689.0"/>
    </contour>
  </outline>
</glyph>
<glyph name="uhorn" format="2">
  <advance width="840.0"/>
  <unicode hex="01B0"/>
  <anchor x="281.0" y="0.0" name="bottom"/>
  <anchor x="427.0" y="600.0" name="top"/>
  <outline>
    <contour>
      <point x="247.5" y="-16.0" type="curve" smooth="yes"/>
      <point x="366.0" y="-16.0"/>
      <point x="486.0" y="67.5"/>
      <point x="528.0" y="240.0" type="curve"/>
      <point x="474.5" y="252.5" type="line"/>
      <point x="450.0" y="151.5"/>
      <point x="375.5" y="101.0"/>
      <point x="303.5" y="101.0" type="curve" smooth="yes"/>
      <point x="211.5" y="101.0"/>
      <point x="179.5" y="178.0"/>
      <point x="201.5" y="267.0" type="curve" smooth="yes"/>
      <point x="285.0" y="600.0" type="line"/>
      <point x="144.0" y="600.0" type="line"/>
      <point x="60.0" y="265.0" type="line" smooth="yes"/>
      <point x="23.5" y="119.0"/>
      <point x="85.5" y="-16.0"/>
    </contour>
    <contour>
      <point x="426.0" y="0.0" type="line"/>
      <point x="554.0" y="0.0" type="line"/>
      <point x="666.0" y="447.5" type="line"/>
      <point x="657.0" y="447.5" type="line"/>
      <point x="695.0" y="600.0" type="line"/>
      <point x="563.0" y="600.0" type="line"/>
      <point x="454.0" y="169.5" type="line"/>
      <point x="461.0" y="143.0" type="line"/>
    </contour>
    <contour>
      <point x="694.0" y="392.0" type="curve" smooth="yes"/>
      <point x="776.0" y="392.0"/>
      <point x="865.0" y="454.0"/>
      <point x="893.0" y="568.0" type="curve" smooth="yes"/>
      <point x="900.0" y="597.0"/>
      <point x="903.0" y="628.0"/>
      <point x="892.0" y="660.0" type="curve"/>
      <point x="775.0" y="660.0" type="line"/>
      <point x="786.0" y="627.0"/>
      <point x="782.0" y="592.0"/>
      <point x="776.0" y="568.0" type="curve" smooth="yes"/>
      <point x="761.5" y="509.5"/>
      <point x="721.5" y="485.0"/>
      <point x="686.0" y="485.0" type="curve" smooth="yes"/>
      <point x="657.5" y="485.0"/>
      <point x="635.5" y="499.5"/>
      <point x="627.0" y="528.5" type="curve"/>
      <point x="602.5" y="428.0" type="line"/>
      <point x="623.5" y="404.5"/>
      <point x="656.5" y="392.0"/>
    </contour>
  </outline>
</glyph>
<glyph name="Ezh" format="2">
  <advance width="660.0"/>
  <unicode hex="01B7"/>
  <anchor x="228.5" y="0.0" name="bottom"/>
  <anchor x="469.0" y="900.0" name="top"/>
  <outline>
    <contour>
      <point x="267.5" y="-16.0" type="curve" smooth="yes"/>
      <point x="452.5" y="-16.0"/>
      <point x="623.5" y="149.5"/>
      <point x="623.5" y="335.5" type="curve" smooth="yes"/>
      <point x="623.5" y="457.0"/>
      <point x="550.0" y="555.0"/>
      <point x="441.5" y="589.5" type="curve"/>
      <point x="443.5" y="545.5" type="line"/>
      <point x="721.5" y="900.0" type="line"/>
      <point x="227.0" y="900.0" type="line"/>
      <point x="195.5" y="771.0" type="line"/>
      <point x="526.5" y="771.0" type="line"/>
      <point x="502.5" y="812.0" type="line"/>
      <point x="233.0" y="469.0" type="line"/>
      <point x="259.5" y="479.0"/>
      <point x="285.5" y="484.5"/>
      <point x="312.5" y="484.5" type="curve" smooth="yes"/>
      <point x="415.0" y="484.5"/>
      <point x="480.5" y="411.5"/>
      <point x="480.5" y="324.0" type="curve" smooth="yes"/>
      <point x="480.5" y="220.5"/>
      <point x="388.5" y="119.0"/>
      <point x="280.0" y="119.0" type="curve" smooth="yes"/>
      <point x="167.5" y="119.0"/>
      <point x="103.0" y="219.5"/>
      <point x="111.0" y="319.0" type="curve"/>
      <point x="-7.0" y="172.5" type="line"/>
      <point x="35.5" y="52.0"/>
      <point x="147.5" y="-16.0"/>
    </contour>
  </outline>
</glyph>
<glyph name="jdotless" format="2">
  <advance width="305.0"/>
  <unicode hex="0237"/>
  <anchor x="8.0" y="-300.0" name="bottom"/>
  <anchor x="229.0" y="600.0" name="top"/>
  <outline>
    <contour>
      <point x="-117.0" y="-312.0" type="line"/>
      <point x="-8.0" y="-312.0"/>
      <point x="89.5" y="-239.0"/>
      <point x="121.5" y="-111.5" type="curve" smooth="yes"/>
      <point x="299.5" y="600.0" type="line"/>
      <point x="159.5" y="600.0" type="line"/>
      <point x="-18.0" y="-110.5" type="line" smooth="yes"/>
      <point x="-33.5" y="-173.0"/>
      <point x="-69.5" y="-196.0"/>
      <point x="-117.0" y="-196.0" type="curve"/>
    </contour>
  </outline>
</glyph>
<glyph name="schwa" format="2">
  <advance width="700.0"/>
  <unicode hex="0259"/>
  <anchor x="349.0" y="0.0" name="bottom"/>
  <anchor x="63.0" y="590.0" name="ogonek"/>
  <anchor x="349.0" y="600.0" name="top"/>
  <outline>
    <contour>
      <point x="345.5" y="-16.0" type="curve" smooth="yes"/>
      <point x="517.5" y="-16.0"/>
      <point x="655.0" y="118.5"/>
      <point x="655.0" y="294.0" type="curve" smooth="yes"/>
      <point x="655.0" y="478.5"/>
      <point x="516.5" y="616.0"/>
      <point x="320.5" y="616.0" type="curve" smooth="yes"/>
      <point x="239.0" y="616.0"/>
      <point x="162.0" y="591.0"/>
      <point x="103.0" y="545.0" type="curve"/>
      <point x="137.0" y="405.5" type="line"/>
      <point x="176.5" y="456.5"/>
      <point x="242.0" y="493.0"/>
      <point x="318.0" y="493.0" type="curve" smooth="yes"/>
      <point x="437.5" y="493.0"/>
      <point x="521.0" y="407.5"/>
      <point x="521.0" y="296.0" type="curve"/>
      <point x="528.5" y="296.0" type="line"/>
      <point x="528.5" y="186.0"/>
      <point x="449.5" y="101.0"/>
      <point x="346.5" y="101.0" type="curve" smooth="yes"/>
      <point x="243.5" y="101.0"/>
      <point x="165.5" y="181.0"/>
      <point x="165.5" y="293.0" type="curve"/>
      <point x="140.0" y="246.5" type="line"/>
      <point x="180.0" y="237.0"/>
      <point x="220.0" y="232.5"/>
      <point x="265.5" y="232.5" type="curve" smooth="yes"/>
      <point x="418.0" y="232.5" type="line" smooth="yes"/>
      <point x="470.0" y="232.5"/>
      <point x="520.0" y="240.5"/>
      <point x="572.0" y="252.5" type="curve"/>
      <point x="572.0" y="320.5" type="line"/>
      <point x="520.0" y="332.5"/>
      <point x="470.0" y="340.5"/>
      <point x="418.0" y="340.5" type="curve" smooth="yes"/>
      <point x="39.0" y="340.5" type="line"/>
      <point x="39.0" y="288.0" type="line" smooth="yes"/>
      <point x="39.0" y="115.0"/>
      <point x="174.0" y="-16.0"/>
    </contour>
  </outline>
</glyph>
<glyph name="gravecomb" format="2">
  <unicode hex="0300"/>
  <anchor x="497.0" y="600.0" name="_top"/>
  <outline>
    <contour>
      <point x="471.5" y="684.0" type="line"/>
      <point x="573.5" y="684.0" type="line"/>
      <point x="519.0" y="900.0" type="line"/>
      <point x="372.5" y="900.0" type="line"/>
    </contour>
  </outline>
</glyph>
<glyph name="acutecomb" format="2">
  <unicode hex="0301"/>
  <anchor x="435.0" y="600.0" name="_top"/>
  <outline>
    <contour>
      <point x="391.5" y="684.0" type="line"/>
      <point x="513.5" y="684.0" type="line"/>
      <point x="695.0" y="876.0" type="line"/>
      <point x="529.5" y="876.0" type="line"/>
    </contour>
  </outline>
</glyph>
<glyph name="circumflexcomb" format="2">
  <unicode hex="0302"/>
  <anchor x="435.0" y="600.0" name="_top"/>
  <outline>
    <contour>
      <point x="251.5" y="684.0" type="line"/>
      <point x="394.5" y="684.0" type="line"/>
      <point x="426.0" y="710.0"/>
      <point x="451.0" y="735.5"/>
      <point x="484.0" y="770.5" type="curve"/>
      <point x="500.0" y="735.5"/>
      <point x="512.0" y="710.0"/>
      <point x="530.5" y="684.0" type="curve"/>
      <point x="659.5" y="684.0" type="line"/>
      <point x="512.5" y="915.0" type="line"/>
    </contour>
  </outline>
</glyph>
<glyph name="tildecomb" format="2">
  <unicode hex="0303"/>
  <anchor x="435.0" y="600.0" name="_top"/>
  <outline>
    <contour>
      <point x="300.0" y="683.0" type="line"/>
      <point x="319.0" y="729.0"/>
      <point x="349.0" y="756.0"/>
      <point x="392.5" y="756.0" type="curve" smooth="yes"/>
      <point x="450.0" y="756.0"/>
      <point x="504.5" y="704.0"/>
      <point x="573.5" y="704.0" type="curve" smooth="yes"/>
      <point x="627.5" y="704.0"/>
      <point x="673.0" y="733.0"/>
      <point x="700.0" y="786.0" type="curve"/>
      <point x="663.0" y="892.0" type="line"/>
      <point x="644.0" y="846.0"/>
      <point x="614.0" y="819.0"/>
      <point x="570.5" y="819.0" type="curve" smooth="yes"/>
      <point x="513.0" y="819.0"/>
      <point x="458.5" y="871.0"/>
      <point x="389.5" y="871.0" type="curve" smooth="yes"/>
      <point x="335.5" y="871.0"/>
      <point x="290.0" y="842.0"/>
      <point x="263.0" y="789.0" type="curve"/>
    </contour>
  </outline>
</glyph>
<glyph name="macroncomb" format="2">
  <unicode hex="0304"/>
  <anchor x="435.0" y="600.0" name="_top"/>
  <outline>
    <contour>
      <point x="316.5" y="729.0" type="line"/>
      <point x="616.5" y="729.0" type="line"/>
      <point x="641.5" y="831.0" type="line"/>
      <point x="341.5" y="831.0" type="line"/>
    </contour>
  </outline>
</glyph>
<glyph name="brevecomb" format="2">
  <unicode hex="0306"/>
  <anchor x="435.0" y="600.0" name="_top"/>
  <anchor x="496.5" y="849.0" name="top"/>
  <outline>
    <contour>
      <point x="481.0" y="669.0" type="curve" smooth="yes"/>
      <point x="582.0" y="669.0"/>
      <point x="672.5" y="738.0"/>
      <point x="690.5" y="855.0" type="curve"/>
      <point x="583.0" y="855.0" type="line"/>
      <point x="576.5" y="806.5"/>
      <point x="530.5" y="770.0"/>
      <point x="486.5" y="770.0" type="curve" smooth="yes"/>
      <point x="440.5" y="770.0"/>
      <point x="406.5" y="809.5"/>
      <point x="412.5" y="855.0" type="curve"/>
      <point x="305.0" y="855.0" type="line"/>
      <point x="292.5" y="748.0"/>
      <point x="371.0" y="669.0"/>
    </contour>
  </outline>
</glyph>
<glyph name="dotaccentcomb" format="2">
  <unicode hex="0307"/>
  <anchor x="480.0" y="780.0" name="_centerright"/>
  <anchor x="435.0" y="600.0" name="_top"/>
  <outline>
    <contour>
      <point x="470.5" y="697.5" type="curve" smooth="yes"/>
      <point x="519.0" y="697.5"/>
      <point x="562.5" y="741.0"/>
      <point x="562.5" y="790.0" type="curve" smooth="yes"/>
      <point x="562.5" y="831.0"/>
      <point x="531.0" y="862.5"/>
      <point x="489.5" y="862.5" type="curve" smooth="yes"/>
      <point x="441.0" y="862.5"/>
      <point x="397.5" y="819.0"/>
      <point x="397.5" y="770.0" type="curve" smooth="yes"/>
      <point x="397.5" y="728.0"/>
      <point x="430.0" y="697.5"/>
    </contour>
  </outline>
</glyph>
<glyph name="hookabovecomb" format="2">
  <unicode hex="0309"/>
  <anchor x="435.5" y="600.0" name="_top"/>
  <outline>
    <contour>
      <point x="407.0" y="690.0" type="curve"/>
      <point x="549.5" y="690.0" type="line"/>
      <point x="582.5" y="718.0"/>
      <point x="606.5" y="754.0"/>
      <point x="606.5" y="798.0" type="curve" smooth="yes"/>
      <point x="606.5" y="869.5"/>
      <point x="542.5" y="915.5"/>
      <point x="449.5" y="915.5" type="curve" smooth="yes"/>
      <point x="418.0" y="915.5"/>
      <point x="388.5" y="910.0"/>
      <point x="366.0" y="898.5" type="curve"/>
      <point x="366.5" y="798.0" type="line"/>
      <point x="384.5" y="811.5"/>
      <point x="408.5" y="821.5"/>
      <point x="431.0" y="821.5" type="curve" smooth="yes"/>
      <point x="462.5" y="821.5"/>
      <point x="483.0" y="804.5"/>
      <point x="483.0" y="779.0" type="curve" smooth="yes"/>
      <point x="483.0" y="751.0"/>
      <point x="457.0" y="724.5"/>
    </contour>
  </outline>
</glyph>
<glyph name="ringcomb" format="2">
  <unicode hex="030A"/>
  <anchor x="435.0" y="600.0" name="_top"/>
  <outline>
    <contour>
      <point x="464.5" y="648.0" type="curve" smooth="yes"/>
      <point x="543.5" y="648.0"/>
      <point x="615.0" y="717.5"/>
      <point x="615.0" y="795.5" type="curve" smooth="yes"/>
      <point x="615.0" y="861.5"/>
      <point x="563.0" y="912.0"/>
      <point x="495.5" y="912.0" type="curve" smooth="yes"/>
      <point x="416.0" y="912.0"/>
      <point x="345.0" y="842.5"/>
      <point x="345.0" y="765.0" type="curve" smooth="yes"/>
      <point x="345.0" y="697.5"/>
      <point x="398.5" y="648.0"/>
    </contour>
    <contour>
      <point x="473.0" y="721.5" type="curve" smooth="yes"/>
      <point x="443.0" y="721.5"/>
      <point x="421.5" y="744.0"/>
      <point x="421.5" y="773.0" type="curve" smooth="yes"/>
      <point x="421.5" y="807.5"/>
      <point x="452.5" y="838.5"/>
      <point x="487.0" y="838.5" type="curve" smooth="yes"/>
      <point x="517.0" y="838.5"/>
      <point x="538.5" y="815.5"/>
      <point x="538.5" y="787.0" type="curve" smooth="yes"/>
      <point x="538.5" y="752.5"/>
      <point x="507.5" y="721.5"/>
    </contour>
  </outline>
</glyph>
<glyph name="hungarumlautcomb" format="2">
  <unicode hex="030B"/>
  <anchor x="385.0" y="600.0" name="_top"/>
  <outline>
    <contour>
      <point x="296.5" y="684.0" type="line"/>
      <point x="420.0" y="780.0" type="line"/>
      <point x="402.5" y="870.0" type="line"/>
      <point x="288.0" y="774.0" type="line"/>
    </contour>
    <contour>
      <point x="530.5" y="684.0" type="line"/>
      <point x="654.0" y="780.0" type="line"/>
      <point x="636.5" y="870.0" type="line"/>
      <point x="522.0" y="774.0" type="line"/>
    </contour>
  </outline>
</glyph>
<glyph name="caroncomb" format="2">
  <unicode hex="030C"/>
  <anchor x="435.0" y="600.0" name="_top"/>
  <outline>
    <contour>
      <point x="453.5" y="675.0" type="line"/>
      <point x="714.5" y="906.0" type="line"/>
      <point x="571.5" y="906.0" type="line"/>
      <point x="540.0" y="880.0"/>
      <point x="515.0" y="854.5"/>
      <point x="482.0" y="819.5" type="curve"/>
      <point x="466.0" y="854.5"/>
      <point x="454.0" y="880.0"/>
      <point x="435.5" y="906.0" type="curve"/>
      <point x="306.5" y="906.0" type="line"/>
    </contour>
  </outline>
</glyph>
<glyph name="dblgravecomb" format="2">
  <unicode hex="030F"/>
  <anchor x="410.0" y="600.0" name="_top"/>
  <outline>
    <contour>
      <point x="476.5" y="684.0" type="line"/>
      <point x="582.5" y="684.0" type="line"/>
      <point x="519.0" y="870.0" type="line"/>
      <point x="369.0" y="870.0" type="line"/>
    </contour>
    <contour>
      <point x="242.5" y="684.0" type="line"/>
      <point x="348.5" y="684.0" type="line"/>
      <point x="285.0" y="870.0" type="line"/>
      <point x="135.0" y="870.0" type="line"/>
    </contour>
  </outline>
</glyph>
<glyph name="breveinvertedcomb" format="2">
  <unicode hex="0311"/>
  <anchor x="435.0" y="600.0" name="_top"/>
  <anchor x="497.0" y="849.0" name="top"/>
  <outline>
    <contour>
      <point x="259.5" y="669.0" type="curve"/>
      <point x="367.0" y="669.0" type="line"/>
      <point x="373.5" y="717.5"/>
      <point x="419.5" y="754.0"/>
      <point x="463.5" y="754.0" type="curve" smooth="yes"/>
      <point x="509.5" y="754.0"/>
      <point x="543.5" y="714.5"/>
      <point x="537.5" y="669.0" type="curve"/>
      <point x="645.0" y="669.0" type="line"/>
      <point x="657.5" y="776.0"/>
      <point x="579.0" y="855.0"/>
      <point x="469.0" y="855.0" type="curve" smooth="yes"/>
      <point x="368.0" y="855.0"/>
      <point x="277.5" y="786.0"/>
    </contour>
  </outline>
</glyph>
<glyph name="commaturnedabovecomb" format="2">
  <unicode hex="0312"/>
  <anchor x="435.0" y="600.0" name="_top"/>
  <outline>
    <contour>
      <point x="396.5" y="714.0" type="curve"/>
      <point x="529.5" y="714.0" type="line"/>
      <point x="558.0" y="801.5"/>
      <point x="608.5" y="872.5"/>
      <point x="669.0" y="930.0" type="curve"/>
      <point x="523.0" y="930.0" type="line"/>
      <point x="466.5" y="866.0"/>
      <point x="422.0" y="794.0"/>
    </contour>
  </outline>
</glyph>
<glyph name="horncomb" format="2">
  <unicode hex="031B"/>
  <anchor x="274.0" y="600.0" name="_topright"/>
  <outline>
    <contour>
      <point x="345.5" y="398.0" type="curve" smooth="yes"/>
      <point x="424.5" y="398.0"/>
      <point x="503.0" y="459.0"/>
      <point x="516.0" y="565.0" type="curve" smooth="yes"/>
      <point x="527.5" y="660.0" type="line"/>
      <point x="431.5" y="660.0" type="line"/>
      <point x="419.5" y="561.0" type="line" smooth="yes"/>
      <point x="414.0" y="516.0"/>
      <point x="381.0" y="476.0"/>
      <point x="331.0" y="476.0" type="curve" smooth="yes"/>
      <point x="299.0" y="476.0"/>
      <point x="272.0" y="494.0"/>
      <point x="265.5" y="529.0" type="curve"/>
      <point x="253.5" y="433.0" type="line"/>
      <point x="277.0" y="410.0"/>
      <point x="309.5" y="398.0"/>
    </contour>
  </outline>
</glyph>
<glyph name="dotbelowcomb" format="2">
  <unicode hex="0323"/>
  <anchor x="285.0" y="0.0" name="_bottom"/>
  <anchor x="222.0" y="-252.0" name="bottom"/>
  <outline>
    <contour>
      <point x="230.5" y="-262.5" type="curve" smooth="yes"/>
      <point x="279.0" y="-262.5"/>
      <point x="322.5" y="-219.0"/>
      <point x="322.5" y="-170.0" type="curve" smooth="yes"/>
      <point x="322.5" y="-129.0"/>
      <point x="291.0" y="-97.5"/>
      <point x="249.5" y="-97.5" type="curve" smooth="yes"/>
      <point x="201.0" y="-97.5"/>
      <point x="157.5" y="-141.0"/>
      <point x="157.5" y="-190.0" type="curve" smooth="yes"/>
      <point x="157.5" y="-232.0"/>
      <point x="190.0" y="-262.5"/>
    </contour>
  </outline>
</glyph>
<glyph name="dieresisbelowcomb" format="2">
  <unicode hex="0324"/>
  <anchor x="322.5" y="0.0" name="_top"/>
  <outline>
    <contour>
      <point x="296.0" y="-249.0" type="curve" smooth="yes"/>
      <point x="335.5" y="-249.0"/>
      <point x="369.0" y="-216.0"/>
      <point x="369.0" y="-175.5" type="curve" smooth="yes"/>
      <point x="369.0" y="-139.5"/>
      <point x="340.0" y="-111.0"/>
      <point x="304.0" y="-111.0" type="curve" smooth="yes"/>
      <point x="264.0" y="-111.0"/>
      <point x="231.0" y="-144.5"/>
      <point x="231.0" y="-184.5" type="curve" smooth="yes"/>
      <point x="231.0" y="-221.0"/>
      <point x="259.5" y="-249.0"/>
    </contour>
    <contour>
      <point x="296.0" y="-249.0" type="curve" smooth="yes"/>
      <point x="335.5" y="-249.0"/>
      <point x="369.0" y="-216.0"/>
      <point x="369.0" y="-175.5" type="curve" smooth="yes"/>
      <point x="369.0" y="-139.5"/>
      <point x="340.0" y="-111.0"/>
      <point x="304.0" y="-111.0" type="curve" smooth="yes"/>
      <point x="264.0" y="-111.0"/>
      <point x="231.0" y="-144.5"/>
      <point x="231.0" y="-184.5" type="curve" smooth="yes"/>
      <point x="231.0" y="-221.0"/>
      <point x="259.5" y="-249.0"/>
    </contour>
  </outline>
</glyph>
<glyph name="commaaccentcomb" format="2">
  <unicode hex="0326"/>
  <anchor x="284.0" y="0.0" name="_bottom"/>
  <anchor x="123.0" y="-330.0" name="bottom"/>
  <outline>
    <contour>
      <point x="50.0" y="-330.0" type="curve"/>
      <point x="196.0" y="-330.0" type="line"/>
      <point x="252.5" y="-266.0"/>
      <point x="297.0" y="-194.0"/>
      <point x="322.5" y="-114.0" type="curve"/>
      <point x="189.5" y="-114.0" type="line"/>
      <point x="161.0" y="-201.5"/>
      <point x="110.5" y="-272.5"/>
    </contour>
  </outline>
</glyph>
<glyph name="ogonekcomb" format="2">
  <unicode hex="0328"/>
  <anchor x="364.0" y="0.0" name="_ogonek"/>
  <outline>
    <contour>
      <point x="387.0" y="-315.0" type="curve"/>
      <point x="428.0" y="-207.0" type="line"/>
      <point x="384.0" y="-204.5"/>
      <point x="352.5" y="-182.5"/>
      <point x="352.5" y="-134.5" type="curve" smooth="yes"/>
      <point x="352.5" y="-83.0"/>
      <point x="382.5" y="-46.0"/>
      <point x="428.0" y="0.0" type="curve"/>
      <point x="303.0" y="0.0" type="line"/>
      <point x="255.5" y="-50.5"/>
      <point x="223.5" y="-104.0"/>
      <point x="223.5" y="-164.5" type="curve" smooth="yes"/>
      <point x="223.5" y="-256.5"/>
      <point x="295.5" y="-309.0"/>
    </contour>
  </outline>
</glyph>
<glyph name="brevebelowcomb" format="2">
  <unicode hex="032E"/>
  <anchor x="285.0" y="0.0" name="_bottom"/>
  <anchor x="360.0" y="-249.0" name="bottom"/>
  <outline>
    <contour>
      <point x="251.0" y="-255.0" type="curve" smooth="yes"/>
      <point x="352.0" y="-255.0"/>
      <point x="442.5" y="-186.0"/>
      <point x="460.5" y="-69.0" type="curve"/>
      <point x="353.0" y="-69.0" type="line"/>
      <point x="346.5" y="-117.5"/>
      <point x="300.5" y="-154.0"/>
      <point x="256.5" y="-154.0" type="curve" smooth="yes"/>
      <point x="210.5" y="-154.0"/>
      <point x="176.5" y="-114.5"/>
      <point x="182.5" y="-69.0" type="curve"/>
      <point x="75.0" y="-69.0" type="line"/>
      <point x="62.5" y="-176.0"/>
      <point x="141.0" y="-255.0"/>
    </contour>
  </outline>
</glyph>
<glyph name="macronbelowcomb" format="2">
  <unicode hex="0331"/>
  <anchor x="285.0" y="0.0" name="_bottom"/>
  <outline>
    <contour>
      <point x="77.0" y="-231.0" type="line"/>
      <point x="380.0" y="-231.0" type="line"/>
      <point x="405.0" y="-129.0" type="line"/>
      <point x="102.0" y="-129.0" type="line"/>
    </contour>
  </outline>
</glyph>
<glyph name="strokelongcomb" format="2">
  <unicode hex="0336"/>
  <anchor x="437.0" y="450.0" name="_center"/>
  <outline>
    <contour>
      <point x="55.5" y="402.0" type="line"/>
      <point x="795.5" y="402.0" type="line"/>
      <point x="818.5" y="498.0" type="line"/>
      <point x="78.5" y="498.0" type="line"/>
    </contour>
  </outline>
</glyph>
<glyph name="slashshortcomb" format="2">
  <unicode hex="0337"/>
  <anchor x="278.0" y="300.0" name="_center"/>
  <outline>
    <contour>
      <point x="81.0" y="222.0" type="line"/>
      <point x="125.5" y="152.0" type="line"/>
      <point x="469.0" y="378.0" type="line"/>
      <point x="424.5" y="448.0" type="line"/>
    </contour>
  </outline>
</glyph>
<glyph name="slashlongcomb" format="2">
  <unicode hex="0338"/>
  <anchor x="277.5" y="300.0" name="_center"/>
  <outline>
    <contour>
      <point x="26.5" y="-6.5" type="line"/>
      <point x="583.0" y="541.5" type="line"/>
      <point x="523.0" y="605.5" type="line"/>
      <point x="-33.5" y="57.5" type="line"/>
    </contour>
  </outline>
</glyph>
<glyph name="pi" format="2">
  <advance width="710.0"/>
  <unicode hex="03C0"/>
  <anchor x="280.0" y="0.0" name="bottom"/>
  <anchor x="431.0" y="600.0" name="top"/>
  <outline>
    <contour>
      <point x="413.0" y="0.0" type="line"/>
      <point x="554.0" y="0.0" type="line"/>
      <point x="705.0" y="600.0" type="line"/>
      <point x="564.0" y="600.0" type="line"/>
    </contour>
    <contour>
      <point x="6.0" y="0.0" type="line"/>
      <point x="147.0" y="0.0" type="line"/>
      <point x="298.0" y="600.0" type="line"/>
      <point x="157.0" y="600.0" type="line"/>
    </contour>
    <contour>
      <point x="185.0" y="471.0" type="line"/>
      <point x="613.0" y="471.0" type="line"/>
      <point x="645.0" y="600.0" type="line"/>
      <point x="217.0" y="600.0" type="line"/>
    </contour>
  </outline>
</glyph>
<glyph name="Germandbls" format="2">
  <advance width="990.0"/>
  <unicode hex="1E9E"/>
  <outline>
    <contour>
      <point x="587.0" y="-16.0" type="curve" smooth="yes"/>
      <point x="772.0" y="-16.0"/>
      <point x="943.0" y="149.5"/>
      <point x="943.0" y="335.5" type="curve" smooth="yes"/>
      <point x="943.0" y="457.0"/>
      <point x="869.5" y="555.0"/>
      <point x="761.0" y="589.5" type="curve"/>
      <point x="763.0" y="545.5" type="line"/>
      <point x="1041.0" y="900.0" type="line"/>
      <point x="267.0" y="900.0" type="line"/>
      <point x="42.0" y="0.0" type="line"/>
      <point x="191.5" y="0.0" type="line"/>
      <point x="385.0" y="771.0" type="line"/>
      <point x="790.0" y="771.0" type="line"/>
      <point x="552.5" y="469.0" type="line"/>
      <point x="579.0" y="479.0"/>
      <point x="605.0" y="484.5"/>
      <point x="632.0" y="484.5" type="curve" smooth="yes"/>
      <point x="734.5" y="484.5"/>
      <point x="800.0" y="411.5"/>
      <point x="800.0" y="324.0" type="curve" smooth="yes"/>
      <point x="800.0" y="220.5"/>
      <point x="708.0" y="119.0"/>
      <point x="599.5" y="119.0" type="curve" smooth="yes"/>
      <point x="487.0" y="119.0"/>
      <point x="422.5" y="219.5"/>
      <point x="430.5" y="319.0" type="curve"/>
      <point x="312.5" y="172.5" type="line"/>
      <point x="355.0" y="52.0"/>
      <point x="467.0" y="-16.0"/>
    </contour>
  </outline>
</glyph>
<glyph name="endash" format="2">
  <advance width="720.0"/>
  <unicode hex="2013"/>
  <outline>
    <contour>
      <point x="40.0" y="240.0" type="line"/>
      <point x="650.0" y="240.0" type="line"/>
      <point x="680.0" y="360.0" type="line"/>
      <point x="70.0" y="360.0" type="line"/>
    </contour>
  </outline>
</glyph>
<glyph name="emdash" format="2">
  <advance width="1440.0"/>
  <unicode hex="2014"/>
  <outline>
    <contour>
      <point x="44.5" y="237.0" type="line"/>
      <point x="1364.5" y="237.0" type="line"/>
      <point x="1395.5" y="363.0" type="line"/>
      <point x="75.5" y="363.0" type="line"/>
    </contour>
  </outline>
</glyph>
<glyph name="quoteleft" format="2">
  <advance width="280.0"/>
  <unicode hex="2018"/>
  <outline>
    <contour>
      <point x="117.5" y="585.0" type="curve"/>
      <point x="255.5" y="585.0" type="line"/>
      <point x="289.0" y="719.5"/>
      <point x="355.0" y="822.0"/>
      <point x="433.0" y="900.0" type="curve"/>
      <point x="285.5" y="900.0" type="line"/>
      <point x="205.0" y="811.0"/>
      <point x="147.0" y="705.0"/>
    </contour>
  </outline>
</glyph>
<glyph name="dagger" format="2">
  <advance width="600.0"/>
  <unicode hex="2020"/>
  <outline>
    <contour>
      <point x="159.5" y="0.0" type="line"/>
      <point x="294.5" y="0.0" type="line"/>
      <point x="443.5" y="660.0" type="line"/>
      <point x="378.0" y="582.5" type="line"/>
      <point x="602.5" y="574.0" type="line"/>
      <point x="630.0" y="686.5" type="line"/>
      <point x="448.0" y="677.5" type="line"/>
      <point x="516.5" y="900.0" type="line"/>
      <point x="381.5" y="900.0" type="line"/>
      <point x="340.5" y="677.5" type="line"/>
      <point x="162.0" y="686.5" type="line"/>
      <point x="134.5" y="574.0" type="line"/>
      <point x="363.0" y="582.5" type="line"/>
      <point x="336.0" y="660.0" type="line"/>
    </contour>
  </outline>
</glyph>
<glyph name="daggerdbl" format="2">
  <advance width="600.0"/>
  <unicode hex="2021"/>
  <outline>
    <contour>
      <point x="157.5" y="-1.0" type="line"/>
      <point x="292.5" y="-1.0" type="line"/>
      <point x="333.5" y="221.5" type="line"/>
      <point x="512.0" y="212.5" type="line"/>
      <point x="539.5" y="325.0" type="line"/>
      <point x="311.0" y="316.5" type="line"/>
      <point x="338.0" y="239.0" type="line"/>
      <point x="396.0" y="449.0" type="line"/>
      <point x="441.5" y="659.0" type="line"/>
      <point x="376.0" y="581.5" type="line"/>
      <point x="600.5" y="573.0" type="line"/>
      <point x="628.0" y="685.5" type="line"/>
      <point x="446.0" y="676.5" type="line"/>
      <point x="514.5" y="899.0" type="line"/>
      <point x="379.5" y="899.0" type="line"/>
      <point x="338.5" y="676.5" type="line"/>
      <point x="160.0" y="685.5" type="line"/>
      <point x="132.5" y="573.0" type="line"/>
      <point x="361.0" y="581.5" type="line"/>
      <point x="334.0" y="659.0" type="line"/>
      <point x="276.0" y="449.0" type="line"/>
      <point x="230.5" y="239.0" type="line"/>
      <point x="296.0" y="316.5" type="line"/>
      <point x="71.5" y="325.0" type="line"/>
      <point x="44.0" y="212.5" type="line"/>
      <point x="226.0" y="221.5" type="line"/>
    </contour>
  </outline>
</glyph>
<glyph name="bullet" format="2">
  <advance width="480.0"/>
  <unicode hex="2022"/>
  <outline>
    <contour>
      <point x="221.0" y="294.0" type="curve" smooth="yes"/>
      <point x="317.0" y="294.0"/>
      <point x="396.0" y="377.0"/>
      <point x="396.0" y="468.0" type="curve" smooth="yes"/>
      <point x="396.0" y="545.0"/>
      <point x="339.0" y="606.0"/>
      <point x="259.0" y="606.0" type="curve" smooth="yes"/>
      <point x="163.0" y="606.0"/>
      <point x="84.0" y="522.0"/>
      <point x="84.0" y="430.0" type="curve" smooth="yes"/>
      <point x="84.0" y="352.0"/>
      <point x="141.0" y="294.0"/>
    </contour>
  </outline>
</glyph>
<glyph name="ellipsis" format="2">
  <advance width="1440.0"/>
  <unicode hex="2026"/>
  <outline>
    <contour>
      <point x="1132.0" y="-16.0" type="curve" smooth="yes"/>
      <point x="1186.0" y="-16.0"/>
      <point x="1233.0" y="31.0"/>
      <point x="1233.0" y="85.0" type="curve" smooth="yes"/>
      <point x="1233.0" y="130.0"/>
      <point x="1198.5" y="164.0"/>
      <point x="1154.0" y="164.0" type="curve" smooth="yes"/>
      <point x="1100.0" y="164.0"/>
      <point x="1053.0" y="117.0"/>
      <point x="1053.0" y="63.5" type="curve" smooth="yes"/>
      <point x="1053.0" y="18.0"/>
      <point x="1089.0" y="-16.0"/>
    </contour>
    <contour>
      <point x="172.0" y="-16.0" type="curve" smooth="yes"/>
      <point x="226.0" y="-16.0"/>
      <point x="273.0" y="31.0"/>
      <point x="273.0" y="85.0" type="curve" smooth="yes"/>
      <point x="273.0" y="130.0"/>
      <point x="238.5" y="164.0"/>
      <point x="194.0" y="164.0" type="curve" smooth="yes"/>
      <point x="140.0" y="164.0"/>
      <point x="93.0" y="117.0"/>
      <point x="93.0" y="63.5" type="curve" smooth="yes"/>
      <point x="93.0" y="18.0"/>
      <point x="129.0" y="-16.0"/>
    </contour>
    <contour>
      <point x="652.0" y="-16.0" type="curve" smooth="yes"/>
      <point x="706.0" y="-16.0"/>
      <point x="753.0" y="31.0"/>
      <point x="753.0" y="85.0" type="curve" smooth="yes"/>
      <point x="753.0" y="130.0"/>
      <point x="718.5" y="164.0"/>
      <point x="674.0" y="164.0" type="curve" smooth="yes"/>
      <point x="620.0" y="164.0"/>
      <point x="573.0" y="117.0"/>
      <point x="573.0" y="63.5" type="curve" smooth="yes"/>
      <point x="573.0" y="18.0"/>
      <point x="609.0" y="-16.0"/>
    </contour>
  </outline>
</glyph>
<glyph name="minute" format="2">
  <advance width="280.0"/>
  <unicode hex="2032"/>
  <outline>
    <contour>
      <point x="108.5" y="555.0" type="line"/>
      <point x="177.5" y="555.0" type="line"/>
      <point x="406.0" y="900.0" type="line"/>
      <point x="229.0" y="900.0" type="line"/>
    </contour>
  </outline>
</glyph>
<glyph name="guilsinglleft" format="2">
  <advance width="360.0"/>
  <unicode hex="2039"/>
  <outline>
    <contour>
      <point x="141.0" y="60.0" type="line"/>
      <point x="266.0" y="60.0" type="line"/>
      <point x="163.0" y="300.0" type="line"/>
      <point x="384.0" y="540.0" type="line"/>
      <point x="239.0" y="540.0" type="line"/>
      <point x="32.0" y="315.0" type="line"/>
    </contour>
  </outline>
</glyph>
<glyph name="guilsinglright" format="2">
  <advance width="360.0"/>
  <unicode hex="203A"/>
  <outline>
    <contour>
      <point x="-25.5" y="60.0" type="line"/>
      <point x="119.5" y="60.0" type="line"/>
      <point x="326.5" y="285.0" type="line"/>
      <point x="217.5" y="540.0" type="line"/>
      <point x="92.5" y="540.0" type="line"/>
      <point x="195.5" y="300.0" type="line"/>
    </contour>
  </outline>
</glyph>
<glyph name="commercialMinusSign" format="2">
  <advance width="750.0"/>
  <unicode hex="2052"/>
  <outline>
    <contour>
      <point x="196.0" y="0.0" type="line"/>
      <point x="650.0" y="900.0" type="line"/>
      <point x="554.0" y="900.0" type="line"/>
      <point x="100.0" y="0.0" type="line"/>
    </contour>
    <contour>
      <point x="165.0" y="561.0" type="curve" smooth="yes"/>
      <point x="222.0" y="561.0"/>
      <point x="264.0" y="604.0"/>
      <point x="264.0" y="660.0" type="curve" smooth="yes"/>
      <point x="264.0" y="716.0"/>
      <point x="222.0" y="759.0"/>
      <point x="165.0" y="759.0" type="curve" smooth="yes"/>
      <point x="109.0" y="759.0"/>
      <point x="66.0" y="716.0"/>
      <point x="66.0" y="660.0" type="curve" smooth="yes"/>
      <point x="66.0" y="604.0"/>
      <point x="109.0" y="561.0"/>
    </contour>
    <contour>
      <point x="585.0" y="141.0" type="curve" smooth="yes"/>
      <point x="642.0" y="141.0"/>
      <point x="684.0" y="184.0"/>
      <point x="684.0" y="240.0" type="curve" smooth="yes"/>
      <point x="684.0" y="296.0"/>
      <point x="642.0" y="339.0"/>
      <point x="585.0" y="339.0" type="curve" smooth="yes"/>
      <point x="529.0" y="339.0"/>
      <point x="486.0" y="296.0"/>
      <point x="486.0" y="240.0" type="curve" smooth="yes"/>
      <point x="486.0" y="184.0"/>
      <point x="529.0" y="141.0"/>
    </contour>
  </outline>
</glyph>
<glyph name="euro" format="2">
  <advance width="750.0"/>
  <unicode hex="20AC"/>
  <outline>
    <contour>
      <point x="455.5" y="-16.0" type="curve" smooth="yes"/>
      <point x="517.5" y="-16.0"/>
      <point x="578.0" y="4.5"/>
      <point x="634.0" y="44.5" type="curve"/>
      <point x="634.5" y="204.5" type="line"/>
      <point x="588.5" y="149.5"/>
      <point x="531.5" y="112.0"/>
      <point x="472.5" y="112.0" type="curve" smooth="yes"/>
      <point x="379.0" y="112.0"/>
      <point x="338.0" y="203.0"/>
      <point x="338.0" y="310.0" type="curve" smooth="yes"/>
      <point x="338.0" y="472.5"/>
      <point x="431.5" y="784.0"/>
      <point x="605.0" y="784.0" type="curve" smooth="yes"/>
      <point x="677.5" y="784.0"/>
      <point x="726.0" y="726.5"/>
      <point x="744.5" y="656.0" type="curve"/>
      <point x="822.5" y="806.5" type="line"/>
      <point x="772.5" y="878.5"/>
      <point x="696.0" y="913.0"/>
      <point x="616.5" y="913.0" type="curve" smooth="yes"/>
      <point x="353.5" y="913.0"/>
      <point x="198.0" y="557.0"/>
      <point x="198.0" y="312.5" type="curve" smooth="yes"/>
      <point x="198.0" y="129.0"/>
      <point x="285.5" y="-16.0"/>
    </contour>
    <contour>
      <point x="82.5" y="306.0" type="line"/>
      <point x="550.5" y="306.0" type="line"/>
      <point x="573.5" y="402.0" type="line"/>
      <point x="105.5" y="402.0" type="line"/>
    </contour>
    <contour>
      <point x="129.5" y="498.0" type="line"/>
      <point x="597.5" y="498.0" type="line"/>
      <point x="620.5" y="594.0" type="line"/>
      <point x="152.5" y="594.0" type="line"/>
    </contour>
  </outline>
</glyph>
<glyph name="careof" format="2">
  <advance width="960.0"/>
  <unicode hex="2105"/>
  <outline>
    <contour>
      <point x="-1.5" y="0.0" type="line"/>
      <point x="124.5" y="0.0" type="line"/>
      <point x="955.0" y="900.0" type="line"/>
      <point x="829.0" y="900.0" type="line"/>
    </contour>
    <contour>
      <point x="668.0" y="-15.0" type="curve" smooth="yes"/>
      <point x="788.0" y="-15.0"/>
      <point x="893.0" y="87.5"/>
      <point x="893.0" y="201.0" type="curve" smooth="yes"/>
      <point x="893.0" y="296.0"/>
      <point x="819.0" y="375.0"/>
      <point x="713.0" y="375.0" type="curve" smooth="yes"/>
      <point x="592.5" y="375.0"/>
      <point x="487.5" y="271.5"/>
      <point x="487.5" y="158.5" type="curve" smooth="yes"/>
      <point x="487.5" y="64.0"/>
      <point x="562.0" y="-15.0"/>
    </contour>
    <contour>
      <point x="678.0" y="83.5" type="curve" smooth="yes"/>
      <point x="627.5" y="83.5"/>
      <point x="592.5" y="121.5"/>
      <point x="592.5" y="168.0" type="curve" smooth="yes"/>
      <point x="592.5" y="227.0"/>
      <point x="646.0" y="276.5"/>
      <point x="702.0" y="276.5" type="curve" smooth="yes"/>
      <point x="752.0" y="276.5"/>
      <point x="788.5" y="238.0"/>
      <point x="788.5" y="190.5" type="curve" smooth="yes"/>
      <point x="788.5" y="132.0"/>
      <point x="733.5" y="83.5"/>
    </contour>
    <contour>
      <point x="323.5" y="525.0" type="curve" smooth="yes"/>
      <point x="355.0" y="525.0"/>
      <point x="385.5" y="532.5"/>
      <point x="414.0" y="544.5" type="curve"/>
      <point x="414.0" y="647.0" type="line"/>
      <point x="394.5" y="632.5"/>
      <point x="370.5" y="623.5"/>
      <point x="343.5" y="623.5" type="curve" smooth="yes"/>
      <point x="289.0" y="623.5"/>
      <point x="252.0" y="660.5"/>
      <point x="252.0" y="708.5" type="curve" smooth="yes"/>
      <point x="252.0" y="767.5"/>
      <point x="303.0" y="815.0"/>
      <point x="362.5" y="815.0" type="curve" smooth="yes"/>
      <point x="401.0" y="815.0"/>
      <point x="429.5" y="796.0"/>
      <point x="445.0" y="772.5" type="curve"/>
      <point x="493.5" y="867.0" type="line"/>
      <point x="462.0" y="895.5"/>
      <point x="417.5" y="913.5"/>
      <point x="368.0" y="913.5" type="curve" smooth="yes"/>
      <point x="248.5" y="913.5"/>
      <point x="143.5" y="811.5"/>
      <point x="143.5" y="698.5" type="curve" smooth="yes"/>
      <point x="143.5" y="603.5"/>
      <point x="219.0" y="525.0"/>
    </contour>
  </outline>
</glyph>
<glyph name="numero" format="2">
  <advance width="1425.0"/>
  <unicode hex="2116"/>
  <outline>
    <contour>
      <point x="752.0" y="-30.0" type="line"/>
      <point x="984.0" y="900.0" type="line"/>
      <point x="846.0" y="900.0" type="line"/>
      <point x="696.5" y="300.5" type="line"/>
      <point x="268.0" y="930.0" type="line"/>
      <point x="36.0" y="0.0" type="line"/>
      <point x="174.0" y="0.0" type="line"/>
      <point x="323.5" y="600.0" type="line"/>
    </contour>
    <contour>
      <point x="1147.0" y="104.0" type="curve" smooth="yes"/>
      <point x="1201.0" y="104.0"/>
      <point x="1248.0" y="151.0"/>
      <point x="1248.0" y="205.0" type="curve" smooth="yes"/>
      <point x="1248.0" y="250.0"/>
      <point x="1213.5" y="284.0"/>
      <point x="1169.0" y="284.0" type="curve" smooth="yes"/>
      <point x="1115.0" y="284.0"/>
      <point x="1068.0" y="237.0"/>
      <point x="1068.0" y="183.5" type="curve" smooth="yes"/>
      <point x="1068.0" y="138.0"/>
      <point x="1104.0" y="104.0"/>
    </contour>
    <contour>
      <point x="1237.0" y="405.0" type="curve" smooth="yes"/>
      <point x="1355.5" y="405.0"/>
      <point x="1461.0" y="506.0"/>
      <point x="1461.0" y="620.5" type="curve" smooth="yes"/>
      <point x="1461.0" y="720.0"/>
      <point x="1383.0" y="795.0"/>
      <point x="1281.0" y="795.0" type="curve" smooth="yes"/>
      <point x="1162.0" y="795.0"/>
      <point x="1057.0" y="693.5"/>
      <point x="1057.0" y="579.0" type="curve" smooth="yes"/>
      <point x="1057.0" y="480.5"/>
      <point x="1135.0" y="405.0"/>
    </contour>
    <contour>
      <point x="1248.5" y="504.0" type="curve" smooth="yes"/>
      <point x="1198.0" y="504.0"/>
      <point x="1160.5" y="541.5"/>
      <point x="1160.5" y="590.5" type="curve" smooth="yes"/>
      <point x="1160.5" y="646.0"/>
      <point x="1212.0" y="696.0"/>
      <point x="1270.0" y="696.0" type="curve" smooth="yes"/>
      <point x="1320.0" y="696.0"/>
      <point x="1358.0" y="658.5"/>
      <point x="1358.0" y="609.5" type="curve" smooth="yes"/>
      <point x="1358.0" y="554.5"/>
      <point x="1306.0" y="504.0"/>
    </contour>
  </outline>
</glyph>
<glyph name="trademark" format="2">
  <advance width="840.0"/>
  <unicode hex="2122"/>
  <outline>
    <contour>
      <point x="452.0" y="540.0" type="line"/>
      <point x="545.0" y="540.0" type="line"/>
      <point x="562.5" y="614.0" type="line" smooth="yes"/>
      <point x="569.0" y="640.5"/>
      <point x="573.5" y="659.0"/>
      <point x="577.0" y="678.0" type="curve"/>
      <point x="582.5" y="664.5"/>
      <point x="589.0" y="652.5"/>
      <point x="597.5" y="637.0" type="curve" smooth="yes"/>
      <point x="648.0" y="546.0" type="line"/>
      <point x="743.0" y="636.5" type="line" smooth="yes"/>
      <point x="758.5" y="651.5"/>
      <point x="769.5" y="663.0"/>
      <point x="781.5" y="675.0" type="curve"/>
      <point x="775.5" y="655.5"/>
      <point x="770.0" y="636.5"/>
      <point x="764.5" y="614.0" type="curve" smooth="yes"/>
      <point x="747.0" y="540.0" type="line"/>
      <point x="846.0" y="540.0" type="line"/>
      <point x="944.5" y="945.0" type="line"/>
      <point x="675.0" y="687.0" type="line"/>
      <point x="545.0" y="918.5" type="line"/>
    </contour>
    <contour>
      <point x="191.5" y="540.0" type="line"/>
      <point x="290.5" y="540.0" type="line"/>
      <point x="356.5" y="810.0" type="line"/>
      <point x="456.0" y="810.0" type="line"/>
      <point x="478.0" y="900.0" type="line"/>
      <point x="180.0" y="900.0" type="line"/>
      <point x="158.0" y="810.0" type="line"/>
      <point x="257.5" y="810.0" type="line"/>
    </contour>
  </outline>
</glyph>
<glyph name="dek" format="2">
  <advance width="750.0"/>
  <unicode hex="218A"/>
  <outline>
    <contour>
      <point x="341.5" y="-11.0" type="curve" smooth="yes"/>
      <point x="507.0" y="-11.0"/>
      <point x="650.5" y="130.5"/>
      <point x="650.5" y="281.0" type="curve" smooth="yes"/>
      <point x="650.5" y="310.5"/>
      <point x="645.0" y="340.5"/>
      <point x="633.0" y="374.0" type="curve"/>
      <point x="472.0" y="374.0" type="line"/>
      <point x="498.5" y="343.0"/>
      <point x="512.5" y="310.0"/>
      <point x="512.5" y="275.0" type="curve" smooth="yes"/>
      <point x="512.5" y="192.5"/>
      <point x="439.0" y="119.5"/>
      <point x="356.0" y="119.5" type="curve" smooth="yes"/>
      <point x="286.0" y="119.5"/>
      <point x="234.0" y="172.5"/>
      <point x="234.0" y="241.0" type="curve" smooth="yes"/>
      <point x="234.0" y="289.0"/>
      <point x="258.0" y="325.5"/>
      <point x="305.5" y="376.0" type="curve" smooth="yes"/>
      <point x="796.5" y="900.0" type="line"/>
      <point x="236.5" y="900.0" type="line"/>
      <point x="204.0" y="768.0" type="line"/>
      <point x="559.5" y="768.0" type="line"/>
      <point x="544.5" y="804.5" type="line"/>
      <point x="210.5" y="462.5" type="line" smooth="yes"/>
      <point x="131.0" y="381.0"/>
      <point x="91.0" y="313.5"/>
      <point x="91.0" y="229.0" type="curve" smooth="yes"/>
      <point x="91.0" y="93.5"/>
      <point x="200.5" y="-11.0"/>
    </contour>
  </outline>
</glyph>
<glyph name="el" format="2">
  <advance width="750.0"/>
  <unicode hex="218B"/>
  <outline>
    <contour>
      <point x="57.0" y="0.0" type="line"/>
      <point x="589.0" y="0.0" type="line"/>
      <point x="620.5" y="129.0" type="line"/>
      <point x="246.5" y="129.0" type="line"/>
      <point x="273.5" y="83.5" type="line"/>
      <point x="562.5" y="461.5" type="line"/>
      <point x="540.5" y="454.5"/>
      <point x="519.5" y="451.5"/>
      <point x="497.5" y="451.5" type="curve" smooth="yes"/>
      <point x="409.0" y="451.5"/>
      <point x="342.0" y="508.5"/>
      <point x="342.0" y="596.0" type="curve" smooth="yes"/>
      <point x="342.0" y="695.5"/>
      <point x="427.5" y="785.0"/>
      <point x="527.5" y="785.0" type="curve" smooth="yes"/>
      <point x="621.0" y="785.0"/>
      <point x="684.5" y="709.0"/>
      <point x="683.5" y="617.5" type="curve"/>
      <point x="795.0" y="754.5" type="line"/>
      <point x="752.0" y="858.5"/>
      <point x="648.5" y="916.0"/>
      <point x="540.5" y="916.0" type="curve" smooth="yes"/>
      <point x="364.5" y="916.0"/>
      <point x="202.0" y="760.0"/>
      <point x="202.0" y="584.0" type="curve" smooth="yes"/>
      <point x="202.0" y="473.0"/>
      <point x="271.0" y="381.0"/>
      <point x="373.5" y="350.0" type="curve"/>
      <point x="370.5" y="410.5" type="line"/>
    </contour>
  </outline>
</glyph>
<glyph name="minus" format="2">
  <advance width="750.0"/>
  <unicode hex="2212"/>
  <outline>
    <contour>
      <point x="107.5" y="391.0" type="line"/>
      <point x="687.5" y="391.0" type="line"/>
      <point x="716.5" y="509.0" type="line"/>
      <point x="136.5" y="509.0" type="line"/>
    </contour>
  </outline>
</glyph>
<glyph name="approxequal" format="2">
  <advance width="750.0"/>
  <unicode hex="2248"/>
  <outline>
    <contour>
      <point x="141.0" y="469.5" type="line"/>
      <point x="182.5" y="528.5"/>
      <point x="227.5" y="563.0"/>
      <point x="287.0" y="563.0" type="curve" smooth="yes"/>
      <point x="389.5" y="563.0"/>
      <point x="459.5" y="474.0"/>
      <point x="583.5" y="474.0" type="curve" smooth="yes"/>
      <point x="657.0" y="474.0"/>
      <point x="727.0" y="509.5"/>
      <point x="779.0" y="574.0" type="curve"/>
      <point x="746.0" y="682.0" type="line"/>
      <point x="705.5" y="623.0"/>
      <point x="659.0" y="589.0"/>
      <point x="602.5" y="589.0" type="curve" smooth="yes"/>
      <point x="502.0" y="589.0"/>
      <point x="435.0" y="678.0"/>
      <point x="304.0" y="678.0" type="curve" smooth="yes"/>
      <point x="228.0" y="678.0"/>
      <point x="160.5" y="643.0"/>
      <point x="108.0" y="577.0" type="curve"/>
    </contour>
    <contour>
      <point x="78.0" y="217.5" type="line"/>
      <point x="119.5" y="276.5"/>
      <point x="164.5" y="311.0"/>
      <point x="224.0" y="311.0" type="curve" smooth="yes"/>
      <point x="326.5" y="311.0"/>
      <point x="396.5" y="222.0"/>
      <point x="520.5" y="222.0" type="curve" smooth="yes"/>
      <point x="594.0" y="222.0"/>
      <point x="664.0" y="257.5"/>
      <point x="716.0" y="322.0" type="curve"/>
      <point x="683.0" y="430.0" type="line"/>
      <point x="642.5" y="371.0"/>
      <point x="596.0" y="337.0"/>
      <point x="539.5" y="337.0" type="curve" smooth="yes"/>
      <point x="439.0" y="337.0"/>
      <point x="372.0" y="426.0"/>
      <point x="241.0" y="426.0" type="curve" smooth="yes"/>
      <point x="165.0" y="426.0"/>
      <point x="97.5" y="391.0"/>
      <point x="45.0" y="325.0" type="curve"/>
    </contour>
  </outline>
</glyph>
<glyph name="notequal" format="2">
  <advance width="750.0"/>
  <unicode hex="2260"/>
  <outline>
    <contour>
      <point x="140.5" y="150.0" type="line"/>
      <point x="244.5" y="150.0" type="line"/>
      <point x="684.5" y="750.0" type="line"/>
      <point x="580.5" y="750.0" type="line"/>
    </contour>
    <contour>
      <point x="79.0" y="274.0" type="line"/>
      <point x="659.0" y="274.0" type="line"/>
      <point x="687.0" y="388.0" type="line"/>
      <point x="107.0" y="388.0" type="line"/>
    </contour>
    <contour>
      <point x="138.0" y="512.0" type="line"/>
      <point x="718.0" y="512.0" type="line"/>
      <point x="746.0" y="626.0" type="line"/>
      <point x="166.0" y="626.0" type="line"/>
    </contour>
  </outline>
</glyph>
<glyph name="lessequal" format="2">
  <advance width="750.0"/>
  <unicode hex="2264"/>
  <outline>
    <contour>
      <point x="645.0" y="203.0" type="line"/>
      <point x="674.5" y="321.5" type="line"/>
      <point x="436.5" y="451.0" type="line" smooth="yes"/>
      <point x="404.0" y="469.0"/>
      <point x="365.0" y="486.0"/>
      <point x="328.0" y="502.0" type="curve"/>
      <point x="373.5" y="519.0"/>
      <point x="420.5" y="536.0"/>
      <point x="462.0" y="554.0" type="curve" smooth="yes"/>
      <point x="764.0" y="684.5" type="line"/>
      <point x="797.0" y="819.0" type="line"/>
      <point x="94.0" y="511.0" type="line"/>
    </contour>
    <contour>
      <point x="23.0" y="63.5" type="line"/>
      <point x="611.0" y="63.5" type="line"/>
      <point x="636.0" y="164.5" type="line"/>
      <point x="48.0" y="164.5" type="line"/>
    </contour>
  </outline>
</glyph>
<glyph name="greaterequal" format="2">
  <advance width="750.0"/>
  <unicode hex="2265"/>
  <outline>
    <contour>
      <point x="56.0" y="203.0" type="line"/>
      <point x="759.5" y="511.0" type="line"/>
      <point x="208.0" y="819.0" type="line"/>
      <point x="178.5" y="700.5" type="line"/>
      <point x="417.0" y="571.0" type="line" smooth="yes"/>
      <point x="449.0" y="553.0"/>
      <point x="488.0" y="536.0"/>
      <point x="525.0" y="520.0" type="curve"/>
      <point x="480.0" y="503.0"/>
      <point x="433.0" y="486.0"/>
      <point x="391.5" y="468.0" type="curve" smooth="yes"/>
      <point x="89.5" y="337.5" type="line"/>
    </contour>
    <contour>
      <point x="22.0" y="63.5" type="line"/>
      <point x="610.0" y="63.5" type="line"/>
      <point x="635.0" y="164.5" type="line"/>
      <point x="47.0" y="164.5" type="line"/>
    </contour>
  </outline>
</glyph>
<glyph name="leftanglebracket-math" format="2">
  <advance width="480.0"/>
  <unicode hex="27E8"/>
  <outline>
    <contour>
      <point x="177.5" y="-180.0" type="line"/>
      <point x="311.0" y="-180.0" type="line"/>
      <point x="192.5" y="370.5" type="line"/>
      <point x="609.0" y="960.0" type="line"/>
      <point x="457.5" y="960.0" type="line"/>
      <point x="55.0" y="390.0" type="line"/>
    </contour>
  </outline>
</glyph>
<glyph name="rightanglebracket-math" format="2">
  <advance width="480.0"/>
  <unicode hex="27E9"/>
  <outline>
    <contour>
      <point x="-87.0" y="-180.0" type="line"/>
      <point x="66.5" y="-180.0" type="line"/>
      <point x="469.0" y="390.0" type="line"/>
      <point x="346.5" y="960.0" type="line"/>
      <point x="215.0" y="960.0" type="line"/>
      <point x="332.5" y="414.0" type="line"/>
    </contour>
  </outline>
</glyph>
<glyph name="A.ring" format="2">
  <advance width="810.0"/>
  <anchor x="551.5" y="900.0" name="top"/>
  <outline>
    <contour>
      <point x="-60.0" y="0.0" type="line"/>
      <point x="95.0" y="0.0" type="line"/>
      <point x="401.0" y="468.0" type="line"/>
      <point x="432.5" y="515.5"/>
      <point x="457.5" y="556.0"/>
      <point x="488.0" y="617.0" type="curve"/>
      <point x="489.0" y="555.5"/>
      <point x="496.0" y="515.0"/>
      <point x="503.5" y="468.0" type="curve"/>
      <point x="579.0" y="0.0" type="line"/>
      <point x="720.0" y="0.0" type="line"/>
      <point x="566.0" y="900.0" type="line"/>
      <point x="537.0" y="900.0" type="line"/>
    </contour>
    <contour>
      <point x="177.0" y="213.5" type="line"/>
      <point x="582.0" y="213.5" type="line"/>
      <point x="568.0" y="333.0" type="line"/>
      <point x="251.5" y="333.0" type="line"/>
    </contour>
  </outline>
</glyph>
<glyph name="G.stroke" format="2">
  <advance width="930.0"/>
  <anchor x="492.0" y="0.0" name="bottom"/>
  <anchor x="798.0" y="366.0" name="center"/>
  <anchor x="604.0" y="900.0" name="top"/>
  <outline>
    <contour>
      <point x="521.0" y="-18.0" type="curve" smooth="yes"/>
      <point x="630.0" y="-18.0"/>
      <point x="734.5" y="15.0"/>
      <point x="817.5" y="77.5" type="curve"/>
      <point x="870.0" y="522.0" type="line"/>
      <point x="732.5" y="522.0" type="line"/>
      <point x="694.5" y="165.0" type="line"/>
      <point x="647.5" y="138.5"/>
      <point x="591.5" y="123.0"/>
      <point x="531.0" y="123.0" type="curve" smooth="yes"/>
      <point x="360.5" y="123.0"/>
      <point x="230.0" y="261.0"/>
      <point x="230.0" y="431.5" type="curve" smooth="yes"/>
      <point x="230.0" y="617.5"/>
      <point x="382.5" y="777.0"/>
      <point x="566.0" y="777.0" type="curve" smooth="yes"/>
      <point x="678.5" y="777.0"/>
      <point x="773.5" y="717.5"/>
      <point x="825.0" y="627.5" type="curve"/>
      <point x="888.0" y="793.0" type="line"/>
      <point x="808.0" y="870.5"/>
      <point x="698.5" y="918.0"/>
      <point x="575.5" y="918.0" type="curve" smooth="yes"/>
      <point x="305.5" y="918.0"/>
      <point x="76.0" y="689.0"/>
      <point x="76.0" y="423.0" type="curve" smooth="yes"/>
      <point x="76.0" y="177.5"/>
      <point x="271.0" y="-18.0"/>
    </contour>
  </outline>
</glyph>
<glyph name="H.bar" format="2">
  <advance width="800.0"/>
  <anchor x="325.0" y="0.0" name="bottom"/>
  <anchor x="506.0" y="735.0" name="center"/>
  <anchor x="548.5" y="900.0" name="top"/>
  <anchor x="274.5" y="900.0" name="topleft"/>
  <outline>
    <contour>
      <point x="36.0" y="0.0" type="line"/>
      <point x="180.0" y="0.0" type="line"/>
      <point x="287.5" y="429.0" type="line"/>
      <point x="577.5" y="429.0" type="line"/>
      <point x="470.0" y="0.0" type="line"/>
      <point x="614.0" y="0.0" type="line"/>
      <point x="839.0" y="900.0" type="line"/>
      <point x="695.0" y="900.0" type="line"/>
      <point x="611.0" y="561.0" type="line"/>
      <point x="321.0" y="561.0" type="line"/>
      <point x="405.0" y="900.0" type="line"/>
      <point x="261.0" y="900.0" type="line"/>
    </contour>
  </outline>
</glyph>
<glyph name=".notdef" format="2">
  <advance width="720.0"/>
  <outline>
    <contour>
      <point x="96.0" y="-360.0" type="line"/>
      <point x="624.0" y="-360.0" type="line"/>
      <point x="624.0" y="960.0" type="line"/>
      <point x="96.0" y="960.0" type="line"/>
    </contour>
  </outline>
</glyph>
<glyph name="a.ss02" format="2">
  <advance width="680.0"/>
  <anchor x="253.0" y="0.0" name="bottom"/>
  <anchor x="476.0" y="0.0" name="ogonek"/>
  <anchor x="410.0" y="600.0" name="top"/>
  <outline>
    <contour>
      <point x="232.5" y="-11.0" type="curve" smooth="yes"/>
      <point x="310.0" y="-11.0"/>
      <point x="377.0" y="20.5"/>
      <point x="429.0" y="69.5" type="curve"/>
      <point x="411.0" y="0.0" type="line"/>
      <point x="536.0" y="0.0" type="line"/>
      <point x="619.0" y="330.0" type="line" smooth="yes"/>
      <point x="662.0" y="501.0"/>
      <point x="538.5" y="613.5"/>
      <point x="349.5" y="613.5" type="curve" smooth="yes"/>
      <point x="279.5" y="613.5"/>
      <point x="211.0" y="598.0"/>
      <point x="153.5" y="573.0" type="curve"/>
      <point x="152.5" y="441.0" type="line"/>
      <point x="204.5" y="476.0"/>
      <point x="266.5" y="498.0"/>
      <point x="331.0" y="498.0" type="curve" smooth="yes"/>
      <point x="448.5" y="498.0"/>
      <point x="517.0" y="426.0"/>
      <point x="494.0" y="338.5" type="curve" smooth="yes"/>
      <point x="488.5" y="318.0" type="line"/>
      <point x="427.5" y="360.0"/>
      <point x="346.0" y="381.0"/>
      <point x="274.5" y="381.0" type="curve" smooth="yes"/>
      <point x="132.0" y="381.0"/>
      <point x="19.0" y="295.0"/>
      <point x="19.0" y="170.5" type="curve" smooth="yes"/>
      <point x="19.0" y="57.0"/>
      <point x="115.5" y="-11.0"/>
    </contour>
    <contour>
      <point x="272.5" y="99.0" type="curve" smooth="yes"/>
      <point x="209.0" y="99.0"/>
      <point x="156.0" y="127.0"/>
      <point x="156.0" y="184.5" type="curve" smooth="yes"/>
      <point x="156.0" y="240.0"/>
      <point x="205.0" y="273.0"/>
      <point x="281.5" y="273.0" type="curve" smooth="yes"/>
      <point x="341.0" y="273.0"/>
      <point x="412.5" y="253.0"/>
      <point x="466.0" y="218.0" type="curve"/>
      <point x="439.5" y="148.0"/>
      <point x="356.0" y="99.0"/>
    </contour>
  </outline>
</glyph>
